<svg width="24" height="24" viewBox="0 0 24 24" fill="none" xmlns="http://www.w3.org/2000/svg">
<path d="M22.3798 5.87368C22.1611 4.5019 21.4322 3.31715 20.3276 2.53768C19.2249 1.75947 17.8744 1.47488 16.5248 1.73603L16.2129 0.125092C18.0055 -0.221969 19.8027 0.158791 21.2742 1.19704C22.7434 2.23381 23.7117 3.80303 24.0007 5.61524L22.3798 5.87368Z" fill="white"/>
<path d="M19.9448 6.59415C19.8226 5.82804 19.4167 5.16724 18.8017 4.73322C18.1887 4.30063 17.4369 4.14256 16.6849 4.28799L16.373 2.67705C17.5679 2.44574 18.7664 2.69994 19.7481 3.39262C20.7277 4.08399 21.3731 5.12921 21.5654 6.33595L19.9448 6.59415Z" fill="white"/>
<path d="M18.4898 7.27894C18.868 6.73465 18.7387 5.98574 18.2012 5.60644C17.6636 5.22714 16.9212 5.36084 16.543 5.90515C16.1648 6.44946 16.2941 7.19835 16.8316 7.57765C17.3693 7.95695 18.1116 7.82325 18.4898 7.27894Z" fill="white"/>
<path d="M13.3971 7.60074C12.1506 7.58993 10.9823 8.23515 10.0995 8.91794C9.21674 8.23519 8.04845 7.58995 6.80195 7.60074C3.19416 7.6251 1.33135 10.7047 1.54281 13.995C1.5527 14.1746 1.56954 14.3521 1.59134 14.5277H0V16.1665H1.97782C3.17982 19.6069 6.60082 22.1777 9.65157 23.875C10.0995 24.1241 10.3092 23.9363 10.4325 23.8684C10.7559 23.6902 18.3547 19.4401 18.6557 13.9952C18.8675 10.703 17.0059 7.62537 13.3966 7.60099C12.1501 7.59 14.8317 7.61051 13.3966 7.60099C12.1501 7.59 14.8317 7.61051 13.3966 7.60099L13.3971 7.60074ZM17.0182 13.8932C17.018 13.8958 17.0178 13.8986 17.0177 13.9011C16.8034 17.8232 11.5072 21.3062 10.0223 22.2074C9.25422 21.7709 7.78848 20.8651 6.4138 19.6054C5.17813 18.4732 4.29261 17.3226 3.76238 16.1659H4.69845C4.98269 16.1659 5.24659 16.019 5.39624 15.7777L6.57771 13.8705L8.97164 19.0833C9.48682 19.847 10.2304 19.5001 10.456 19.0985L11.8307 16.2599H14.5774V14.6211H11.3161C11.0014 14.6211 10.7144 14.8008 10.5774 15.0837L9.73714 16.819L7.43131 11.7976C7.16428 11.2165 6.32162 11.1689 5.98775 11.708L4.24145 14.527H3.251C3.2162 14.3183 3.19257 14.1097 3.18104 13.9009C3.04715 11.5364 4.12536 9.23887 6.83534 9.23887C7.61204 9.23887 8.57559 9.71945 9.55104 10.5941C9.86275 10.8738 10.3354 10.8738 10.6474 10.5941C11.6228 9.71945 12.5863 9.23887 13.3633 9.23887C16.0509 9.23869 17.1701 11.5251 17.0179 13.8928C17.0177 13.8954 17.0672 13.1251 17.0179 13.8928C17.0177 13.8954 17.0672 13.1251 17.0179 13.8928C17.0177 13.8954 17.0672 13.1251 17.0179 13.8928L17.0182 13.8932Z" fill="white"/>
</svg>
