<svg width="18" height="24" viewBox="0 0 18 24" fill="none" xmlns="http://www.w3.org/2000/svg">
<path fill-rule="evenodd" clip-rule="evenodd" d="M11.1961 0H3.62717C1.62396 0 0 1.62392 0 3.62718V20.3729C0 21.3345 0.382324 22.2577 1.06231 22.9377C1.7423 23.6177 2.66552 24 3.62713 24H13.9728C14.9344 24 15.8576 23.6177 16.5376 22.9377C17.2176 22.2577 17.5999 21.3345 17.5999 20.3729V5.59976C17.5999 5.36618 17.4976 5.14458 17.3206 4.99262L11.7206 0.192595L11.7038 0.178131L11.6886 0.166881C11.6015 0.098844 11.5022 0.0508072 11.3974 0.0245579L11.3718 0.0181295L11.3304 0.0102721L11.3065 0.0070578L11.2952 0.00545064L11.2392 0.000807848H11.2352C11.2224 9.35587e-05 11.2088 9.35587e-05 11.1959 9.35587e-05L11.1961 0ZM10.4001 1.60001H3.62699C2.50772 1.60001 1.59983 2.50804 1.59983 3.62718V20.3729C1.59983 20.9106 1.8134 21.4265 2.19338 21.8064C2.57337 22.1864 3.08948 22.4 3.62695 22.4H13.9726C14.5103 22.4 15.0262 22.1864 15.4062 21.8064C15.7861 21.4264 15.9997 20.9103 15.9997 20.3729V6.39976H11.1997C10.7581 6.39976 10.3997 6.04137 10.3997 5.59976V1.59973L10.4001 1.60001ZM4.00002 20.8001H13.6001C14.0417 20.8001 14.4001 20.4417 14.4001 20.0001C14.4001 19.5585 14.0417 19.2001 13.6001 19.2001H4.00002C3.55841 19.2001 3.20002 19.5585 3.20002 20.0001C3.20002 20.4417 3.55841 20.8001 4.00002 20.8001ZM4.00002 17.5001H13.6001C14.0417 17.5001 14.4001 17.1417 14.4001 16.7001C14.4001 16.2585 14.0417 15.9001 13.6001 15.9001H4.00002C3.55841 15.9001 3.20002 16.2585 3.20002 16.7001C3.20002 17.1417 3.55841 17.5001 4.00002 17.5001ZM5.84808 9.39443L4.8777 10.4768C4.58252 10.8055 4.61055 11.312 4.9393 11.6072C5.14252 11.7888 5.41286 11.8479 5.66004 11.7888V13.78C5.66004 14.0777 5.77772 14.3624 5.98808 14.5729C6.19844 14.7826 6.48326 14.901 6.78095 14.901H10.8194C11.4387 14.901 11.9401 14.3993 11.9401 13.7802V11.7163C12.1898 11.7756 12.4633 11.7147 12.6672 11.5283C12.9928 11.2306 13.0153 10.7243 12.7176 10.3979L9.39046 6.76018C9.2376 6.59304 9.02171 6.49857 8.79599 6.50018C8.56956 6.5009 8.35527 6.59786 8.20403 6.76572L5.86399 9.37611C5.85846 9.38165 5.85363 9.38808 5.84792 9.39451L5.84808 9.39443ZM7.26006 10.2167L8.80563 8.49193L10.3401 10.1696V13.3009H7.26006V10.2167ZM12.0002 2.56321L14.5547 4.80003H12.0002V2.56321Z" fill="#23262F"/>
</svg>
