<svg width="26" height="24" viewBox="0 0 26 24" fill="none" xmlns="http://www.w3.org/2000/svg">
<path d="M24.9416 2.72542H5.90722L5.59223 0.873208C5.51348 0.370405 5.06719 0 4.56831 0H1.05008C0.472485 0 0 0.476201 0 1.05834C0 1.64048 0.472485 2.11668 1.05008 2.11668H3.67552L5.46072 12.9392C5.46072 12.9921 5.48691 13.0449 5.48691 13.1245L6.11706 16.9083C6.19581 17.4111 6.6421 17.7815 7.14098 17.7815H22.0535C22.6311 17.7815 23.1035 17.3053 23.1035 16.7232C23.1035 16.141 22.6311 15.6648 22.0535 15.6648H8.03363L7.74482 13.8919H22.5785C23.051 13.8919 23.4711 13.5745 23.6025 13.0981L25.9653 4.04846C26.044 3.73099 25.9914 3.38694 25.7814 3.12224C25.5715 2.88413 25.2827 2.7254 24.9415 2.7254L24.9416 2.72542ZM21.7648 11.775H7.37737L6.24834 4.84229H23.5762L21.7648 11.775Z" fill="white"/>
<path d="M12.3389 21.0097C12.3389 19.3691 11.0262 18.0195 9.37208 18.0195C7.7182 18.0195 6.43164 19.369 6.43164 21.0097C6.43164 22.6502 7.74436 23.9998 9.39843 23.9998C11.0523 23.9996 12.3389 22.6502 12.3389 21.0097ZM8.53204 21.0097C8.53204 20.5335 8.92578 20.1364 9.39843 20.1364C9.87092 20.1364 10.2648 20.5333 10.2648 21.0097C10.2648 21.4859 9.87108 21.8829 9.39843 21.8829C8.92578 21.8829 8.53204 21.4858 8.53204 21.0097Z" fill="white"/>
<path d="M21.3457 21.0097C21.3457 19.3691 20.033 18.0195 18.3789 18.0195C16.7248 18.0195 15.4121 19.3426 15.4121 21.0097C15.4121 22.6767 16.7248 23.9998 18.3789 23.9998C20.033 23.9996 21.3457 22.6502 21.3457 21.0097ZM17.5389 21.0097C17.5389 20.5335 17.9326 20.1364 18.4052 20.1364C18.8777 20.1364 19.2716 20.5333 19.2716 21.0097C19.2716 21.4859 18.8779 21.8829 18.4052 21.8829C17.9064 21.8563 17.5389 21.4858 17.5389 21.0097Z" fill="white"/>
</svg>
