<svg width="24" height="24" viewBox="0 0 24 24" fill="none" xmlns="http://www.w3.org/2000/svg">
<path d="M22.3778 5.87368C22.1592 4.5019 21.4302 3.31715 20.3257 2.53768C19.2229 1.75947 17.8724 1.47488 16.5228 1.73603L16.2109 0.125092C18.0036 -0.221969 19.8008 0.158791 21.2722 1.19704C22.7414 2.23381 23.7097 3.80303 23.9987 5.61524L22.3778 5.87368Z" fill="#23262F"/>
<path d="M19.9467 6.59513C19.8245 5.82902 19.4187 5.16821 18.8037 4.7342C18.1907 4.3016 17.4389 4.14353 16.6869 4.28897L16.375 2.67803C17.5698 2.44671 18.7684 2.70092 19.75 3.39359C20.7297 4.08497 21.3751 5.13019 21.5674 6.33693L19.9467 6.59513Z" fill="#23262F"/>
<path d="M18.4918 7.2804C18.87 6.73611 18.7407 5.98721 18.2031 5.6079C17.6656 5.22861 16.9231 5.3623 16.5449 5.90662C16.1668 6.45093 16.296 7.19981 16.8336 7.57912C17.3713 7.95841 18.1136 7.82472 18.4918 7.2804Z" fill="#23262F"/>
<path d="M13.3971 7.60049C12.1506 7.58969 10.9823 8.2349 10.0995 8.9177C9.21674 8.23495 8.04845 7.58971 6.80195 7.60049C3.19416 7.62485 1.33135 10.7045 1.54281 13.9947C1.5527 14.1744 1.56954 14.3519 1.59134 14.5275H0V16.1663H1.97782C3.17982 19.6067 6.60082 22.1775 9.65157 23.8747C10.0995 24.1238 10.3092 23.9361 10.4325 23.8681C10.7559 23.6899 18.3547 19.4399 18.6557 13.995C18.8675 10.7027 17.0059 7.62513 13.3966 7.60075C12.1501 7.58976 14.8317 7.61027 13.3966 7.60075C12.1501 7.58976 14.8317 7.61027 13.3966 7.60075L13.3971 7.60049ZM17.0182 13.893C17.018 13.8956 17.0178 13.8983 17.0177 13.9009C16.8034 17.8229 11.5072 21.306 10.0223 22.2071C9.25422 21.7707 7.78848 20.8648 6.4138 19.6052C5.17813 18.473 4.29261 17.3224 3.76238 16.1657H4.69845C4.98269 16.1657 5.24659 16.0188 5.39624 15.7774L6.57771 13.8703L8.97164 19.083C9.48682 19.8467 10.2304 19.4999 10.456 19.0982L11.8307 16.2596H14.5774V14.6208H11.3161C11.0014 14.6208 10.7144 14.8005 10.5774 15.0835L9.73714 16.8188L7.43131 11.7974C7.16428 11.2162 6.32162 11.1686 5.98775 11.7078L4.24145 14.5268H3.251C3.2162 14.318 3.19257 14.1094 3.18104 13.9006C3.04715 11.5362 4.12536 9.23863 6.83534 9.23863C7.61204 9.23863 8.57559 9.7192 9.55104 10.5939C9.86275 10.8736 10.3354 10.8736 10.6474 10.5939C11.6228 9.7192 12.5863 9.23863 13.3633 9.23863C16.0509 9.23844 17.1701 11.5249 17.0179 13.8926C17.0177 13.8951 17.0672 13.1248 17.0179 13.8926C17.0177 13.8951 17.0672 13.1248 17.0179 13.8926C17.0177 13.8951 17.0672 13.1248 17.0179 13.8926L17.0182 13.893Z" fill="#23262F"/>
</svg>
