<svg width="28" height="24" viewBox="0 0 28 24" fill="none" xmlns="http://www.w3.org/2000/svg">
<path d="M18.0266 14.6597H14.3068C14.1202 14.6597 13.9688 14.8085 13.9688 14.9919V16.9867C13.9688 17.1701 14.1202 17.3189 14.3068 17.3189H18.0266C18.2132 17.3189 18.3646 17.1701 18.3646 16.9867V14.9919C18.3646 14.8085 18.2132 14.6597 18.0266 14.6597Z" fill="#23262F"/>
<path d="M18.0266 17.9834H14.3068C14.1202 17.9834 13.9688 18.1322 13.9688 18.3157V20.3104C13.9688 20.4938 14.1202 20.6426 14.3068 20.6426H18.0266C18.2132 20.6426 18.3646 20.4938 18.3646 20.3104V18.3157C18.3646 18.1322 18.2132 17.9834 18.0266 17.9834Z" fill="#23262F"/>
<path d="M12.8157 14.6597H9.09582C8.90923 14.6597 8.75781 14.8085 8.75781 14.9919V16.9867C8.75781 17.1701 8.90923 17.3189 9.09582 17.3189H12.8157C13.0023 17.3189 13.1537 17.1701 13.1537 16.9867V14.9919C13.1537 14.8085 13.0023 14.6597 12.8157 14.6597Z" fill="#23262F"/>
<path d="M12.8157 17.9834H9.09582C8.90923 17.9834 8.75781 18.1322 8.75781 18.3157V20.3104C8.75781 20.4938 8.90923 20.6426 9.09582 20.6426H12.8157C13.0023 20.6426 13.1537 20.4938 13.1537 20.3104V18.3157C13.1537 18.1322 13.0023 17.9834 12.8157 17.9834Z" fill="#23262F"/>
<path d="M7.60865 14.6597H3.88879C3.7022 14.6597 3.55078 14.8085 3.55078 14.9919V16.9867C3.55078 17.1701 3.7022 17.3189 3.88879 17.3189H7.60865C7.79524 17.3189 7.94666 17.1701 7.94666 16.9867V14.9919C7.94666 14.8085 7.79524 14.6597 7.60865 14.6597Z" fill="#23262F"/>
<path d="M7.60865 17.9834H3.88879C3.7022 17.9834 3.55078 18.1322 3.55078 18.3157V20.3104C3.55078 20.4938 3.7022 20.6426 3.88879 20.6426H7.60865C7.79524 20.6426 7.94666 20.4938 7.94666 20.3104V18.3157C7.94666 18.1322 7.79524 17.9834 7.60865 17.9834Z" fill="#23262F"/>
<path d="M27.155 0.000298366H21.6765C21.2262 0.000298366 20.8545 0.347507 20.8318 0.789602L20.3189 10.869L11.0892 6.41385C10.8268 6.28732 10.517 6.30277 10.2698 6.45406C10.0218 6.60609 9.87113 6.87263 9.87113 7.15975V10.5904L1.21808 6.41382C0.955655 6.2873 0.645837 6.30275 0.398628 6.45403C0.150672 6.60606 0 6.8726 0 7.15972V23.1693C0 23.628 0.378423 24 0.845126 24H27.1549C27.6216 24 28 23.628 28 23.1693V0.830985C28 0.371959 27.6216 0 27.1549 0L27.155 0.000298366ZM26.3096 22.338H1.69086V8.49407L10.0866 12.5468C10.2026 12.6027 10.33 12.6316 10.4592 12.6316H10.7167C11.1834 12.6316 11.5618 12.2597 11.5618 11.8009V8.49404L19.9575 12.5468C20.0735 12.6027 20.201 12.6316 20.3302 12.6316H21.118C21.5682 12.6316 21.9399 12.2844 21.9626 11.8423L22.4805 1.66247H26.3094L26.3099 22.3385L26.3096 22.338Z" fill="#23262F"/>
</svg>
