<svg width="20" height="25" viewBox="0 0 20 25" fill="none" xmlns="http://www.w3.org/2000/svg">
<path d="M17.4775 4.47266H16.4939V6.1653H17.4775C17.9567 6.1653 18.3349 6.54417 18.3349 7.0242V21.4495C18.3349 21.9296 17.9567 22.3085 17.4775 22.3085H2.54718C2.06796 22.3085 1.68974 21.9296 1.68974 21.4495V7.0242C1.68974 6.54416 2.06797 6.1653 2.54718 6.1653H3.42997V4.47266H2.54718C1.1349 4.47266 0 5.60946 0 7.0242V21.4495C0 22.8642 1.13486 24.0011 2.54718 24.0011H17.4522C18.8645 24.0011 19.9994 22.8643 19.9994 21.4495L19.9996 7.0242C20.0248 5.6095 18.8646 4.47266 17.4776 4.47266H17.4775Z" fill="white"/>
<path d="M5.42284 6.74526H14.4768C14.8299 6.74526 15.1073 6.46735 15.1073 6.11367L15.1075 3.53677C15.1075 3.18309 14.8301 2.90519 14.477 2.90519H12.9891C12.9134 1.28834 11.6019 0 9.96272 0C8.3235 0 7.01197 1.28838 6.93635 2.90519H5.44841C5.09534 2.90519 4.81791 3.18309 4.81791 3.53677V6.11367C4.7924 6.46735 5.09516 6.74526 5.42292 6.74526H5.42284ZM9.96245 1.8947C10.593 1.8947 11.1227 2.42532 11.1227 3.0569C11.1227 3.68849 10.593 4.21911 9.96245 4.21911C9.33195 4.21911 8.80224 3.68849 8.80224 3.0569C8.80241 2.39997 9.33195 1.8947 9.96245 1.8947Z" fill="white"/>
<path d="M9.50874 19.9838H10.5175C10.6941 19.9838 10.8705 19.8322 10.8705 19.6301V18.7206C12.0054 18.4933 12.8377 17.5838 12.9387 16.4722C13.0143 15.7396 12.7874 15.0321 12.283 14.5016C11.8038 13.971 11.0976 13.6679 10.3915 13.6679H9.63483C9.38256 13.6679 9.1556 13.567 9.00433 13.39C8.8277 13.2131 8.75206 12.9606 8.77739 12.7332C8.82788 12.3038 9.23126 11.9501 9.68531 11.9501H10.5681C10.8204 11.9501 11.0473 12.1271 11.1229 12.3796C11.1481 12.5311 11.2996 12.6323 11.4509 12.6323H12.4596C12.5604 12.6323 12.6614 12.5817 12.7118 12.5059C12.7875 12.4302 12.8126 12.3544 12.7875 12.2532C12.6867 11.1922 11.8796 10.3837 10.8203 10.2575V9.37321C10.8203 9.19628 10.669 9.01953 10.4673 9.01953H9.45854C9.25676 9.01953 9.10547 9.17108 9.10547 9.37321V10.2827C7.79398 10.51 6.91137 11.7228 7.03733 13.0617C7.16347 14.3501 8.32351 15.3607 9.68549 15.3607H10.3412C10.5934 15.3607 10.8204 15.4617 10.9717 15.6387C11.1483 15.8156 11.2239 16.0681 11.1986 16.2955C11.1481 16.7249 10.7447 17.0786 10.2907 17.0786H9.40789C9.15562 17.0786 8.92866 16.9016 8.85305 16.6491C8.82789 16.4976 8.67642 16.3964 8.52513 16.3964H7.51642C7.41562 16.3964 7.31464 16.447 7.26415 16.5228C7.21366 16.5985 7.16335 16.6743 7.1885 16.7755C7.28931 17.8365 8.09642 18.645 9.15567 18.7712V19.6555C9.15567 19.8322 9.30696 19.9838 9.50874 19.9838V19.9838Z" fill="white"/>
</svg>
