<svg width="28" height="24" viewBox="0 0 28 24" fill="none" xmlns="http://www.w3.org/2000/svg">
<path d="M19.4127 4.60728C17.7407 4.48891 16.0626 4.73024 14.4989 5.314C14.3202 5.39597 14.1529 5.49856 13.9997 5.61949C13.8469 5.49856 13.6792 5.39572 13.5006 5.314C11.9371 4.72924 10.2587 4.48789 8.58673 4.60728C8.11205 4.62281 7.66243 4.81629 7.33297 5.14672C7.00352 5.47716 6.82007 5.91861 6.82219 6.37735V13.2125C6.82403 13.6756 7.01274 14.1195 7.34826 14.4502C7.68404 14.7806 8.13997 14.9718 8.61915 14.9825C10.3051 14.9237 11.988 15.1617 13.5857 15.6854C13.8469 15.8091 14.1526 15.8091 14.4138 15.6854C16.0115 15.1617 17.6943 14.9237 19.3803 14.9825C19.8594 14.9718 20.3154 14.7806 20.6512 14.4502C20.9867 14.1195 21.1754 13.6755 21.1772 13.2125V6.378C21.1793 5.919 20.9962 5.4776 20.6667 5.14712C20.3373 4.81642 19.8874 4.62294 19.4127 4.60742L19.4127 4.60728ZM13.0551 13.6126C11.7262 13.3351 10.3696 13.2005 9.01023 13.2111C8.90876 13.2111 8.80913 13.2111 8.71135 13.2129L8.65469 6.43058C10.0239 6.32213 11.4013 6.50365 12.6903 6.96265C12.9117 7.06422 13.0548 7.30123 13.0548 7.73427L13.0551 13.6126ZM14.9443 13.6162V7.56622C14.9361 7.31394 15.0777 7.07947 15.3088 6.96212C16.5866 6.53214 17.9357 6.33409 19.2881 6.37813L19.3471 13.1592H19.3474C17.8672 13.1655 16.3918 13.3188 14.9443 13.6164L14.9443 13.6162ZM23.277 0H4.72302C3.47081 0.00127285 2.27029 0.482415 1.38499 1.33777C0.499425 2.19287 0.00128196 3.35246 0 4.56197V15.2885C0.00131786 16.498 0.499445 17.6576 1.38472 18.5129C2.27029 19.368 3.47081 19.8492 4.72302 19.8504H10.2908V22.1752H8.19781C7.67622 22.1752 7.2532 22.5838 7.2532 23.0876C7.2532 23.5917 7.67622 24 8.19781 24H19.8023C20.3238 24 20.7469 23.5917 20.7469 23.0876C20.7469 22.5838 20.3238 22.1752 19.8023 22.1752H17.7093V19.8504H23.2772H23.277C24.5292 19.8492 25.7297 19.368 26.6153 18.5129C27.5006 17.6576 27.9987 16.498 28 15.2885V4.56197C27.9987 3.35246 27.5006 2.19287 26.615 1.33777C25.7297 0.482396 24.5292 0.00123825 23.277 0H23.277ZM15.8201 22.1757H12.1798V19.851H15.8198L15.8201 22.1757ZM26.1109 15.2891H26.1106C26.1098 16.0149 25.8109 16.7106 25.2799 17.2239C24.7485 17.7369 24.0282 18.0256 23.2768 18.0263H4.72275C3.97132 18.0255 3.25106 17.7368 2.71965 17.2239C2.18858 16.7107 1.88968 16.0149 1.88894 15.2891V4.56262C1.88973 3.83681 2.18861 3.14111 2.71965 2.62783C3.25099 2.11486 3.97132 1.82616 4.72275 1.82544H23.2768C24.0282 1.8262 24.7485 2.11489 25.2799 2.62783C25.811 3.14105 26.1098 3.83681 26.1106 4.56262L26.1109 15.2891Z" fill="#23262F"/>
</svg>
