<svg width="20" height="24" viewBox="0 0 20 24" fill="none" xmlns="http://www.w3.org/2000/svg">
<path d="M17.4775 4.47168H16.4939V6.16432H17.4775C17.9567 6.16432 18.3349 6.5432 18.3349 7.02323V21.4486C18.3349 21.9286 17.9567 22.3075 17.4775 22.3075H2.54718C2.06796 22.3075 1.68974 21.9286 1.68974 21.4486V7.02323C1.68974 6.54318 2.06797 6.16432 2.54718 6.16432H3.42997V4.47168H2.54718C1.1349 4.47168 0 5.60848 0 7.02323V21.4486C0 22.8633 1.13486 24.0001 2.54718 24.0001H17.4522C18.8645 24.0001 19.9994 22.8633 19.9994 21.4486L19.9996 7.02323C20.0248 5.60853 18.8646 4.47168 17.4776 4.47168H17.4775Z" fill="#23262F"/>
<path d="M5.42284 6.74526H14.4768C14.8299 6.74526 15.1073 6.46735 15.1073 6.11367L15.1075 3.53677C15.1075 3.18309 14.8301 2.90519 14.477 2.90519H12.9891C12.9134 1.28834 11.6019 0 9.96272 0C8.3235 0 7.01197 1.28838 6.93635 2.90519H5.44841C5.09534 2.90519 4.81791 3.18309 4.81791 3.53677V6.11367C4.7924 6.46735 5.09516 6.74526 5.42292 6.74526H5.42284ZM9.96245 1.8947C10.593 1.8947 11.1227 2.42532 11.1227 3.0569C11.1227 3.68849 10.593 4.21911 9.96245 4.21911C9.33195 4.21911 8.80224 3.68849 8.80224 3.0569C8.80241 2.39997 9.33195 1.8947 9.96245 1.8947Z" fill="#23262F"/>
<path d="M9.50679 19.9833H10.5155C10.6921 19.9833 10.8686 19.8317 10.8686 19.6296V18.7201C12.0034 18.4928 12.8357 17.5833 12.9367 16.4717C13.0124 15.7391 12.7854 15.0316 12.281 14.5011C11.8018 13.9705 11.0957 13.6675 10.3895 13.6675H9.63288C9.3806 13.6675 9.15365 13.5665 9.00237 13.3896C8.82575 13.2126 8.7501 12.9601 8.77544 12.7328C8.82592 12.3033 9.22931 11.9496 9.68336 11.9496H10.5661C10.8184 11.9496 11.0454 12.1266 11.121 12.3791C11.1461 12.5306 11.2976 12.6318 11.4489 12.6318H12.4576C12.5584 12.6318 12.6594 12.5812 12.7099 12.5054C12.7855 12.4297 12.8107 12.3539 12.7855 12.2527C12.6847 11.1917 11.8776 10.3832 10.8184 10.257V9.37272C10.8184 9.19579 10.6671 9.01904 10.4653 9.01904H9.45659C9.25481 9.01904 9.10352 9.1706 9.10352 9.37272V10.2822C7.79203 10.5095 6.90942 11.7223 7.03538 13.0613C7.16152 14.3496 8.32156 15.3603 9.68353 15.3603H10.3392C10.5915 15.3603 10.8184 15.4612 10.9697 15.6382C11.1463 15.8151 11.222 16.0676 11.1967 16.295C11.1462 16.7244 10.7428 17.0781 10.2887 17.0781H9.40594C9.15366 17.0781 8.92671 16.9012 8.8511 16.6486C8.82594 16.4971 8.67447 16.3959 8.52318 16.3959H7.51447C7.41366 16.3959 7.31268 16.4465 7.2622 16.5223C7.21171 16.5981 7.16139 16.6738 7.18655 16.775C7.28735 17.836 8.09447 18.6445 9.15371 18.7707V19.655C9.15371 19.8317 9.30501 19.9833 9.50679 19.9833V19.9833Z" fill="#23262F"/>
</svg>
