<svg width="28" height="24" viewBox="0 0 28 24" fill="none" xmlns="http://www.w3.org/2000/svg">
<path d="M18.0247 14.6602H14.3048C14.1182 14.6602 13.9668 14.809 13.9668 14.9924V16.9871C13.9668 17.1706 14.1182 17.3194 14.3048 17.3194H18.0247C18.2113 17.3194 18.3627 17.1706 18.3627 16.9871V14.9924C18.3627 14.809 18.2113 14.6602 18.0247 14.6602Z" fill="white"/>
<path d="M18.0247 17.9844H14.3048C14.1182 17.9844 13.9668 18.1332 13.9668 18.3166V20.3114C13.9668 20.4948 14.1182 20.6436 14.3048 20.6436H18.0247C18.2113 20.6436 18.3627 20.4948 18.3627 20.3114V18.3166C18.3627 18.1332 18.2113 17.9844 18.0247 17.9844Z" fill="white"/>
<path d="M12.8176 14.6602H9.09778C8.91118 14.6602 8.75977 14.809 8.75977 14.9924V16.9871C8.75977 17.1706 8.91118 17.3194 9.09778 17.3194H12.8176C13.0042 17.3194 13.1556 17.1706 13.1556 16.9871V14.9924C13.1556 14.809 13.0042 14.6602 12.8176 14.6602Z" fill="white"/>
<path d="M12.8176 17.9844H9.09778C8.91118 17.9844 8.75977 18.1332 8.75977 18.3166V20.3114C8.75977 20.4948 8.91118 20.6436 9.09778 20.6436H12.8176C13.0042 20.6436 13.1556 20.4948 13.1556 20.3114V18.3166C13.1556 18.1332 13.0042 17.9844 12.8176 17.9844Z" fill="white"/>
<path d="M7.60865 14.6602H3.88879C3.7022 14.6602 3.55078 14.809 3.55078 14.9924V16.9871C3.55078 17.1706 3.7022 17.3194 3.88879 17.3194H7.60865C7.79524 17.3194 7.94666 17.1706 7.94666 16.9871V14.9924C7.94666 14.809 7.79524 14.6602 7.60865 14.6602Z" fill="white"/>
<path d="M7.60865 17.9844H3.88879C3.7022 17.9844 3.55078 18.1332 3.55078 18.3166V20.3114C3.55078 20.4948 3.7022 20.6436 3.88879 20.6436H7.60865C7.79524 20.6436 7.94666 20.4948 7.94666 20.3114V18.3166C7.94666 18.1332 7.79524 17.9844 7.60865 17.9844Z" fill="white"/>
<path d="M27.155 0.000298366H21.6765C21.2262 0.000298366 20.8545 0.347507 20.8318 0.789602L20.3189 10.869L11.0892 6.41385C10.8268 6.28732 10.517 6.30277 10.2698 6.45406C10.0218 6.60609 9.87113 6.87263 9.87113 7.15975V10.5904L1.21808 6.41382C0.955655 6.2873 0.645837 6.30275 0.398628 6.45403C0.150672 6.60606 0 6.8726 0 7.15972V23.1693C0 23.628 0.378423 24 0.845126 24H27.1549C27.6216 24 28 23.628 28 23.1693V0.830985C28 0.371959 27.6216 0 27.1549 0L27.155 0.000298366ZM26.3096 22.338H1.69086V8.49407L10.0866 12.5468C10.2026 12.6027 10.33 12.6316 10.4592 12.6316H10.7167C11.1834 12.6316 11.5618 12.2597 11.5618 11.8009V8.49404L19.9575 12.5468C20.0735 12.6027 20.201 12.6316 20.3302 12.6316H21.118C21.5682 12.6316 21.9399 12.2844 21.9626 11.8423L22.4805 1.66247H26.3094L26.3099 22.3385L26.3096 22.338Z" fill="white"/>
</svg>
