<svg width="30" height="30" viewBox="0 0 30 30" fill="none" xmlns="http://www.w3.org/2000/svg">
<path d="M11.4492 14.525H11.3492C11.2747 14.5125 11.1987 14.5125 11.1242 14.525C7.49918 14.4125 4.76168 11.5625 4.76168 8.05C4.76168 4.475 7.67418 1.5625 11.2492 1.5625C14.8242 1.5625 17.7367 4.475 17.7367 8.05C17.7242 11.5625 14.9742 14.4125 11.4867 14.525H11.4492ZM11.2492 3.4375C10.0269 3.4408 8.85559 3.92782 7.99129 4.79211C7.127 5.65641 6.63998 6.8277 6.63668 8.05C6.63668 10.55 8.58668 12.5625 11.0742 12.65C11.1492 12.6375 11.3117 12.6375 11.4742 12.65C13.9242 12.5375 15.8492 10.525 15.8617 8.05C15.8584 6.8277 15.3714 5.65641 14.5071 4.79211C13.6428 3.92782 12.4715 3.4408 11.2492 3.4375ZM20.6729 14.6875C20.6354 14.6875 20.5979 14.6875 20.5604 14.675C20.0479 14.725 19.5229 14.3625 19.4729 13.85C19.4229 13.3375 19.7354 12.875 20.2479 12.8125C20.3979 12.8 20.5604 12.8 20.6979 12.8C22.5229 12.7 23.9479 11.2 23.9479 9.3625C23.9479 7.4625 22.4104 5.925 20.5104 5.925C20.3879 5.92666 20.2663 5.90395 20.1526 5.85821C20.0389 5.81247 19.9355 5.74459 19.8483 5.65853C19.761 5.57247 19.6918 5.46994 19.6445 5.35689C19.5973 5.24384 19.5729 5.12253 19.5729 5C19.5729 4.4875 19.9979 4.0625 20.5104 4.0625C21.9184 4.0658 23.2677 4.62657 24.2633 5.62214C25.2589 6.61771 25.8196 7.96705 25.8229 9.375C25.8229 12.25 23.5729 14.575 20.7104 14.6875H20.6729ZM11.4654 28.1875C9.01543 28.1875 6.55293 27.5625 4.69043 26.3125C2.95293 25.1625 2.00293 23.5875 2.00293 21.875C2.00293 20.1625 2.95293 18.575 4.69043 17.4125C8.44043 14.925 14.5154 14.925 18.2404 17.4125C19.9654 18.5625 20.9279 20.1375 20.9279 21.85C20.9279 23.5625 19.9779 25.15 18.2404 26.3125C16.3654 27.5625 13.9154 28.1875 11.4654 28.1875ZM5.72793 18.9875C4.52793 19.7875 3.87793 20.8125 3.87793 21.8875C3.87793 22.95 4.54043 23.975 5.72793 24.7625C8.84043 26.85 14.0904 26.85 17.2029 24.7625C18.4029 23.9625 19.0529 22.9375 19.0529 21.8625C19.0529 20.8 18.3904 19.775 17.2029 18.9875C14.0904 16.9125 8.84043 16.9125 5.72793 18.9875ZM22.9229 25.9375C22.4854 25.9375 22.0979 25.6375 22.0104 25.1875C21.962 24.9441 22.0108 24.6914 22.1463 24.4835C22.2818 24.2756 22.4932 24.129 22.7354 24.075C23.5229 23.9125 24.2479 23.6 24.8104 23.1625C25.5229 22.625 25.9104 21.95 25.9104 21.2375C25.9104 20.525 25.5229 19.85 24.8229 19.325C24.2729 18.9 23.5854 18.6 22.7729 18.4125C22.5297 18.357 22.3183 18.2076 22.1849 17.9968C22.0514 17.7861 22.0067 17.5311 22.0604 17.2875C22.1729 16.7875 22.6729 16.4625 23.1854 16.575C24.2604 16.8125 25.1979 17.2375 25.9604 17.825C27.1229 18.7 27.7854 19.9375 27.7854 21.2375C27.7854 22.5375 27.1104 23.775 25.9479 24.6625C25.1729 25.2625 24.1979 25.7 23.1229 25.9125C23.0479 25.9375 22.9854 25.9375 22.9229 25.9375Z" fill="#1C284C"/>
</svg>
