<svg width="30" height="30" viewBox="0 0 30 30" fill="none" xmlns="http://www.w3.org/2000/svg">
<path d="M22.5 9.89H22.3375C19.975 9.815 18.2125 7.99 18.2125 5.74C18.2125 3.44 20.0875 1.5775 22.375 1.5775C24.6625 1.5775 26.5375 3.4525 26.5375 5.74C26.539 6.82083 26.1197 7.8598 25.3684 8.63679C24.6171 9.41378 23.5928 9.86774 22.5125 9.9025C22.5125 9.89 22.5125 9.89 22.5 9.89ZM22.375 3.44C21.1125 3.44 20.0875 4.465 20.0875 5.7275C20.0875 6.965 21.05 7.965 22.2875 8.015C22.3 8.0025 22.4 8.0025 22.5125 8.015C23.1044 7.97597 23.658 7.70881 24.0568 7.26977C24.4557 6.83073 24.6686 6.25406 24.6508 5.66117C24.633 5.06828 24.3858 4.50544 23.9613 4.09114C23.5368 3.67684 22.9681 3.44341 22.375 3.44ZM22.5113 19.1C22.0238 19.1 21.5363 19.0625 21.0488 18.975C20.9272 18.9539 20.811 18.9089 20.7068 18.8428C20.6026 18.7767 20.5125 18.6906 20.4417 18.5896C20.3709 18.4885 20.3207 18.3745 20.294 18.254C20.2673 18.1336 20.2647 18.009 20.2863 17.8875C20.3074 17.7659 20.3523 17.6497 20.4185 17.5456C20.4846 17.4414 20.5707 17.3513 20.6717 17.2805C20.7727 17.2096 20.8867 17.1594 21.0072 17.1327C21.1277 17.1061 21.2523 17.1034 21.3738 17.125C22.9113 17.3875 24.5363 17.1 25.6238 16.375C26.2113 15.9875 26.5238 15.5 26.5238 15.0125C26.5238 14.525 26.1988 14.05 25.6238 13.6625C24.5363 12.9375 22.8862 12.65 21.3363 12.925C20.8237 13.025 20.3362 12.675 20.2487 12.1625C20.1612 11.65 20.4988 11.1625 21.0112 11.075C23.0487 10.7125 25.1613 11.1 26.6613 12.1C27.7613 12.8375 28.3988 13.8875 28.3988 15.0125C28.3988 16.125 27.7738 17.1875 26.6613 17.9375C25.5238 18.6875 24.0488 19.1 22.5113 19.1ZM7.4625 9.8875H7.4375C6.35908 9.85374 5.33608 9.40181 4.5849 8.6273C3.83371 7.85279 3.41327 6.81645 3.4125 5.7375C3.4125 3.4375 5.2875 1.5625 7.575 1.5625C9.8625 1.5625 11.7375 3.4375 11.7375 5.725C11.7375 7.9875 9.975 9.8125 7.725 9.8875L7.4625 8.95L7.55 9.8875H7.4625ZM7.5875 8.0125C7.6625 8.0125 7.725 8.0125 7.8 8.025C8.9125 7.975 9.8875 6.975 9.8875 5.7375C9.88683 5.29055 9.75524 4.85358 9.50898 4.48058C9.26273 4.10759 8.91259 3.8149 8.50184 3.63869C8.09108 3.46248 7.63771 3.41047 7.19772 3.48907C6.75773 3.56767 6.35041 3.77345 6.02607 4.08098C5.70174 4.38851 5.4746 4.78432 5.37272 5.21951C5.27084 5.6547 5.29869 6.1102 5.45281 6.52974C5.60694 6.94928 5.8806 7.31447 6.23998 7.58021C6.59936 7.84594 7.02871 8.00058 7.475 8.025C7.4875 8.0125 7.5375 8.0125 7.5875 8.0125ZM7.45 19.1C5.9125 19.1 4.4375 18.6875 3.3 17.9375C2.2 17.2 1.5625 16.1375 1.5625 15.0125C1.5625 13.9 2.2 12.8375 3.3 12.1C4.8 11.1 6.9125 10.7125 8.95 11.075C9.4625 11.1625 9.8 11.65 9.7125 12.1625C9.625 12.675 9.1375 13.025 8.625 12.925C7.075 12.65 5.4375 12.9375 4.3375 13.6625C3.75 14.05 3.4375 14.525 3.4375 15.0125C3.4375 15.5 3.7625 15.9875 4.3375 16.375C5.425 17.1 7.05 17.3875 8.5875 17.125C9.1 17.0375 9.5875 17.3875 9.675 17.8875C9.7625 18.4 9.425 18.8875 8.9125 18.975C8.425 19.0625 7.9375 19.1 7.45 19.1ZM15 19.225H14.8375C12.475 19.15 10.7125 17.325 10.7125 15.075C10.7125 12.775 12.5875 10.9125 14.875 10.9125C17.1625 10.9125 19.0375 12.7875 19.0375 15.075C19.039 16.1558 18.6197 17.1948 17.8684 17.9718C17.1171 18.7488 16.0928 19.2027 15.0125 19.2375C15.0125 19.225 15.0125 19.225 15 19.225ZM14.875 12.775C13.6125 12.775 12.5875 13.8 12.5875 15.0625C12.5875 16.3 13.55 17.3 14.7875 17.35C14.8 17.3375 14.9 17.3375 15.0125 17.35C16.225 17.2875 17.1625 16.2875 17.175 15.0625C17.175 13.8125 16.15 12.775 14.875 12.775ZM15.0013 28.4488C13.5013 28.4488 12.0012 28.0613 10.8387 27.2738C9.73875 26.5363 9.10125 25.4862 9.10125 24.3612C9.10125 23.2488 9.72625 22.1737 10.8387 21.4363C13.1762 19.8862 16.8388 19.8862 19.1637 21.4363C20.2638 22.1737 20.9013 23.2238 20.9013 24.3488C20.9013 25.4613 20.2763 26.5363 19.1637 27.2738C18.0013 28.0487 16.5013 28.4488 15.0013 28.4488ZM11.8763 23.0112C11.2888 23.3988 10.9762 23.8863 10.9762 24.3738C10.9762 24.8612 11.3013 25.3363 11.8763 25.7238C13.5638 26.8612 16.4263 26.8612 18.1138 25.7238C18.7013 25.3363 19.0138 24.8488 19.0138 24.3612C19.0138 23.8738 18.6887 23.3988 18.1138 23.0112C16.4388 21.8738 13.5763 21.8863 11.8763 23.0112Z" fill="white"/>
</svg>
