<svg width="180" height="46" viewBox="0 0 180 46" fill="none" xmlns="http://www.w3.org/2000/svg">
<path d="M20.9103 44.443C20.6653 44.443 20.4769 44.359 20.345 44.2003C20.2131 44.0323 20.166 43.8456 20.2131 43.6215L24.801 22.2156C24.8481 21.9728 24.9706 21.7768 25.1684 21.6274C25.3663 21.4781 25.5924 21.394 25.8373 21.394H29.4266C29.7846 21.394 30.0295 21.4874 30.1708 21.6741C30.3121 21.8608 30.4064 22.0102 30.4535 22.1222L34.0804 32.4938L42.154 22.1222C42.22 22.0102 42.3613 21.8608 42.5685 21.6741C42.7758 21.4874 43.0584 21.394 43.4164 21.394H47.0434C47.2883 21.394 47.4673 21.4687 47.5898 21.6274C47.7122 21.7768 47.7499 21.9822 47.7028 22.2156L43.1149 43.6215C43.0678 43.8456 42.9548 44.0323 42.7664 44.2003C42.5779 44.3684 42.3613 44.443 42.1163 44.443H38.0937C37.8676 44.443 37.698 44.359 37.5661 44.2003C37.4342 44.0323 37.3871 43.8456 37.4342 43.6215L40.0249 31.4669L34.9377 38.151C34.787 38.3284 34.5986 38.4964 34.3913 38.6645C34.1841 38.8325 33.9203 38.9072 33.6094 38.9072H31.876C31.5651 38.9072 31.3484 38.8325 31.2071 38.6738C31.0752 38.5244 30.9716 38.3471 30.9057 38.151L28.5411 31.1682L25.8844 43.6215C25.8373 43.8456 25.7148 44.0323 25.517 44.2003C25.3192 44.3684 25.1025 44.443 24.8858 44.443H20.9103Z" fill="#A2ADBE"/>
<path d="M76.987 44.4417C76.6101 44.4417 76.3275 44.339 76.1391 44.143C75.9507 43.9469 75.8471 43.7135 75.8188 43.4521L73.5578 22.2702C73.539 21.9808 73.6049 21.7661 73.7557 21.6074C73.9064 21.458 74.1137 21.374 74.3586 21.374H78.3436C78.7015 21.374 78.9559 21.4674 79.1066 21.6541C79.2574 21.8408 79.3516 22.0368 79.3704 22.2329L80.8024 37.4495L88.7817 22.2329C88.8665 22.0368 89.0267 21.8408 89.2433 21.6541C89.46 21.4674 89.7521 21.374 90.11 21.374H94.5661C94.8298 21.374 94.9994 21.4767 95.0842 21.6914C95.1596 21.8968 95.1407 22.1302 95.0371 22.3636L83.7322 43.4428C83.6003 43.7042 83.4025 43.9376 83.1481 44.1336C82.8938 44.3297 82.564 44.4324 82.1684 44.4324H76.987V44.4417Z" fill="#A2ADBE"/>
<path d="M94.2579 44.443C94.013 44.443 93.8246 44.359 93.6927 44.2003C93.5608 44.0323 93.5137 43.8456 93.5608 43.6215L98.1769 22.2156C98.224 21.9728 98.3465 21.7768 98.5444 21.6274C98.7422 21.4781 98.9494 21.394 99.1755 21.394H103.66C103.886 21.394 104.055 21.4687 104.197 21.6274C104.329 21.7768 104.376 21.9822 104.329 22.2156L99.7408 43.6215C99.6937 43.8456 99.5712 44.0323 99.3734 44.2003C99.1755 44.3684 98.9589 44.443 98.7422 44.443H94.2579Z" fill="#A2ADBE"/>
<path d="M105.021 44.443C104.795 44.443 104.625 44.359 104.493 44.2003C104.362 44.0323 104.314 43.8456 104.362 43.6215L108.949 22.2156C108.997 21.9728 109.11 21.7768 109.298 21.6274C109.486 21.4781 109.703 21.394 109.948 21.394H113.471C113.829 21.394 114.074 21.4687 114.216 21.6274C114.357 21.7768 114.442 21.9168 114.461 22.0195L119.878 34.7623L122.572 22.2156C122.619 21.9728 122.741 21.7768 122.939 21.6274C123.137 21.4781 123.354 21.394 123.57 21.394H127.555C127.8 21.394 127.989 21.4687 128.121 21.6274C128.253 21.7768 128.3 21.9822 128.253 22.2156L123.636 43.5935C123.589 43.8362 123.476 44.0416 123.288 44.2003C123.099 44.3684 122.883 44.443 122.638 44.443H119.114C118.756 44.443 118.512 44.359 118.38 44.2003C118.248 44.0323 118.154 43.9109 118.116 43.8176L112.633 31.5322L110.042 43.6215C109.995 43.8456 109.873 44.0323 109.675 44.2003C109.477 44.3684 109.251 44.443 109.006 44.443H105.021Z" fill="#A2ADBE"/>
<path d="M138.13 44.7694C136.029 44.7694 134.286 44.424 132.929 43.7332C131.563 43.0424 130.612 42.0342 130.056 40.6992C129.5 39.3736 129.387 37.7492 129.726 35.8448C129.905 34.902 130.113 33.8937 130.339 32.8295C130.574 31.7653 130.8 30.7477 131.017 29.7862C131.479 27.9191 132.279 26.3414 133.41 25.0438C134.54 23.7462 135.944 22.7567 137.612 22.0752C139.288 21.3937 141.154 21.0576 143.217 21.0576C144.875 21.0576 146.307 21.263 147.503 21.6644C148.7 22.0752 149.661 22.6166 150.396 23.2981C151.13 23.9796 151.639 24.7264 151.922 25.5386C152.214 26.3508 152.289 27.1536 152.157 27.9471C152.11 28.1432 152.006 28.3112 151.837 28.4419C151.667 28.5726 151.479 28.6379 151.253 28.6379H146.401C146.175 28.6379 146.015 28.6006 145.902 28.5259C145.789 28.4512 145.704 28.3299 145.638 28.1805C145.572 27.8538 145.431 27.5083 145.205 27.1443C144.979 26.7802 144.639 26.4721 144.178 26.2014C143.716 25.94 143.057 25.8093 142.218 25.8093C140.956 25.8093 139.891 26.1361 139.025 26.7989C138.158 27.4617 137.536 28.5072 137.159 29.9636C136.933 30.8878 136.726 31.8306 136.509 32.7922C136.302 33.763 136.104 34.7246 135.925 35.6861C135.661 37.2265 135.831 38.3374 136.443 39.0095C137.056 39.691 137.988 40.0271 139.251 40.0271C140.07 40.0271 140.843 39.887 141.559 39.5976C142.275 39.3082 142.897 38.8695 143.405 38.2627C143.914 37.6559 144.253 36.8811 144.432 35.9382L144.564 35.3127H141.455C141.21 35.3127 141.031 35.2287 140.909 35.07C140.786 34.902 140.749 34.7059 140.796 34.4632L141.323 32.0267C141.37 31.7839 141.493 31.5786 141.691 31.4199C141.889 31.2518 142.115 31.1771 142.36 31.1771H150.735C150.98 31.1771 151.159 31.2612 151.281 31.4199C151.404 31.5879 151.441 31.7839 151.394 32.0267L150.593 35.7795C150.169 37.6652 149.378 39.2802 148.219 40.6245C147.061 41.9595 145.61 42.9957 143.886 43.7052C142.152 44.4147 140.231 44.7694 138.13 44.7694Z" fill="#A2ADBE"/>
<path d="M151.771 44.5816C151.63 44.5816 151.517 44.5349 151.442 44.4416C151.366 44.3482 151.338 44.2362 151.366 44.1055L151.894 41.669C151.922 41.529 151.988 41.4169 152.11 41.3236C152.224 41.2302 152.355 41.1929 152.497 41.1929H154.937C155.078 41.1929 155.182 41.2396 155.257 41.3236C155.332 41.4169 155.351 41.529 155.323 41.669L154.795 44.1055C154.767 44.2362 154.701 44.3482 154.588 44.4416C154.475 44.5349 154.353 44.5816 154.211 44.5816H151.771Z" fill="#A2ADBE"/>
<path d="M161.423 44.769C160.528 44.769 159.737 44.5917 159.04 44.2463C158.343 43.9009 157.824 43.3967 157.485 42.7339C157.146 42.0711 157.061 41.287 157.212 40.3628C157.25 40.1574 157.306 39.896 157.363 39.5879C157.429 39.2705 157.485 39.0185 157.542 38.8131C157.89 37.4034 158.569 36.3112 159.567 35.5457C160.566 34.7802 161.819 34.3975 163.317 34.3975C164.183 34.3975 164.909 34.5188 165.512 34.7709C166.105 35.0229 166.576 35.3403 166.925 35.7231C167.273 36.1058 167.518 36.4979 167.65 36.89C167.782 37.2821 167.839 37.6275 167.792 37.9169C167.782 38.0476 167.716 38.1596 167.603 38.253C167.49 38.3463 167.368 38.393 167.226 38.393H164.72C164.589 38.393 164.494 38.365 164.419 38.2996C164.344 38.2343 164.297 38.1316 164.278 37.9916C164.249 37.6088 164.136 37.3288 163.939 37.1421C163.741 36.9647 163.449 36.8713 163.053 36.8713C162.535 36.8713 162.092 37.0394 161.725 37.3754C161.357 37.7115 161.084 38.225 160.924 38.9158C160.858 39.1585 160.801 39.4012 160.745 39.6346C160.698 39.868 160.651 40.0827 160.632 40.2787C160.5 40.9789 160.538 41.4923 160.726 41.8191C160.924 42.1365 161.272 42.2952 161.791 42.2952C162.196 42.2952 162.535 42.2111 162.827 42.0338C163.119 41.8564 163.364 41.5857 163.571 41.1936C163.665 41.0629 163.75 40.9695 163.844 40.9042C163.939 40.8389 164.042 40.8108 164.174 40.8108H166.68C166.812 40.8108 166.915 40.8575 166.991 40.9415C167.066 41.0349 167.085 41.1469 167.047 41.2869C166.972 41.5483 166.812 41.8657 166.576 42.2578C166.341 42.6499 166.002 43.0327 165.559 43.4247C165.116 43.8075 164.56 44.1249 163.873 44.3863C163.194 44.6383 162.375 44.769 161.423 44.769Z" fill="#A2ADBE"/>
<path d="M172.968 44.7691C171.932 44.7691 171.065 44.5917 170.368 44.2463C169.671 43.9009 169.172 43.4061 168.87 42.762C168.569 42.1179 168.484 41.343 168.625 40.4468C168.653 40.1948 168.7 39.896 168.766 39.5693C168.842 39.2426 168.908 38.9532 168.993 38.7104C169.237 37.8049 169.614 37.0301 170.114 36.3859C170.622 35.7418 171.263 35.2564 172.064 34.911C172.855 34.5656 173.788 34.3882 174.862 34.3882C175.879 34.3882 176.746 34.5656 177.443 34.911C178.14 35.2564 178.649 35.7511 178.979 36.3859C179.299 37.0301 179.393 37.8049 179.252 38.7104C179.195 38.9532 179.139 39.2426 179.073 39.5693C179.007 39.896 178.941 40.1854 178.875 40.4468C178.63 41.343 178.263 42.1179 177.773 42.762C177.283 43.4061 176.642 43.9009 175.851 44.2463C175.069 44.6011 174.108 44.7691 172.968 44.7691ZM173.26 42.4259C173.844 42.4259 174.315 42.2486 174.673 41.9031C175.031 41.5577 175.304 41.035 175.483 40.3441C175.531 40.1481 175.596 39.896 175.672 39.5786C175.747 39.2612 175.794 38.9998 175.813 38.8131C175.926 38.1317 175.898 37.6182 175.719 37.2635C175.54 36.9087 175.154 36.7314 174.579 36.7314C174.023 36.7314 173.562 36.9087 173.204 37.2635C172.846 37.6182 172.572 38.1317 172.393 38.8131C172.346 39.0092 172.28 39.2612 172.205 39.5786C172.13 39.896 172.083 40.1574 172.064 40.3441C171.951 41.035 171.979 41.5577 172.148 41.9031C172.318 42.2486 172.695 42.4259 173.26 42.4259Z" fill="#A2ADBE"/>
<path d="M35.9982 16.6322L36.7895 11.1244C36.8555 10.6483 36.5163 10.2002 36.0264 10.1628C30.9204 9.73341 5.47502 8.34244 0.877702 23.279C-3.19205 36.4979 16.6763 45.9639 16.6763 45.9639C16.6763 45.9639 -7.31833 29.5524 13.4638 18.49C13.5109 18.462 13.558 18.4433 13.6051 18.4246C20.8968 15.764 31.9567 16.9496 35.0561 17.3511C35.5083 17.4071 35.9322 17.0897 35.9982 16.6322Z" fill="#A2ADBE"/>
<path d="M37.9936 2.50843L37.3247 7.22279C37.2588 7.67088 36.8537 7.99762 36.3921 7.95094C31.8136 7.4655 9.30748 5.7478 1.16797 17.8931C1.16797 17.8931 5.80297 6.41061 17.5789 2.89118C28.4221 -0.348185 35.0638 1.32284 37.24 1.55622C37.7204 1.6029 38.0596 2.04166 37.9936 2.50843Z" fill="#A2ADBE"/>
<path fill-rule="evenodd" clip-rule="evenodd" d="M69.5053 25.5201L66.34 23.5504L63.1181 21.5433C61.8934 20.8805 60.5745 20.8991 59.1519 21.5806L55.4308 23.5504L51.6436 25.5575C50.287 26.3603 49.4769 27.4992 49.2131 28.9742L48.0826 36.9186C47.9507 38.3843 48.4688 39.5138 49.6182 40.298L52.7835 42.2678L56.0054 44.2749C57.2395 44.9377 58.5584 44.919 59.9715 44.2375L63.6927 42.2678L67.4893 40.2607C68.8459 39.4578 69.6561 38.3189 69.9198 36.8439L71.0503 28.8995C71.1634 27.4339 70.6547 26.3043 69.5053 25.5201ZM68.8553 28.6195L60.16 32.2509L58.8128 41.745H57.7859L59.1331 32.2509L51.4741 28.6195L52.0205 27.6953L59.7737 31.3734L68.5727 27.6953L68.8553 28.6195Z" fill="#A2ADBE"/>
<path d="M81.6966 1.83643H42.3179C41.894 1.83643 41.5454 2.13516 41.4795 2.54592L39.3316 15.8955C39.2468 16.4089 39.6519 16.8757 40.17 16.8757H79.5487C79.9726 16.8757 80.3212 16.577 80.3871 16.1662L82.5351 2.81664C82.6198 2.30319 82.2242 1.83643 81.6966 1.83643ZM52.4358 13.627C51.9365 14.3458 51.2771 14.8966 50.4575 15.2607C49.6379 15.6341 48.6393 15.8115 47.4617 15.8115C46.8399 15.8115 46.2181 15.7274 45.5964 15.5501C44.9746 15.3727 44.4282 15.1113 43.9383 14.7566C43.4484 14.4018 43.081 13.9724 42.8361 13.4496C42.5911 12.9268 42.5346 12.32 42.6571 11.6292C42.6854 11.5172 42.7325 11.4238 42.8267 11.3492C42.9115 11.2745 43.0057 11.2278 43.1187 11.2278H45.6152C45.7848 11.2278 45.9072 11.2745 45.9826 11.3585C46.058 11.4425 46.1051 11.5732 46.1333 11.7412C46.1333 12.2547 46.2652 12.6188 46.5196 12.8521C46.774 13.0855 47.1696 13.1976 47.6972 13.1976C48.3566 13.1976 48.8936 13.0015 49.2987 12.6094C49.7038 12.2173 49.9864 11.6386 50.1466 10.8731L51.2676 5.61725H45.342C45.2101 5.61725 45.1065 5.57991 45.0405 5.48655C44.9746 5.40254 44.9558 5.29051 44.9746 5.15982L45.3608 3.35809C45.3891 3.2274 45.4456 3.11537 45.5493 3.03136C45.6529 2.94734 45.7754 2.90066 45.9072 2.90066H54.791C54.9229 2.90066 55.0265 2.94734 55.1019 3.03136C55.1772 3.11537 55.1961 3.2274 55.1772 3.35809L53.5475 10.9664C53.3025 12.012 52.9445 12.8988 52.4358 13.627ZM66.0299 5.64526H60.3492L59.784 8.31517H65.069C65.2009 8.31517 65.3045 8.36184 65.3705 8.4552C65.4364 8.54855 65.4553 8.66057 65.4364 8.79127L65.0502 10.6117C65.0219 10.733 64.956 10.8357 64.8523 10.9291C64.7393 11.0224 64.6168 11.0691 64.4849 11.0691H59.1999L58.2955 15.1767C58.2672 15.298 58.2107 15.4007 58.1071 15.4941C58.0035 15.5874 57.881 15.6341 57.7491 15.6341H55.4316C55.3091 15.6341 55.2149 15.5874 55.1396 15.4941C55.0642 15.4007 55.0454 15.298 55.0642 15.1767L57.5984 3.34875C57.6266 3.21806 57.6926 3.10604 57.7962 3.02202C57.9093 2.938 58.0223 2.89133 58.1448 2.89133H66.5858C66.7176 2.89133 66.8213 2.938 66.8872 3.02202C66.9532 3.10604 66.972 3.21806 66.9532 3.34875L66.5669 5.18782C66.5387 5.31852 66.4821 5.43054 66.3785 5.51456C66.2749 5.60791 66.1618 5.64526 66.0299 5.64526ZM79.1719 3.49812L73.5383 9.23003L77.0051 15.0366C77.0993 15.1953 77.0993 15.3354 76.9862 15.4567C76.8732 15.5781 76.7507 15.6341 76.6188 15.6341H74.047C73.8491 15.6341 73.7078 15.5967 73.6042 15.5221C73.51 15.4474 73.4346 15.3634 73.3875 15.27L70.6367 10.7237L69.6663 15.1767C69.6381 15.298 69.5815 15.4007 69.4873 15.4941C69.3931 15.5874 69.2707 15.6341 69.1388 15.6341H66.8024C66.68 15.6341 66.5858 15.5874 66.5104 15.4941C66.435 15.4007 66.4162 15.298 66.435 15.1767L68.9692 3.34875C68.9975 3.21806 69.054 3.10604 69.1576 3.02202C69.2612 2.938 69.3743 2.89133 69.4968 2.89133H71.8331C71.965 2.89133 72.0686 2.938 72.144 3.02202C72.2194 3.10604 72.2382 3.21806 72.2194 3.34875L71.3526 7.31628L75.4318 3.23673C75.5072 3.16205 75.6014 3.08737 75.7239 3.01268C75.8463 2.938 76.0065 2.89133 76.2232 2.89133H78.9363C79.1059 2.89133 79.219 2.96601 79.2566 3.10604C79.2943 3.26474 79.2661 3.3861 79.1719 3.49812Z" fill="#A2ADBE"/>
</svg>
