<svg width="43" height="26" viewBox="0 0 43 26" fill="none" xmlns="http://www.w3.org/2000/svg">
<path d="M20.9989 26.0001C20.855 26.0001 20.7206 25.9617 20.5958 25.8945L19.3194 25.1363C19.1274 25.0307 19.2234 24.9923 19.281 24.9732C19.5401 24.8868 19.5881 24.8675 19.8568 24.7141C19.8856 24.6948 19.9241 24.7044 19.9528 24.7236L20.9318 25.3091C20.9702 25.3282 21.0182 25.3282 21.0469 25.3091L24.8764 23.092C24.9148 23.0728 24.9341 23.0343 24.9341 22.9864V18.5619C24.9341 18.5138 24.9148 18.4755 24.8764 18.4563L21.0469 16.2488C21.0085 16.2296 20.9605 16.2296 20.9318 16.2488L17.1023 18.4563C17.0639 18.4755 17.0446 18.5235 17.0446 18.5618V22.9864C17.0446 23.0248 17.0639 23.0727 17.1023 23.092L18.1485 23.6966C18.7147 23.9845 19.0698 23.6486 19.0698 23.3127V18.9457C19.0698 18.8882 19.1178 18.8306 19.185 18.8306H19.6744C19.7321 18.8306 19.7896 18.8786 19.7896 18.9457V23.3127C19.7896 24.0709 19.3769 24.5124 18.6571 24.5124C18.4364 24.5124 18.2636 24.5124 17.7741 24.2724L16.7664 23.6966C16.5168 23.5527 16.3633 23.2839 16.3633 22.996V18.5715C16.3633 18.2836 16.5168 18.0147 16.7664 17.8708L20.5958 15.6538C20.8358 15.5194 21.1622 15.5194 21.4021 15.6538L25.2315 17.8708C25.4811 18.0147 25.6347 18.2836 25.6347 18.5715V22.996C25.6347 23.2839 25.4811 23.5527 25.2315 23.6966L21.4021 25.9137C21.2773 25.9713 21.1333 26.0001 20.999 26.0001H20.9989ZM22.1794 22.9576C20.4999 22.9576 20.1544 22.1898 20.1544 21.5372C20.1544 21.4795 20.2024 21.422 20.2695 21.422H20.7686C20.8262 21.422 20.8742 21.4604 20.8742 21.518C20.951 22.0266 21.1717 22.2762 22.1891 22.2762C22.9953 22.2762 23.3409 22.0938 23.3409 21.6619C23.3409 21.4124 23.2448 21.2301 21.9875 21.1053C20.9414 20.9996 20.2887 20.7694 20.2887 19.9344C20.2887 19.1569 20.9414 18.6962 22.0355 18.6962C23.264 18.6962 23.8687 19.1185 23.9455 20.0398C23.9455 20.0687 23.9359 20.0975 23.9167 20.1263C23.8974 20.1455 23.8687 20.1646 23.8399 20.1646H23.3408C23.2928 20.1646 23.2448 20.1263 23.2352 20.0783C23.1201 19.5505 22.8225 19.3776 22.0355 19.3776C21.1525 19.3776 21.0469 19.6848 21.0469 19.9151C21.0469 20.1935 21.1717 20.2798 22.3618 20.4334C23.5423 20.587 24.0991 20.8077 24.0991 21.6331C24.0894 22.4777 23.3984 22.9576 22.1794 22.9576Z" fill="#539E43"/>
<path d="M9.11786 8.69561C9.11786 8.52288 9.02186 8.35962 8.86831 8.27325L4.79888 5.93144C4.73162 5.89299 4.65488 5.87381 4.57815 5.86418H4.5397C4.46297 5.86418 4.38616 5.89299 4.31898 5.93144L0.249544 8.27325C0.0959145 8.35962 0 8.52279 0 8.69561L0.00963297 14.9917C0.00963297 15.078 0.0576317 15.1644 0.134363 15.2028C0.211178 15.2508 0.307093 15.2508 0.374357 15.2028L2.79298 13.8208C2.94653 13.7344 3.04252 13.5712 3.04252 13.3985V10.452C3.04252 10.2792 3.13844 10.1161 3.29207 10.0297L4.31898 9.4346C4.39579 9.38661 4.48216 9.36734 4.56852 9.36734C4.65488 9.36734 4.74125 9.38661 4.80851 9.4346L5.83542 10.0297C5.98905 10.1161 6.08497 10.2792 6.08497 10.452V13.3985C6.08497 13.5712 6.18096 13.7344 6.33451 13.8208L8.75313 15.2028C8.82995 15.2508 8.92586 15.2508 9.00268 15.2028C9.07949 15.1644 9.12749 15.078 9.12749 14.9917L9.11786 8.69561ZM28.678 0.0288366C28.6013 -0.00961221 28.5053 -0.00961221 28.438 0.0288366C28.3613 0.0768354 28.3133 0.153567 28.3133 0.239932V6.47853C28.3133 6.53608 28.2846 6.59363 28.2269 6.63207C28.1694 6.66081 28.1118 6.66081 28.0542 6.63207L27.0368 6.04662C26.9623 6.00415 26.8779 5.98182 26.7921 5.98182C26.7063 5.98182 26.6219 6.00415 26.5473 6.04662L22.4779 8.39806C22.3243 8.48443 22.2283 8.64761 22.2283 8.82034V13.5136C22.2283 13.6863 22.3243 13.8496 22.4779 13.9359L26.5473 16.2874C26.6219 16.3299 26.7063 16.3522 26.7921 16.3522C26.8779 16.3522 26.9623 16.3299 27.0368 16.2874L31.1063 13.9359C31.2598 13.8496 31.3558 13.6864 31.3558 13.5136V1.81401C31.3558 1.63165 31.2598 1.46855 31.1063 1.3821L28.6781 0.0288366H28.678ZM28.3038 11.9684C28.3038 12.0164 28.2846 12.0548 28.2461 12.074L26.8545 12.8801C26.835 12.8896 26.8137 12.8945 26.7921 12.8945C26.7705 12.8945 26.7491 12.8896 26.7297 12.8801L25.338 12.074C25.2996 12.0548 25.2804 12.0068 25.2804 11.9684V10.356C25.2804 10.308 25.2996 10.2696 25.338 10.2504L26.7297 9.44415C26.7491 9.43467 26.7705 9.42974 26.7921 9.42974C26.8137 9.42974 26.835 9.43467 26.8545 9.44415L28.2461 10.2504C28.2846 10.2695 28.3038 10.3176 28.3038 10.356V11.9684ZM42.2204 10.3176C42.374 10.2312 42.4604 10.0681 42.4604 9.89524V8.75315C42.4604 8.58043 42.3644 8.41725 42.2204 8.33088L38.1798 5.98907C38.1052 5.94662 38.0209 5.9243 37.9351 5.9243C37.8493 5.9243 37.7649 5.94662 37.6903 5.98907L33.6209 8.34043C33.4673 8.4268 33.3714 8.58998 33.3714 8.76279V13.456C33.3714 13.6288 33.4673 13.7919 33.6209 13.8783L37.6615 16.1818C37.8151 16.2681 37.9974 16.2681 38.1414 16.1818L40.5888 14.819C40.6656 14.7806 40.7136 14.6942 40.7136 14.6078C40.7136 14.5215 40.6656 14.4351 40.5888 14.3967L36.5002 12.0452C36.4234 11.9973 36.3754 11.9205 36.3754 11.8341V10.3657C36.3754 10.2793 36.4234 10.193 36.5002 10.1545L37.7767 9.42506C37.8141 9.40154 37.8573 9.38906 37.9015 9.38906C37.9456 9.38906 37.9889 9.40154 38.0262 9.42506L39.3027 10.1545C39.3795 10.2025 39.4275 10.2792 39.4275 10.3657V11.5174C39.4275 11.6038 39.4755 11.6901 39.5522 11.7285C39.6291 11.7765 39.725 11.7765 39.8018 11.7285L42.2204 10.3176Z" fill="#333333"/>
<path d="M37.8723 10.0974C37.8866 10.088 37.9032 10.083 37.9203 10.083C37.9373 10.083 37.954 10.088 37.9682 10.0974L38.7457 10.5485C38.7745 10.5676 38.7937 10.5964 38.7937 10.6348V11.537C38.7937 11.5754 38.7745 11.6042 38.7457 11.6234L37.9682 12.0745C37.954 12.0838 37.9373 12.0888 37.9203 12.0888C37.9032 12.0888 37.8866 12.0838 37.8723 12.0745L37.0949 11.6234C37.0661 11.6042 37.0469 11.5754 37.0469 11.537V10.6348C37.0469 10.5964 37.0661 10.5676 37.0949 10.5485L37.8723 10.0974Z" fill="#539E43"/>
<path d="M15.9185 6.00862C15.8439 5.96617 15.7596 5.94385 15.6738 5.94385C15.588 5.94385 15.5036 5.96617 15.429 6.00862L11.3884 8.34072C11.2348 8.42708 11.1484 8.59026 11.1484 8.76299V13.4371C11.1484 13.6099 11.2444 13.773 11.3884 13.8594L15.429 16.1917C15.5036 16.2341 15.588 16.2564 15.6738 16.2564C15.7596 16.2564 15.8439 16.2341 15.9185 16.1917L19.9592 13.8594C20.1127 13.773 20.1992 13.6099 20.1992 13.4371V8.76307C20.1992 8.59034 20.1031 8.42716 19.9592 8.3408L15.9185 6.00862Z" fill="url(#paint0_linear_77_2186)"/>
<defs>
<linearGradient id="paint0_linear_77_2186" x1="17.32" y1="7.74721" x2="12.8911" y2="14.7063" gradientUnits="userSpaceOnUse">
<stop stop-color="#41873F"/>
<stop offset="0.3288" stop-color="#418B3D"/>
<stop offset="0.6352" stop-color="#419637"/>
<stop offset="0.9319" stop-color="#3FA92D"/>
<stop offset="1" stop-color="#3FAE2A"/>
</linearGradient>
</defs>
</svg>
