<svg width="30" height="30" viewBox="0 0 30 30" fill="none" xmlns="http://www.w3.org/2000/svg">
<path d="M22.5751 27.7008H7.42509C4.98759 27.7008 3.12509 26.8133 2.17509 25.2133C1.23759 23.6133 1.36259 21.5508 2.55009 19.4258L10.1251 5.78828C11.3751 3.53828 13.1001 2.30078 15.0001 2.30078C16.9001 2.30078 18.6251 3.53828 19.8751 5.78828L27.4501 19.4258C28.6376 21.5633 28.7751 23.6133 27.8251 25.2133C26.8751 26.8133 25.0126 27.7008 22.5751 27.7008ZM15.0001 4.17578C13.8251 4.17578 12.6751 5.07578 11.7626 6.70078L4.20009 20.3383C3.35009 21.8633 3.21259 23.2633 3.80009 24.2758C4.38759 25.2758 5.68759 25.8383 7.43759 25.8383H22.5876C24.3376 25.8383 25.6251 25.2883 26.2251 24.2758C26.8126 23.2633 26.6751 21.8758 25.8251 20.3383L18.2376 6.70078C17.3251 5.07578 16.1751 4.17578 15.0001 4.17578Z" fill="white"/>
<path d="M26.7997 25.9359C26.6122 25.9359 26.4247 25.8859 26.2622 25.7609L14.9997 17.8734L3.73724 25.7609C3.63747 25.8326 3.52444 25.8836 3.40475 25.9111C3.28505 25.9385 3.16108 25.9419 3.04007 25.921C2.91906 25.9 2.80343 25.8552 2.69993 25.7891C2.59643 25.723 2.50713 25.6369 2.43724 25.5359C2.36562 25.4362 2.31459 25.3231 2.28711 25.2034C2.25964 25.0838 2.25628 24.9598 2.27722 24.8388C2.29817 24.7178 2.343 24.6021 2.4091 24.4986C2.4752 24.3951 2.56126 24.3058 2.66224 24.2359L14.4622 15.9734C14.7872 15.7484 15.2122 15.7484 15.5372 15.9734L27.3372 24.2359C27.7622 24.5359 27.8622 25.1234 27.5622 25.5359C27.3872 25.7984 27.0997 25.9359 26.7997 25.9359Z" fill="white"/>
<path d="M15 17.675C14.4875 17.675 14.0625 17.25 14.0625 16.7375V3.75C14.0625 3.2375 14.4875 2.8125 15 2.8125C15.5125 2.8125 15.9375 3.2375 15.9375 3.75V16.7375C15.9375 17.25 15.5125 17.675 15 17.675Z" fill="white"/>
</svg>
