<svg width="30" height="30" viewBox="0 0 30 30" fill="none" xmlns="http://www.w3.org/2000/svg">
<path d="M12.5 5H17.5C23.025 5 27.5 9.475 27.5 15C27.5 20.525 23.025 25 17.5 25H12.5C6.975 25 2.5 20.525 2.5 15C2.5 9.475 6.975 5 12.5 5Z" stroke="white" stroke-width="2" stroke-linecap="round" stroke-linejoin="round"/>
<path d="M17.5 20C18.8261 20 20.0979 19.4732 21.0355 18.5355C21.9732 17.5979 22.5 16.3261 22.5 15C22.5 13.6739 21.9732 12.4021 21.0355 11.4645C20.0979 10.5268 18.8261 10 17.5 10C16.1739 10 14.9021 10.5268 13.9645 11.4645C13.0268 12.4021 12.5 13.6739 12.5 15C12.5 16.3261 13.0268 17.5979 13.9645 18.5355C14.9021 19.4732 16.1739 20 17.5 20Z" stroke="white" stroke-width="2" stroke-linecap="round" stroke-linejoin="round"/>
</svg>
