<svg width="30" height="30" viewBox="0 0 30 30" fill="none" xmlns="http://www.w3.org/2000/svg">
<path d="M21.25 21.25C22.9076 21.25 24.4973 20.5915 25.6694 19.4194C26.8415 18.2473 27.5 16.6576 27.5 15C27.5 13.3424 26.8415 11.7527 25.6694 10.5806C24.4973 9.40848 22.9076 8.75 21.25 8.75C19.5924 8.75 18.0027 9.40848 16.8306 10.5806C15.6585 11.7527 15 13.3424 15 15C15 16.6576 15.6585 18.2473 16.8306 19.4194C18.0027 20.5915 19.5924 21.25 21.25 21.25Z" stroke="white" stroke-width="2" stroke-miterlimit="10" stroke-linecap="round" stroke-linejoin="round"/>
<path d="M15 15C16.6576 15 18.2473 15.6585 19.4194 16.8306C20.5915 18.0027 21.25 19.5924 21.25 21.25C21.25 22.9076 20.5915 24.4973 19.4194 25.6694C18.2473 26.8415 16.6576 27.5 15 27.5C13.3424 27.5 11.7527 26.8415 10.5806 25.6694C9.40848 24.4973 8.75 22.9076 8.75 21.25C8.75 19.5924 9.40848 18.0027 10.5806 16.8306C11.7527 15.6585 13.3424 15 15 15ZM15 15C16.6576 15 18.2473 14.3415 19.4194 13.1694C20.5915 11.9973 21.25 10.4076 21.25 8.75C21.25 7.0924 20.5915 5.50269 19.4194 4.33058C18.2473 3.15848 16.6576 2.5 15 2.5C13.3424 2.5 11.7527 3.15848 10.5806 4.33058C9.40848 5.50269 8.75 7.0924 8.75 8.75C8.75 10.4076 9.40848 11.9973 10.5806 13.1694C11.7527 14.3415 13.3424 15 15 15Z" stroke="white" stroke-width="2" stroke-miterlimit="10" stroke-linecap="round" stroke-linejoin="round"/>
<path d="M8.75 21.25C10.4076 21.25 11.9973 20.5915 13.1694 19.4194C14.3415 18.2473 15 16.6576 15 15C15 13.3424 14.3415 11.7527 13.1694 10.5806C11.9973 9.40848 10.4076 8.75 8.75 8.75C7.0924 8.75 5.50269 9.40848 4.33058 10.5806C3.15848 11.7527 2.5 13.3424 2.5 15C2.5 16.6576 3.15848 18.2473 4.33058 19.4194C5.50269 20.5915 7.0924 21.25 8.75 21.25Z" stroke="white" stroke-width="2" stroke-miterlimit="10" stroke-linecap="round" stroke-linejoin="round"/>
</svg>
