<svg width="27" height="28" viewBox="0 0 27 28" fill="none" xmlns="http://www.w3.org/2000/svg">
<path d="M19.5129 3.99993C21.9379 3.99993 23.8879 5.96243 23.8879 8.37493C23.8879 10.7374 22.0129 12.6624 19.6754 12.7499C19.5674 12.7374 19.4584 12.7374 19.3504 12.7499M21.9254 23.9999C22.8254 23.8124 23.6754 23.4499 24.3754 22.9124C26.3254 21.4499 26.3254 19.0374 24.3754 17.5749C23.6879 17.0499 22.8504 16.6999 21.9629 16.4999M10.4504 12.5874C10.3254 12.5749 10.1754 12.5749 10.0379 12.5874C8.60315 12.5387 7.24369 11.9335 6.24743 10.8999C5.25116 9.86628 4.69632 8.48549 4.70039 7.04993C4.70039 3.98743 7.17539 1.49993 10.2504 1.49993C11.7207 1.4734 13.1413 2.03204 14.1997 3.05294C15.2581 4.07384 15.8676 5.47338 15.8941 6.94368C15.9207 8.41397 15.362 9.83458 14.3411 10.893C13.3202 11.9514 11.9207 12.5609 10.4504 12.5874ZM4.20039 17.1999C1.17539 19.2249 1.17539 22.5249 4.20039 24.5374C7.63789 26.8374 13.2754 26.8374 16.7129 24.5374C19.7379 22.5124 19.7379 19.2124 16.7129 17.1999C13.2879 14.9124 7.65039 14.9124 4.20039 17.1999Z" stroke="#1C284C" stroke-width="2" stroke-linecap="round" stroke-linejoin="round"/>
</svg>
