<svg width="30" height="30" viewBox="0 0 30 30" fill="none" xmlns="http://www.w3.org/2000/svg">
<path d="M14.6504 28.4375H9.02539C3.83789 28.4375 1.52539 26.125 1.52539 20.9375V15.3125C1.52539 10.125 3.83789 7.8125 9.02539 7.8125H14.6504C19.8379 7.8125 22.1504 10.125 22.1504 15.3125V20.9375C22.1504 26.125 19.8379 28.4375 14.6504 28.4375ZM9.02539 9.6875C4.87539 9.6875 3.40039 11.1625 3.40039 15.3125V20.9375C3.40039 25.0875 4.87539 26.5625 9.02539 26.5625H14.6504C18.8004 26.5625 20.2754 25.0875 20.2754 20.9375V15.3125C20.2754 11.1625 18.8004 9.6875 14.6504 9.6875H9.02539Z" fill="#1C284C"/>
<path d="M21.2126 17.1533C20.9751 17.1533 20.7501 17.0658 20.5751 16.9033C20.4786 16.817 20.4019 16.7109 20.3501 16.5923C20.2983 16.4736 20.2727 16.3452 20.2751 16.2158V15.3158C20.2751 11.1658 18.8001 9.69076 14.6501 9.69076H13.7501C13.4876 9.69076 13.2376 9.57827 13.0626 9.39077C12.9761 9.29479 12.9103 9.18195 12.8694 9.05934C12.8285 8.93672 12.8135 8.80698 12.8251 8.67826C12.9902 6.73372 13.8822 4.92287 15.3233 3.6069C16.7644 2.29092 18.6486 1.56655 20.6001 1.57826C24.5001 1.57826 27.8251 4.49077 28.3251 8.35327C28.3751 8.65326 28.4126 9.01577 28.4126 9.39077C28.4126 13.4658 25.3626 16.8033 21.3126 17.1658C21.2751 17.1533 21.2501 17.1533 21.2126 17.1533ZM14.8626 7.81576C19.8251 7.87826 22.0876 10.1283 22.1501 15.1033C24.7001 14.4283 26.5251 12.1158 26.5251 9.37826C26.5251 9.11576 26.5001 8.86577 26.4626 8.62826C26.0751 5.65326 23.5501 3.44077 20.5876 3.44077C17.8501 3.44077 15.5501 5.26576 14.8626 7.81576Z" fill="#1C284C"/>
</svg>
