<svg width="30" height="30" viewBox="0 0 30 30" fill="none" xmlns="http://www.w3.org/2000/svg">
<path d="M18.125 2.875C16.875 2.875 15.75 3.875 15.75 5.25V11C15.75 12.25 16.75 13.375 18.125 13.375C19.375 13.375 20.5 12.375 20.5 11V5.125C20.5 3.875 19.5 2.875 18.125 2.875ZM23.25 13.25H25.25C26.375 13.25 27.25 12.375 27.25 11.25C27.25 10.125 26.375 9.25 25.25 9.25C24.125 9.25 23.25 10.125 23.25 11.25V13.25ZM2.5 11.5C2.5 12.75 3.5 13.875 4.875 13.875H10.625C11.875 13.875 13 12.875 13 11.5C13 10.25 12 9.125 10.625 9.125H4.875C3.5 9.25 2.5 10.25 2.5 11.5ZM13 6.375V4.5C13 3.375 12.125 2.5 11 2.5C9.875 2.5 9 3.375 9 4.5C9 5.625 9.875 6.5 11 6.5H13V6.375ZM11.75 27.25C13 27.25 14.125 26.25 14.125 24.875V19.125C14.125 17.875 13.125 16.75 11.75 16.75C10.5 16.75 9.375 17.75 9.375 19.125V24.875C9.5 26.125 10.5 27.25 11.75 27.25ZM6.75 16.75H4.75C3.625 16.75 2.75 17.625 2.75 18.75C2.75 19.875 3.625 20.75 4.75 20.75C5.875 20.75 6.75 19.875 6.75 18.75V16.75ZM27.5 18.5C27.5 17.25 26.5 16.125 25.125 16.125H19.375C18.125 16.125 17 17.125 17 18.5C17 19.75 18 20.875 19.375 20.875H25.125C26.375 20.875 27.5 19.75 27.5 18.5ZM17 23.5V25.5C17 26.625 17.875 27.5 19 27.5C20.125 27.5 21 26.625 21 25.5C21 24.375 20.125 23.5 19 23.5H17Z" stroke="#1C284C" stroke-width="2" stroke-miterlimit="10" stroke-linecap="round" stroke-linejoin="round"/>
</svg>
