<svg width="46" height="44" viewBox="0 0 46 44" fill="none" xmlns="http://www.w3.org/2000/svg">
<path d="M20.1468 2.78116C21.0449 0.0172238 24.9551 0.01722 25.8532 2.78115L29.0619 12.6565C29.4635 13.8926 30.6154 14.7295 31.915 14.7295H42.2986C45.2048 14.7295 46.4131 18.4483 44.062 20.1565L35.6615 26.2599C34.61 27.0238 34.1701 28.3779 34.5717 29.614L37.7804 39.4894C38.6784 42.2533 35.515 44.5517 33.1639 42.8435L24.7634 36.7401C23.7119 35.9762 22.2881 35.9762 21.2366 36.7401L12.8361 42.8435C10.485 44.5517 7.32156 42.2533 8.21961 39.4894L11.4283 29.614C11.8299 28.3779 11.39 27.0238 10.3385 26.2599L1.938 20.1565C-0.413139 18.4483 0.795185 14.7295 3.70135 14.7295H14.0849C15.3846 14.7295 16.5365 13.8926 16.9381 12.6565L20.1468 2.78116Z" fill="#1C284C"/>
</svg>
