<svg width="52" height="61" viewBox="0 0 52 61" fill="none" xmlns="http://www.w3.org/2000/svg">
<path d="M51.5621 46.0006L28.1258 59.5237C27.0142 60.1605 25.6479 60.1605 24.5479 59.5237L1.79477 46.3826C0.683172 45.7458 0 44.5649 0 43.2797V18.6647C0 18.0858 0.625276 17.7269 1.12318 18.0164L6.69277 21.2235C7.24857 21.5477 7.58437 22.1382 7.58437 22.775V39.9452C7.58437 40.582 7.92016 41.1725 8.47596 41.4967L25.4395 51.2917C25.9953 51.6159 26.6784 51.6159 27.2342 51.2917L44.1977 41.4967C44.7535 41.1725 45.4367 41.1725 45.9925 41.4967L51.5621 44.7154C52.06 44.9933 52.06 45.7111 51.5621 46.0006Z" fill="#00A29A"/>
<path d="M30.4513 15.5828L36.0209 18.7899C36.5767 19.1141 36.9125 19.7046 36.9125 20.3414V39.9315C36.9125 40.5682 36.5767 41.1587 36.0209 41.4829L30.4513 44.7016C29.9534 44.9911 29.3281 44.6321 29.3281 44.0532V16.2311C29.3397 15.6522 29.9534 15.2933 30.4513 15.5828Z" fill="#1C284C"/>
<path d="M22.2346 15.6064L16.665 18.8135C16.1092 19.1377 15.7734 19.7282 15.7734 20.365V39.9203C15.7734 40.5571 16.1208 41.1476 16.665 41.4718L22.2346 44.6789C22.7325 44.9684 23.3578 44.6094 23.3578 44.0305V16.2432C23.3578 15.6758 22.7325 15.3169 22.2346 15.6064Z" fill="#1C284C"/>
<path d="M51.5583 15.5841L45.9887 18.8028C45.4329 19.127 44.7497 19.127 44.1939 18.8028L27.2304 9.00774C26.6746 8.68355 25.9915 8.68355 25.4357 9.00774L8.47216 18.8028C7.91636 19.127 7.23319 19.127 6.67739 18.8028L1.1078 15.5841C0.609899 15.2946 0.609899 14.5768 1.1078 14.2873L25.4357 0.243139C25.9915 -0.0810465 26.6746 -0.0810465 27.2304 0.243139L51.5583 14.2873C52.0562 14.5768 52.0562 15.2946 51.5583 15.5841Z" fill="#1C284C"/>
</svg>
