<svg width="230" height="119" viewBox="0 0 230 119" fill="none" xmlns="http://www.w3.org/2000/svg">
<path d="M229.889 113.368L224.031 116.749C223.753 116.908 223.411 116.908 223.136 116.749L217.449 113.464C217.171 113.305 217 113.01 217 112.688V106.535C217 106.391 217.156 106.301 217.281 106.373L218.673 107.175C218.812 107.256 218.896 107.404 218.896 107.563V111.855C218.896 112.014 218.98 112.162 219.119 112.243L223.359 114.691C223.498 114.772 223.669 114.772 223.808 114.691L228.048 112.243C228.187 112.162 228.358 112.162 228.497 112.243L229.889 113.047C230.013 113.117 230.013 113.296 229.889 113.368Z" fill="#00A29A"/>
<path d="M224.609 105.768L226.001 106.57C226.14 106.651 226.224 106.798 226.224 106.957V111.855C226.224 112.014 226.14 112.162 226.001 112.243L224.609 113.047C224.484 113.12 224.328 113.03 224.328 112.885V105.93C224.331 105.785 224.484 105.695 224.609 105.768Z" fill="#1C284C"/>
<path d="M222.56 105.772L221.168 106.573C221.029 106.655 220.945 106.802 220.945 106.961V111.85C220.945 112.009 221.032 112.157 221.168 112.238L222.56 113.04C222.685 113.112 222.841 113.022 222.841 112.878V105.931C222.841 105.789 222.685 105.699 222.56 105.772Z" fill="#1C284C"/>
<path d="M229.888 105.767L228.496 106.572C228.357 106.653 228.186 106.653 228.047 106.572L223.807 104.123C223.668 104.042 223.497 104.042 223.358 104.123L219.118 106.572C218.979 106.653 218.808 106.653 218.669 106.572L217.277 105.767C217.152 105.695 217.152 105.515 217.277 105.443L223.358 101.932C223.497 101.851 223.668 101.851 223.807 101.932L229.888 105.443C230.012 105.515 230.012 105.695 229.888 105.767Z" fill="#1C284C"/>
<path d="M104.889 113.368L99.0306 116.749C98.7527 116.908 98.4112 116.908 98.1362 116.749L92.4486 113.464C92.1708 113.305 92 113.01 92 112.688V106.535C92 106.391 92.1563 106.301 92.2808 106.373L93.673 107.175C93.8119 107.256 93.8959 107.404 93.8959 107.563V111.855C93.8959 112.014 93.9798 112.162 94.1187 112.243L98.3591 114.691C98.498 114.772 98.6688 114.772 98.8077 114.691L103.048 112.243C103.187 112.162 103.358 112.162 103.497 112.243L104.889 113.047C105.013 113.117 105.013 113.296 104.889 113.368Z" fill="#00A29A"/>
<path d="M99.6089 105.768L101.001 106.57C101.14 106.651 101.224 106.798 101.224 106.957V111.855C101.224 112.014 101.14 112.162 101.001 112.243L99.6089 113.047C99.4844 113.12 99.3281 113.03 99.3281 112.885V105.93C99.331 105.785 99.4844 105.695 99.6089 105.768Z" fill="#1C284C"/>
<path d="M97.5604 105.772L96.1682 106.573C96.0293 106.655 95.9453 106.802 95.9453 106.961V111.85C95.9453 112.009 96.0321 112.157 96.1682 112.238L97.5604 113.04C97.6849 113.112 97.8412 113.022 97.8412 112.878V105.931C97.8412 105.789 97.6849 105.699 97.5604 105.772Z" fill="#1C284C"/>
<path d="M104.888 105.767L103.496 106.572C103.357 106.653 103.186 106.653 103.047 106.572L98.8068 104.123C98.6679 104.042 98.4971 104.042 98.3582 104.123L94.1178 106.572C93.9789 106.653 93.8081 106.653 93.6692 106.572L92.2769 105.767C92.1525 105.695 92.1525 105.515 92.2769 105.443L98.3582 101.932C98.4971 101.851 98.6679 101.851 98.8068 101.932L104.888 105.443C105.012 105.515 105.012 105.695 104.888 105.767Z" fill="#1C284C"/>
<path d="M34.5489 102.927C34.8483 102.006 36.1517 102.006 36.4511 102.927L37.4084 105.873C37.5422 106.285 37.9262 106.564 38.3594 106.564H41.4574C42.4261 106.564 42.8289 107.804 42.0451 108.373L39.5389 110.194C39.1884 110.449 39.0417 110.9 39.1756 111.312L40.1329 114.259C40.4323 115.18 39.3778 115.946 38.5941 115.377L36.0878 113.556C35.7373 113.301 35.2627 113.301 34.9122 113.556L32.4059 115.377C31.6222 115.946 30.5677 115.18 30.8671 114.259L31.8244 111.312C31.9583 110.9 31.8116 110.449 31.4611 110.194L28.9549 108.373C28.1711 107.804 28.5739 106.564 29.5426 106.564H32.6406C33.0738 106.564 33.4578 106.285 33.5916 105.873L34.5489 102.927Z" fill="#1C284C"/>
<path d="M159.549 102.927C159.848 102.006 161.152 102.006 161.451 102.927L162.408 105.873C162.542 106.285 162.926 106.564 163.359 106.564H166.457C167.426 106.564 167.829 107.804 167.045 108.373L164.539 110.194C164.188 110.449 164.042 110.9 164.176 111.312L165.133 114.259C165.432 115.18 164.378 115.946 163.594 115.377L161.088 113.556C160.737 113.301 160.263 113.301 159.912 113.556L157.406 115.377C156.622 115.946 155.568 115.18 155.867 114.259L156.824 111.312C156.958 110.9 156.812 110.449 156.461 110.194L153.955 108.373C153.171 107.804 153.574 106.564 154.543 106.564H157.641C158.074 106.564 158.458 106.285 158.592 105.873L159.549 102.927Z" fill="#1C284C"/>
<path d="M127.549 29.927C127.848 29.0057 129.152 29.0057 129.451 29.9271L130.408 32.8734C130.542 33.2854 130.926 33.5643 131.359 33.5643H134.457C135.426 33.5643 135.829 34.804 135.045 35.3734L132.539 37.1943C132.188 37.4489 132.042 37.9003 132.176 38.3123L133.133 41.2586C133.432 42.1799 132.378 42.946 131.594 42.3766L129.088 40.5557C128.737 40.3011 128.263 40.3011 127.912 40.5557L125.406 42.3766C124.622 42.946 123.568 42.1799 123.867 41.2586L124.824 38.3123C124.958 37.9003 124.812 37.4489 124.461 37.1943L121.955 35.3734C121.171 34.804 121.574 33.5643 122.543 33.5643H125.641C126.074 33.5643 126.458 33.2854 126.592 32.8734L127.549 29.927Z" fill="#1C284C"/>
<path d="M33.1613 100.87C33.6339 100.87 34.0953 100.92 34.5463 100.998C32.8087 98.1741 29.9408 96.1191 26.5658 95.4847C26.1958 95.4157 25.8198 95.3606 25.4379 95.3281C25.4379 95.3428 25.4323 95.3595 25.4312 95.379V95.3881C25.4278 95.4272 25.4208 95.468 25.4183 95.5049C25.4173 95.5088 25.4173 95.513 25.4162 95.5154C25.3782 95.8878 25.2478 96.2488 25.0326 96.5885C23.9811 98.8169 21.0992 102.704 19.3142 105.023L18.9752 100.196C19.4391 99.9577 19.8366 99.5786 20.109 99.1301C20.3305 98.7615 20.4721 98.3507 20.4721 97.9333C20.4721 97.9333 19.22 98.487 17.9421 98.487C16.6645 98.487 15.4122 97.9333 15.4122 97.9333C15.4122 98.3186 15.5307 98.6973 15.7247 99.0439C15.9953 99.5262 16.4163 99.9422 16.9066 100.194L16.561 105.149C14.8823 102.764 12.0326 98.561 11.1527 96.3458C11.0212 96.085 10.9371 95.8123 10.9068 95.5298C10.9008 95.4789 10.8928 95.4332 10.8897 95.3812C10.8893 95.3649 10.8841 95.3488 10.8841 95.3296C10.7146 95.3446 10.5465 95.3642 10.3801 95.3858C10.3592 95.3903 10.3383 95.3917 10.3177 95.3948C4.48699 96.2056 0 101.21 0 107.264C0 113.884 5.36751 113.869 11.9882 113.869H24.3345C25.2203 113.869 26.0836 113.868 26.915 113.853C25.8205 112.484 25.1613 110.754 25.1613 108.869C25.1613 104.459 28.7505 100.87 33.1614 100.87L33.1613 100.87Z" fill="#1C284C"/>
<path d="M9.09287 84.9908C9.0995 85.0773 9.10647 85.1638 9.1138 85.2492C9.6931 91.7946 13.5229 96.8506 18.1619 96.8506C22.8608 96.8506 26.7293 91.6618 27.2305 84.9939C27.2999 84.5151 27.3358 84.0251 27.3358 83.525C27.3358 83.0256 27.2999 82.5357 27.2305 82.0569C26.5581 77.4222 22.754 73.8711 18.1619 73.8711C13.5686 73.8711 9.76388 77.4244 9.09326 82.0611C9.02421 82.5385 8.98828 83.0281 8.98828 83.5257C8.98828 83.7287 8.9963 83.9285 9.00781 84.128C9.0242 84.4188 9.05176 84.7073 9.09256 84.9908L9.09287 84.9908ZM11.3389 84.5817C11.2514 83.5094 11.2224 82.0189 11.5708 80.9661C11.7574 80.4022 12.0504 79.9638 12.5028 79.7852C12.5028 79.7852 18.8413 82.8684 23.1062 79.7852C23.1062 79.7852 25.0426 82.8499 25.0506 84.6703C25.0516 84.9298 25.016 85.1648 24.9247 85.3608L26.2127 83.8819C26.2067 84.2742 26.1795 84.6609 26.1227 85.0393C25.8388 88.8119 24.3273 92.046 22.1844 93.8682C22.0414 93.9896 21.896 94.1054 21.7474 94.2131C20.668 95.003 19.4494 95.4494 18.1611 95.4494C17.9072 95.4494 17.6561 95.432 17.4084 95.3975C17.1608 95.3643 16.917 95.3134 16.6764 95.2454C14.5119 94.6515 12.6533 92.7883 11.4805 90.2041C10.8286 88.7677 10.3874 87.1095 10.2235 85.3222C10.5806 85.4121 11.0183 85.5851 11.4955 85.9185C11.4961 85.9192 11.4027 85.3612 11.3392 84.5818L11.3389 84.5817Z" fill="#1C284C"/>
<path d="M96.8032 100.867C97.1443 100.867 97.4771 100.895 97.8056 100.937C96.0035 98.9266 94.1892 98.7725 93.642 98.6445C91.9553 98.2501 89.9136 98.4181 88.8245 98.0781C88.6333 99.6725 85.5638 100.941 81.8034 100.941C78.0433 100.941 74.9731 99.6729 74.7819 98.0781C73.6931 98.4192 71.651 98.2501 69.9644 98.6445C69.1085 98.8443 65.1283 99.0999 62.9754 106.508C62.6838 107.515 62.7864 108.608 63.2614 109.504C65.0255 112.84 74.3033 113.867 81.8032 113.866C84.5222 113.866 87.4756 113.73 90.219 113.399C89.3286 112.109 88.803 110.548 88.803 108.866C88.803 104.455 92.3922 100.867 96.8032 100.867L96.8032 100.867Z" fill="#1C284C"/>
<path d="M72.9419 90.1933C73.7354 92.3279 74.9913 94.4015 76.545 95.9178C77.4239 96.7771 78.398 97.4574 79.437 97.8686C80.151 98.1515 80.8967 98.3091 81.6625 98.3091C82.4274 98.3091 83.1731 98.1525 83.8877 97.8686C84.9623 97.4428 85.9691 96.7304 86.8718 95.8279C88.3869 94.3144 89.6118 92.2739 90.3902 90.1756C90.9883 89.9991 91.6158 88.8787 91.871 87.4474C92.149 85.8942 91.886 84.5393 91.2872 84.3134C91.3088 83.9343 91.3228 83.551 91.3217 83.157C91.3078 77.5267 88.0063 74.2531 82.7992 73.9044C78.2607 73.6003 74.8406 75.4025 73.2841 78.401C72.7603 79.4095 72.461 80.6709 72.3463 82.041C72.1712 82.7545 72.0686 83.4963 72.0686 84.2632H72.0857C72.0854 84.2691 72.0847 84.2747 72.0847 84.2813C72.0735 84.2824 72.062 84.2827 72.0515 84.2852C71.3875 84.4006 71.0851 85.8171 71.3767 87.4482C71.6421 88.9474 72.318 90.107 72.9416 90.1938L72.9419 90.1933ZM73.0908 85.9962C73.1554 85.8051 73.2419 85.6559 73.3528 85.5767C73.3991 85.5432 73.4497 85.5206 73.5041 85.5111H73.5045C73.6276 85.4892 73.7566 85.5366 73.8836 85.6388H73.8839C73.8839 85.6287 73.885 85.6189 73.8853 85.6088C73.9268 85.2123 74.4252 81.9384 77.4194 81.803C77.6189 81.794 77.8296 81.7992 78.0521 81.8194C78.0521 81.8194 79.1811 82.2344 80.6986 82.3443C80.9155 82.3596 81.1401 82.3694 81.3706 82.3708C82.2098 82.3753 83.1236 82.2693 84.0101 81.953C84.1625 81.9495 84.3125 81.9474 84.4589 81.9471C84.6065 81.9471 84.7498 81.9491 84.8865 81.954C85.9161 81.992 86.66 82.4639 87.3956 82.844C87.501 82.8984 87.6056 82.9511 87.7113 83.0006C87.6799 82.6135 87.3824 82.2166 87.3977 81.9547C87.5334 81.9938 87.6558 82.0506 87.7726 82.1141C88.3792 82.7606 88.9683 83.8456 89.4345 85.6182C89.4356 85.6259 89.4356 85.6332 89.4366 85.6402C89.4377 85.6391 89.4387 85.6388 89.4404 85.637C89.4404 85.6381 89.4415 85.6384 89.4415 85.6391L89.4481 85.6311C89.5716 85.5345 89.6964 85.4902 89.8168 85.5111C89.8482 85.517 89.8771 85.5261 89.9057 85.539C89.9566 85.5631 90.0013 85.606 90.0442 85.6534C90.1837 85.8082 90.2782 86.081 90.3218 86.4238C90.3288 86.4778 90.3392 86.5273 90.3434 86.5849C90.3574 86.7899 90.3535 87.0159 90.3319 87.2527C90.3309 87.2628 90.3309 87.2715 90.3298 87.2813C90.3302 87.2764 90.3302 87.2719 90.3309 87.2667C90.3305 87.2715 90.3305 87.2768 90.3298 87.2817C90.3183 87.4058 90.2998 87.5327 90.2771 87.6621C90.2437 87.8602 90.1973 88.0496 90.1415 88.2267C89.9789 88.7582 89.7425 89.1771 89.4956 89.3866C89.363 89.4975 89.2291 89.5495 89.1 89.5271H89.0997C89.0268 89.5153 88.9626 89.4797 88.9026 89.4246C88.1821 91.6635 86.8107 93.894 85.0798 95.2495C84.0478 96.0558 82.8868 96.5538 81.6598 96.5538C80.4597 96.5538 79.3234 96.0785 78.3077 95.299C76.5447 93.9515 75.1482 91.6921 74.4183 89.4242C74.3587 89.4793 74.2934 89.5152 74.2213 89.527C74.1836 89.5337 74.1463 89.534 74.1079 89.5281C73.9935 89.511 73.876 89.4406 73.763 89.3272C73.4571 89.0224 73.1781 88.4034 73.0455 87.6613C73.0365 87.6125 73.0319 87.5654 73.025 87.5169C73.0333 86.997 73.0553 86.4941 73.0909 85.9961L73.0908 85.9962Z" fill="#1C284C"/>
<path d="M81.6602 96.5551C82.8871 96.5551 84.0475 96.057 85.0795 95.25C84.0475 96.0574 82.8865 96.5551 81.6602 96.5551Z" fill="#1C284C"/>
<path d="M88.902 89.4222C88.901 89.4222 88.901 89.4222 88.901 89.4219C88.1814 91.661 86.809 93.8924 85.0781 95.2474C86.8104 93.8924 88.1815 91.6613 88.902 89.4222L88.902 89.4222Z" fill="#1C284C"/>
<path d="M89.0977 89.5273C89.2267 89.5499 89.3606 89.4976 89.4928 89.3867C89.3603 89.498 89.2267 89.5492 89.0977 89.5273Z" fill="#1C284C"/>
<path d="M74.2188 89.5248C74.2916 89.5129 74.3569 89.4766 74.4162 89.4219C74.3569 89.477 74.2913 89.5129 74.2188 89.5248Z" fill="#1C284C"/>
<path d="M158.999 100.891C157.633 99.3593 155.866 98.1918 153.862 97.5592C155.838 97.7813 157.574 98.122 157.574 98.122C153.628 95.953 153.73 88.1681 153.73 88.1681C154.42 73.0908 144.469 73.8782 144.469 73.8782L144.46 73.9015L144.453 73.8782C144.453 73.8782 134.501 73.0894 135.191 88.1681C135.191 88.1681 135.292 95.9533 131.346 98.122C131.346 98.122 132.409 98.0495 133.829 98.0237C129.805 99.8234 127 103.858 127 108.552C127 114.915 132.159 113.791 138.524 113.791H150.393C151.362 113.791 152.302 113.817 153.202 113.839C152.115 112.47 151.459 110.745 151.459 108.867C151.459 104.611 154.803 101.131 158.999 100.891L158.999 100.891ZM141.748 85.7407C141.748 85.7407 145.081 84.6279 149.151 81.6962C149.171 81.6822 149.192 81.6676 149.212 81.6526H149.212C149.212 81.6526 149.285 81.7572 149.389 81.9361C149.743 82.5415 150.502 84.3458 149.069 85.1723L151.675 85.5035H151.723L152.2 85.5914C152.194 85.9684 152.168 86.3405 152.114 86.7039C151.963 88.6999 151.457 90.5384 150.687 92.0801C150.327 92.7999 149.909 93.4541 149.447 94.0302C148.217 95.5604 146.653 96.5365 144.936 96.6889C144.779 96.7014 144.62 96.7105 144.46 96.7105C143.241 96.7105 142.088 96.2965 141.064 95.5583C138.811 93.9382 137.178 90.7546 136.83 86.977C136.837 86.9759 139.912 86.4661 141.748 85.7407C141.748 85.7411 145.081 84.6283 149.151 81.6969C149.171 81.683 149.192 81.6683 149.212 81.6533C149.192 81.6683 149.172 81.6823 149.152 81.6962C145.082 84.6276 141.749 85.7407 141.748 85.7407C139.911 86.4661 136.831 86.9766 136.83 86.977V86.9756C136.829 86.977 139.909 86.4664 141.748 85.7408L141.748 85.7407ZM149.447 94.0319C148.217 95.5607 146.653 96.5365 144.936 96.6899C146.653 96.5364 148.216 95.5607 149.447 94.0319ZM147.126 100.581L144.46 104.914L141.794 100.581C139.857 100.142 138.36 99.2373 137.757 98.1221H137.757C137.837 98.1297 137.913 98.1381 137.992 98.1461C138.757 98.2221 139.449 98.3376 139.985 98.5067C140.43 98.6476 140.762 98.8247 140.935 99.0472C140.951 99.0678 140.974 99.0866 140.987 99.1083L140.986 99.1072L139.518 95.833C139.518 95.8341 139.519 95.8341 139.519 95.8341C140.135 96.4485 140.81 96.9445 141.526 97.3155C141.014 97.0501 140.522 96.7251 140.06 96.332C141.131 97.2408 142.346 97.8232 143.643 97.999C142.907 97.8996 142.198 97.6645 141.526 97.3155C142.444 97.7925 143.43 98.06 144.459 98.06C146.25 98.06 147.915 97.2757 149.304 95.9297L148.279 98.06C148.623 97.4954 149.913 97.343 151.426 97.381C151.186 98.8306 149.478 100.047 147.126 100.581L147.126 100.581Z" fill="#1C284C"/>
<path d="M126.999 27.899C125.633 26.3671 123.866 25.1996 121.862 24.567C123.838 24.7892 125.574 25.1299 125.574 25.1299C121.628 22.9608 121.73 15.1759 121.73 15.1759C122.42 0.0985944 112.469 0.885983 112.469 0.885983L112.46 0.909347L112.453 0.885983C112.453 0.885983 102.501 0.0971749 103.191 15.1759C103.191 15.1759 103.292 22.9611 99.3465 25.1299C99.3465 25.1299 100.409 25.0573 101.829 25.0315C97.8047 26.8313 95 30.8657 95 35.5595C95 41.9229 100.159 40.7984 106.524 40.7984H118.393C119.362 40.7984 120.302 40.8249 121.202 40.8465C120.115 39.4778 119.459 37.7526 119.459 35.8744C119.459 31.619 122.803 28.1391 126.999 27.8991L126.999 27.899ZM109.748 12.7485C109.748 12.7485 113.081 11.6357 117.151 8.704C117.171 8.69005 117.192 8.67541 117.212 8.66041H117.212C117.212 8.66041 117.285 8.76503 117.389 8.94393C117.743 9.5493 118.502 11.3536 117.069 12.1801L119.675 12.5114H119.723L120.2 12.5992C120.194 12.9762 120.168 13.3483 120.114 13.7117C119.963 15.7077 119.457 17.5462 118.687 19.088C118.327 19.8077 117.909 20.462 117.447 21.038C116.217 22.5683 114.653 23.5443 112.936 23.6967C112.779 23.7092 112.62 23.7183 112.46 23.7183C111.241 23.7183 110.088 23.3044 109.064 22.5661C106.811 20.946 105.178 17.7624 104.83 13.9848C104.837 13.9837 107.912 13.4739 109.748 12.7485C109.748 12.7489 113.081 11.6361 117.151 8.70472C117.171 8.69077 117.192 8.67612 117.212 8.66113C117.192 8.67612 117.172 8.69007 117.152 8.70402C113.082 11.6354 109.749 12.7485 109.748 12.7485C107.911 13.4739 104.831 13.9844 104.83 13.9848V13.9834C104.829 13.9848 107.909 13.4743 109.748 12.7486L109.748 12.7485ZM117.447 21.0397C116.217 22.5685 114.653 23.5443 112.936 23.6977C114.653 23.5442 116.216 22.5685 117.447 21.0397ZM115.126 27.5891L112.46 31.9216L109.794 27.5891C107.857 27.15 106.36 26.2451 105.757 25.1299H105.757C105.837 25.1375 105.913 25.1459 105.992 25.1539C106.757 25.23 107.449 25.3454 107.985 25.5145C108.43 25.6554 108.762 25.8326 108.935 26.055C108.951 26.0756 108.974 26.0944 108.987 26.1161L108.986 26.115L107.518 22.8408C107.518 22.8419 107.519 22.8419 107.519 22.8419C108.135 23.4563 108.81 23.9523 109.526 24.3233C109.014 24.0579 108.522 23.7329 108.06 23.3399C109.131 24.2487 110.346 24.831 111.643 25.0068C110.907 24.9074 110.198 24.6723 109.526 24.3233C110.444 24.8003 111.43 25.0678 112.459 25.0678C114.25 25.0678 115.915 24.2835 117.304 22.9375L116.279 25.0678C116.623 24.5032 117.913 24.3508 119.426 24.3888C119.186 25.8384 117.478 27.0548 115.126 27.5891L115.126 27.5891Z" fill="#1C284C"/>
<path d="M222.147 100.875C220.598 99.4483 219.14 99.3185 218.668 99.209C218.573 99.1863 218.475 99.1654 218.377 99.1476C215.875 96.8344 217.583 87.1798 217.583 87.1798C217.583 72.4621 207.628 73.9102 207.628 73.9102C207.506 73.9033 207.386 73.8987 207.266 73.8952C207.147 73.8987 207.027 73.9043 206.905 73.9106C206.905 73.9106 196.95 72.4626 196.95 87.1792C196.95 87.1792 198.658 96.8339 196.155 99.1471C196.057 99.1656 195.96 99.1872 195.865 99.2095C195.041 99.401 191.208 99.6468 189.133 106.782C188.853 107.751 188.951 108.805 189.409 109.667C191.107 112.879 200.044 113.869 207.266 113.867C209.984 113.868 212.943 113.729 215.669 113.382C214.785 112.096 214.266 110.543 214.266 108.868C214.266 104.498 217.791 100.94 222.147 100.874L222.147 100.875ZM214.279 90.3284C214.279 90.3281 214.279 90.3274 214.279 90.327C214.336 90.3804 214.4 90.4146 214.469 90.4264C214.468 90.4264 214.468 90.4268 214.467 90.4264C214.399 90.4149 214.335 90.3814 214.279 90.3284L214.279 90.3284ZM199.303 86.6216C199.348 86.5895 199.397 86.5672 199.449 86.5584C199.568 86.5379 199.692 86.5836 199.814 86.6819V86.6822C199.814 86.6819 199.814 86.6718 199.817 86.6526C199.859 86.2442 200.403 81.6676 203.829 81.9843L214.309 87.3784L215.161 86.5584C215.191 86.564 215.218 86.5731 215.246 86.586C215.527 86.7175 215.687 87.2413 215.674 87.9151C215.67 88.14 215.645 88.381 215.601 88.63C215.465 89.3934 215.166 90.0226 214.849 90.2908C214.786 90.3438 214.722 90.3832 214.658 90.4062C214.595 90.4289 214.532 90.4362 214.471 90.4258C214.401 90.4139 214.337 90.3797 214.28 90.3257C214.28 90.326 214.28 90.3271 214.279 90.3278C214.279 90.3274 214.278 90.3274 214.277 90.3264C213.579 92.5001 212.244 94.6661 210.557 95.9674C209.571 96.7273 208.468 97.1918 207.304 97.1918C207.011 97.1918 206.721 97.1608 206.437 97.1057C206.271 97.0733 206.107 97.0237 205.944 96.9728C206.108 97.0237 206.272 97.0733 206.439 97.1067C206.272 97.0736 206.107 97.0237 205.944 96.9728C205.272 96.7639 204.63 96.4159 204.033 95.951C202.356 94.6492 201.026 92.4911 200.331 90.3264C200.331 90.3264 200.331 90.3261 200.332 90.3261C200.941 92.2209 202.035 94.1093 203.423 95.4251C202.036 94.1093 200.941 92.2198 200.332 90.325C200.332 90.3254 200.331 90.3254 200.331 90.3261C200.331 90.3257 200.331 90.325 200.33 90.3247C200.305 90.3491 200.278 90.3686 200.249 90.385C200.216 90.4045 200.179 90.4185 200.142 90.4255C199.999 90.4509 199.846 90.3791 199.7 90.233C199.406 89.939 199.137 89.343 199.009 88.6287C198.967 88.3936 198.944 88.1656 198.938 87.9521C198.918 87.3122 199.055 86.8003 199.303 86.6217L199.303 86.6216ZM214.029 98.6653C213.997 98.9317 213.877 99.1937 213.685 99.4399C212.784 100.592 210.252 102.255 207.268 102.255C204.283 102.255 201.751 100.592 200.849 99.4399C200.657 99.194 200.537 98.9328 200.506 98.6643V98.6632C200.551 98.6486 200.655 98.6112 200.79 98.5488C200.846 98.5234 200.907 98.4944 200.972 98.4609C201.04 98.425 201.112 98.3839 201.186 98.3389C201.705 98.0163 202.319 97.4433 202.319 96.5254H202.32C203.182 97.3799 204.139 98.0564 205.162 98.4607C205.851 98.733 206.568 98.8847 207.305 98.8847C208.043 98.8847 208.762 98.7334 209.449 98.4607C210.463 98.0561 211.412 97.3886 212.267 96.5488C212.273 96.552 212.278 96.5548 212.285 96.5572C212.306 97.911 213.664 98.5049 214.032 98.6406C214.03 98.65 214.03 98.6553 214.029 98.6654L214.029 98.6653Z" fill="#1C284C"/>
</svg>
