<svg width="67" height="60" viewBox="0 0 67 60" fill="none" xmlns="http://www.w3.org/2000/svg">
<path d="M43.4251 30.0069L54.136 30.0069V38.5783C54.136 43.3097 50.296 47.1497 45.5646 47.1497H44.4949C42.712 47.1497 41.2857 48.576 41.2857 50.3588V56.7908C41.2857 58.5737 42.712 60 44.4949 60H45.5646C57.4137 60.0137 67 50.4137 67 38.5783V6.432C67 2.88 64.12 3.8147e-06 60.568 3.8147e-06H43.4251C39.8731 3.8147e-06 36.9932 2.88 36.9932 6.432L36.9932 23.5749C36.9932 27.1269 39.8731 30.0069 43.4251 30.0069Z" fill="white"/>
<path d="M6.53355 30.0069L17.2444 30.0069L17.2444 38.5783C17.2444 43.3097 13.4044 47.1497 8.67298 47.1497H7.60326C5.8204 47.1497 4.39412 48.576 4.39412 50.3588V56.7908C4.39412 58.5737 5.8204 60 7.60326 60H8.67298C20.5221 60.0137 30.1084 50.4137 30.1084 38.5783L30.1084 6.432C30.1084 2.88 27.2284 3.8147e-06 23.6764 3.8147e-06H6.53355C2.98155 3.8147e-06 0.101549 2.88 0.101549 6.432L0.101549 23.5749C0.101549 27.1269 2.98155 30.0069 6.53355 30.0069Z" fill="white"/>
</svg>
