<svg width="67" height="60" viewBox="0 0 67 60" fill="none" xmlns="http://www.w3.org/2000/svg">
<path d="M23.5749 29.9931H12.864V21.4217C12.864 16.6903 16.704 12.8503 21.4354 12.8503H22.5051C24.288 12.8503 25.7143 11.424 25.7143 9.64116V3.20916C25.7143 1.4263 24.288 1.46756e-05 22.5051 1.46756e-05H21.4354C9.58628 -0.0136996 0 9.5863 0 21.4217V53.568C0 57.12 2.88 60 6.432 60H23.5749C27.1269 60 30.0068 57.12 30.0068 53.568V36.4251C30.0068 32.8731 27.1269 29.9931 23.5749 29.9931Z" fill="#1C284C"/>
<path d="M60.4665 29.9931H49.7556V21.4217C49.7556 16.6903 53.5956 12.8503 58.327 12.8503H59.3967C61.1796 12.8503 62.6059 11.424 62.6059 9.64116V3.20916C62.6059 1.4263 61.1796 1.46756e-05 59.3967 1.46756e-05H58.327C46.4779 -0.0136996 36.8916 9.5863 36.8916 21.4217V53.568C36.8916 57.12 39.7716 60 43.3236 60H60.4665C64.0185 60 66.8985 57.12 66.8985 53.568V36.4251C66.8985 32.8731 64.0185 29.9931 60.4665 29.9931Z" fill="#1C284C"/>
</svg>
