<svg width="367" height="393" viewBox="0 0 367 393" fill="none" xmlns="http://www.w3.org/2000/svg">
<g opacity="0.03">
<path d="M429.639 276.328L234.357 389.02C225.095 394.326 213.71 394.326 204.544 389.02L14.9549 279.512C5.69249 274.205 0 264.364 0 253.654V48.5314C0 43.7073 5.21008 40.7163 9.35885 43.1284L55.7672 69.8541C60.3984 72.5557 63.1964 77.4763 63.1964 82.7829V225.867C63.1964 231.174 65.9944 236.094 70.6255 238.796L211.973 320.42C216.604 323.122 222.297 323.122 226.928 320.42L368.276 238.796C372.907 236.094 378.599 236.094 383.23 238.796L429.639 265.618C433.788 267.934 433.788 273.916 429.639 276.328Z" fill="#00A29A"/>
<path d="M253.696 22.8647L300.104 49.5905C304.735 52.292 307.533 57.2127 307.533 62.5192V225.768C307.533 231.075 304.735 235.996 300.104 238.697L253.696 265.519C249.547 267.931 244.337 264.941 244.337 260.116V28.2678C244.433 23.4436 249.547 20.4526 253.696 22.8647Z" fill="#1C284C"/>
<path d="M185.283 23.0614L138.874 49.7872C134.243 52.4887 131.445 57.4093 131.445 62.7159V225.676C131.445 230.982 134.34 235.903 138.874 238.604L185.283 265.33C189.432 267.742 194.642 264.751 194.642 259.927V28.368C194.642 23.6403 189.432 20.6493 185.283 23.0614Z" fill="#1C284C"/>
<path d="M429.657 22.8661L383.248 49.6883C378.617 52.3899 372.925 52.3899 368.294 49.6883L226.946 -31.9363C222.315 -34.6378 216.622 -34.6378 211.991 -31.9363L70.6437 49.6883C66.0125 52.3899 60.32 52.3899 55.6888 49.6883L9.28052 22.8661C5.13175 20.454 5.13175 14.4721 9.28052 12.06L211.991 -104.974C216.622 -107.675 222.315 -107.675 226.946 -104.974L429.657 12.06C433.806 14.4721 433.806 20.454 429.657 22.8661Z" fill="#1C284C"/>
<path d="M253.696 22.8647L300.104 49.5905C304.735 52.292 307.533 57.2127 307.533 62.5192V225.768C307.533 231.075 304.735 235.996 300.104 238.697L253.696 265.519C249.547 267.931 244.337 264.941 244.337 260.116V28.2678C244.433 23.4436 249.547 20.4526 253.696 22.8647Z" fill="#1C284C"/>
<path d="M185.283 23.0614L138.874 49.7872C134.243 52.4887 131.445 57.4093 131.445 62.7159V225.676C131.445 230.982 134.34 235.903 138.874 238.604L185.283 265.33C189.432 267.742 194.642 264.751 194.642 259.927V28.368C194.642 23.6403 189.432 20.6493 185.283 23.0614Z" fill="#1C284C"/>
<path d="M429.657 22.8661L383.248 49.6883C378.617 52.3899 372.925 52.3899 368.294 49.6883L226.946 -31.9363C222.315 -34.6378 216.622 -34.6378 211.991 -31.9363L70.6437 49.6883C66.0125 52.3899 60.32 52.3899 55.6888 49.6883L9.28052 22.8661C5.13175 20.454 5.13175 14.4721 9.28052 12.06L211.991 -104.974C216.622 -107.675 222.315 -107.675 226.946 -104.974L429.657 12.06C433.806 14.4721 433.806 20.454 429.657 22.8661Z" fill="#1C284C"/>
</g>
</svg>
