<svg width="218" height="242" viewBox="0 0 218 242" fill="none" xmlns="http://www.w3.org/2000/svg">
<path d="M79 13.3205C93.641 4.86751 100.962 0.641016 109 0.641016C117.038 0.641016 124.359 4.86751 139 13.3205L187.253 41.1795C201.894 49.6325 209.215 53.859 213.234 60.8205C217.253 67.782 217.253 76.235 217.253 93.141V148.859C217.253 165.765 217.253 174.218 213.234 181.179C209.215 188.141 201.894 192.368 187.253 200.821L139 228.679C124.359 237.132 117.038 241.359 109 241.359C100.962 241.359 93.641 237.132 79 228.679L30.7468 200.821C16.1058 192.368 8.7853 188.141 4.76606 181.179C0.746826 174.218 0.746826 165.765 0.746826 148.859V93.141C0.746826 76.235 0.746826 67.782 4.76606 60.8205C8.7853 53.859 16.1058 49.6325 30.7468 41.1795L79 13.3205Z" fill="#1A1B24"/>
</svg>
