<svg width="62" height="68" viewBox="0 0 62 68" fill="none" xmlns="http://www.w3.org/2000/svg">
<path d="M26 1.88675C29.094 0.100424 32.906 0.100423 36 1.88675L56.3109 13.6132C59.4049 15.3996 61.3109 18.7008 61.3109 22.2735V45.7265C61.3109 49.2992 59.4049 52.6004 56.3109 54.3868L36 66.1133C32.906 67.8996 29.094 67.8996 26 66.1133L5.68911 54.3868C2.5951 52.6004 0.689112 49.2992 0.689112 45.7265V22.2735C0.689112 18.7008 2.5951 15.3996 5.68911 13.6132L26 1.88675Z" fill="white"/>
<path d="M26.25 2.31976C29.1893 0.622753 32.8107 0.622752 35.75 2.31976L56.0609 14.0463C59.0002 15.7433 60.8109 18.8795 60.8109 22.2735V45.7265C60.8109 49.1205 59.0002 52.2567 56.0609 53.9537L35.75 65.6802C32.8107 67.3772 29.1893 67.3772 26.25 65.6802L5.93911 53.9537C2.9998 52.2567 1.18911 49.1205 1.18911 45.7265V22.2735C1.18911 18.8795 2.9998 15.7433 5.93911 14.0463L26.25 2.31976Z" stroke="#1C284C" stroke-opacity="0.1"/>
</svg>
