<svg width="68" height="18" viewBox="0 0 68 18" fill="none" xmlns="http://www.w3.org/2000/svg">
<path d="M66 9.6C66.3314 9.6 66.6 9.33137 66.6 9C66.6 8.66863 66.3314 8.4 66 8.4V9.6ZM1.57574 8.57574C1.34142 8.81005 1.34142 9.18995 1.57574 9.42426L5.39411 13.2426C5.62843 13.477 6.00833 13.477 6.24264 13.2426C6.47696 13.0083 6.47696 12.6284 6.24264 12.3941L2.84853 9L6.24264 5.60589C6.47696 5.37157 6.47696 4.99167 6.24264 4.75736C6.00833 4.52304 5.62843 4.52304 5.39411 4.75736L1.57574 8.57574ZM60.6667 8.4C60.3353 8.4 60.0667 8.66863 60.0667 9C60.0667 9.33137 60.3353 9.6 60.6667 9.6V8.4ZM50 9.6C50.3314 9.6 50.6 9.33137 50.6 9C50.6 8.66863 50.3314 8.4 50 8.4V9.6ZM39.3333 8.4C39.002 8.4 38.7333 8.66863 38.7333 9C38.7333 9.33137 39.002 9.6 39.3333 9.6V8.4ZM28.6667 9.6C28.998 9.6 29.2667 9.33137 29.2667 9C29.2667 8.66863 28.998 8.4 28.6667 8.4V9.6ZM18 8.4C17.6686 8.4 17.4 8.66863 17.4 9C17.4 9.33137 17.6686 9.6 18 9.6V8.4ZM7.33333 9.6C7.6647 9.6 7.93333 9.33137 7.93333 9C7.93333 8.66863 7.6647 8.4 7.33333 8.4V9.6ZM66 8.4H60.6667V9.6H66V8.4ZM50 8.4L39.3333 8.4V9.6L50 9.6V8.4ZM28.6667 8.4H18V9.6H28.6667V8.4ZM7.33333 8.4H2V9.6H7.33333V8.4ZM66 10.2C66.6627 10.2 67.2 9.66274 67.2 9C67.2 8.33726 66.6627 7.8 66 7.8V10.2ZM1.15147 8.15147C0.682846 8.6201 0.682846 9.3799 1.15147 9.84853L8.78823 17.4853C9.25686 17.9539 10.0167 17.9539 10.4853 17.4853C10.9539 17.0167 10.9539 16.2569 10.4853 15.7882L3.69706 9L10.4853 2.21177C10.9539 1.74315 10.9539 0.983348 10.4853 0.514718C10.0167 0.0460892 9.25686 0.0460892 8.78823 0.514718L1.15147 8.15147ZM60.6667 7.8C60.0039 7.8 59.4667 8.33726 59.4667 9C59.4667 9.66274 60.0039 10.2 60.6667 10.2V7.8ZM50 10.2C50.6627 10.2 51.2 9.66274 51.2 9C51.2 8.33726 50.6627 7.8 50 7.8V10.2ZM39.3333 7.8C38.6706 7.8 38.1333 8.33726 38.1333 9C38.1333 9.66274 38.6706 10.2 39.3333 10.2V7.8ZM28.6667 10.2C29.3294 10.2 29.8667 9.66274 29.8667 9C29.8667 8.33726 29.3294 7.8 28.6667 7.8V10.2ZM18 7.8C17.3373 7.8 16.8 8.33726 16.8 9C16.8 9.66274 17.3373 10.2 18 10.2V7.8ZM7.33333 10.2C7.99607 10.2 8.53333 9.66274 8.53333 9C8.53333 8.33726 7.99607 7.8 7.33333 7.8V10.2ZM66 7.8L60.6667 7.8V10.2H66V7.8ZM50 7.8L39.3333 7.8V10.2L50 10.2V7.8ZM28.6667 7.8L18 7.8V10.2H28.6667V7.8ZM7.33333 7.8L2 7.8V10.2H7.33333V7.8Z" fill="#CED6DB"/>
</svg>
