<svg width="219" height="60" viewBox="0 0 219 60" fill="none" xmlns="http://www.w3.org/2000/svg">
<path d="M184.219 42.8731V17.2395C184.219 16.9848 184.427 16.7764 184.682 16.7764H188.514C188.769 16.7764 188.977 16.9848 188.977 17.2395V42.8731C188.977 43.1279 188.769 43.3363 188.514 43.3363H184.682C184.427 43.3363 184.219 43.1279 184.219 42.8731Z" fill="#00A29A"/>
<path d="M193.16 42.8731V17.2395C193.16 16.9848 193.369 16.7764 193.623 16.7764H197.456C197.71 16.7764 197.919 16.9848 197.919 17.2395V42.8731C197.919 43.1279 197.71 43.3363 197.456 43.3363H193.623C193.369 43.3363 193.16 43.1279 193.16 42.8731Z" fill="#00A29A"/>
<path d="M218.045 38.5312V40.0248C218.045 41.8541 216.563 43.3361 214.733 43.3361H203.213C202.6 43.3361 202.113 42.8383 202.113 42.2362V39.6427C202.113 39.0291 202.611 38.5428 203.213 38.5428H218.045V38.5312Z" fill="#00A29A"/>
<path d="M213.244 35.6133V36.7132C213.244 36.0996 212.747 35.6133 212.145 35.6133H213.244Z" fill="#00A29A"/>
<path d="M213.244 37.4312V38.5311H212.145C212.758 38.5311 213.244 38.0448 213.244 37.4312Z" fill="#00A29A"/>
<path d="M208.018 30.8084H206.918V29.7085C206.907 30.3106 207.404 30.8084 208.018 30.8084Z" fill="#00A29A"/>
<path d="M213.239 27.8906H207.948C207.369 27.9138 206.895 28.4001 206.895 28.9905V27.8906H213.239Z" fill="#00A29A"/>
<path d="M218.033 34.1199V35.6135H205.401C203.572 35.6135 202.09 34.1315 202.09 32.3022V30.8086H214.721C216.551 30.8086 218.033 32.2906 218.033 34.1199Z" fill="#00A29A"/>
<path d="M218.039 25.2056V26.7918C218.039 27.4054 217.542 27.8917 216.939 27.8917H213.246V25.2056H218.039Z" fill="#00A29A"/>
<path d="M218.039 34.1199V40.0247C218.039 41.854 216.557 43.336 214.728 43.336H213.234V30.8086H214.728C216.557 30.8086 218.039 32.2906 218.039 34.1199Z" fill="#00A29A"/>
<path d="M206.895 25.2056V35.6142H205.401C203.572 35.6142 202.09 34.1322 202.09 32.3029V25.2056H206.895Z" fill="#00A29A"/>
<path d="M206.907 38.5312V43.3361H203.213C202.6 43.3361 202.113 42.8383 202.113 42.2362V39.6427C202.113 39.0291 202.611 38.5428 203.213 38.5428H206.907V38.5312Z" fill="#00A29A"/>
<path d="M218.045 24.1857V26.7792C218.045 27.3928 217.547 27.8791 216.945 27.8791H202.113V25.2856C202.113 25.2509 202.113 25.2277 202.113 25.193C202.16 24.012 203.132 23.0742 204.313 23.0742H216.945C217.558 23.0858 218.045 23.5837 218.045 24.1857Z" fill="#00A29A"/>
<path d="M146.872 17.8299V42.2131C146.872 42.491 146.768 42.7457 146.606 42.9425C146.397 43.1741 146.108 43.3246 145.772 43.3246H145.425C143.769 43.3246 142.391 42.1089 142.16 40.5227C142.137 40.3606 142.125 40.1986 142.125 40.0249V20.0413C142.125 18.212 143.607 16.73 145.436 16.73H145.784C146.085 16.73 146.363 16.8573 146.571 17.0542C146.745 17.251 146.872 17.5289 146.872 17.8299Z" fill="#00A29A"/>
<path d="M147.973 38.5784C147.36 38.5784 146.873 38.0805 146.873 37.4785V22.5892C146.873 22.0218 147.302 21.5471 147.869 21.4893H146.873H146.098V38.5668H146.873H159.1L147.973 38.5784Z" fill="#00A29A"/>
<path d="M160.094 17.8299V20.3886C160.094 20.9907 159.596 21.4885 158.994 21.4885H143.213C142.6 21.4885 142.113 20.9907 142.113 20.3886V20.0413C142.113 18.212 143.595 16.73 145.425 16.73H158.994C159.596 16.73 160.094 17.2278 160.094 17.8299Z" fill="#00A29A"/>
<path d="M147.972 38.5776H146.872H146.096H143.213C142.6 38.5776 142.113 39.0755 142.113 39.6775V40.0249C142.113 40.1986 142.125 40.3606 142.148 40.5227C142.16 40.5922 142.171 40.6733 142.194 40.7427C142.206 40.8122 142.229 40.8932 142.252 40.9627C142.264 41.009 142.275 41.0553 142.299 41.1016C142.31 41.1479 142.333 41.1943 142.345 41.2406C142.356 41.2869 142.38 41.3332 142.403 41.3795C142.414 41.4258 142.437 41.4721 142.461 41.5069C142.484 41.5532 142.507 41.5995 142.53 41.6342C142.553 41.6805 142.576 41.7153 142.6 41.7616C143.178 42.711 144.22 43.3478 145.413 43.3478H158.982C159.596 43.3478 160.082 42.8499 160.082 42.2479V39.7007C160.082 39.1334 159.654 38.6587 159.087 38.6008L147.972 38.5776Z" fill="#00A29A"/>
<path d="M168.915 23.1669V43.3241H167.468C165.638 43.3241 164.156 41.8421 164.156 40.0128V26.4666C164.156 24.6373 165.638 23.1553 167.468 23.1553H168.915V23.1669Z" fill="#00A29A"/>
<path d="M180.095 26.4783V32.3252C180.095 33.0546 179.863 33.7377 179.458 34.2819C178.856 35.1039 177.883 35.6249 176.795 35.6249H175.348V23.167H176.795C178.613 23.167 180.095 24.649 180.095 26.4783Z" fill="#00A29A"/>
<path d="M180.083 39.7111V42.2235C180.083 42.8371 179.585 43.3234 178.983 43.3234H175.324V38.5996H178.983C179.596 38.6112 180.083 39.109 180.083 39.7111Z" fill="#00A29A"/>
<path d="M180.088 26.4783V27.8908H175.04C174.843 27.6708 174.553 27.5319 174.229 27.5319H170.015C169.691 27.5319 169.401 27.6708 169.204 27.8908H164.156V26.4783C164.156 24.649 165.638 23.167 167.468 23.167H176.788C178.606 23.167 180.088 24.649 180.088 26.4783Z" fill="#00A29A"/>
<path d="M180.088 30.8778V32.325C180.088 33.0545 179.856 33.7376 179.451 34.2817C178.849 35.1038 177.876 35.6248 176.788 35.6248H164.156V30.8662H180.088V30.8778Z" fill="#00A29A"/>
<path d="M180.088 39.7116V42.224C180.088 42.8376 179.59 43.3239 178.988 43.3239H167.468C167.063 43.3239 166.681 43.2544 166.333 43.1271C166.183 43.0692 166.032 42.9997 165.893 42.9303C165.801 42.8724 165.708 42.8261 165.615 42.7682C165.488 42.6755 165.361 42.5829 165.245 42.4787C165.164 42.4093 165.094 42.3282 165.025 42.2587C164.921 42.143 164.816 42.0156 164.735 41.8882C164.678 41.7956 164.62 41.7146 164.573 41.6104C164.504 41.4714 164.434 41.3209 164.377 41.1704C164.249 40.8231 164.18 40.4294 164.18 40.0358V38.6232H179.011C179.602 38.6117 180.088 39.1095 180.088 39.7116Z" fill="#00A29A"/>
<path d="M168.915 30.8779V28.6434C168.915 28.3539 169.03 28.0992 169.204 27.9024C169.401 27.6824 169.69 27.5435 170.015 27.5435H174.229C174.553 27.5435 174.843 27.6824 175.039 27.9024C175.213 28.0992 175.329 28.3539 175.329 28.6434V30.8779H168.915ZM176.776 23.167H167.456C165.627 23.167 164.145 24.649 164.145 26.4783V40.0245C164.145 40.4298 164.214 40.8118 164.341 41.1592C164.399 41.3097 164.469 41.4602 164.538 41.5991C164.596 41.6918 164.642 41.7844 164.7 41.877C164.793 42.0044 164.886 42.1317 164.99 42.2475C165.059 42.3286 165.14 42.398 165.21 42.4675C165.325 42.5717 165.453 42.6759 165.58 42.7569C165.673 42.8148 165.754 42.8727 165.858 42.919C165.997 42.9885 166.148 43.058 166.298 43.1159C166.645 43.2432 167.039 43.3127 167.433 43.3127H176.753C177.158 43.3127 177.563 43.2432 177.922 43.1043C178.964 42.7106 179.752 41.8075 179.995 40.7076C180.041 40.4877 180.064 40.2445 180.064 40.013V39.7119C180.064 39.0983 179.566 38.612 178.964 38.612H169.991C169.378 38.612 168.892 38.1142 168.892 37.5121V35.6365H176.765C177.864 35.6365 178.825 35.1039 179.427 34.2934C179.833 33.7493 180.064 33.0662 180.064 32.3368V26.4899C180.087 24.649 178.605 23.167 176.776 23.167Z" fill="#00A29A"/>
<path d="M176.498 31.538H167.803V28.1572C167.803 28.0646 167.803 27.9836 167.826 27.891C167.908 27.231 168.336 26.6753 168.915 26.3974C169.17 26.27 169.459 26.2006 169.772 26.2006H174.542C174.831 26.2006 175.097 26.2585 175.341 26.3742C175.954 26.6405 176.394 27.2194 176.487 27.9025C176.498 27.9952 176.51 28.0762 176.51 28.1688V31.538H176.498ZM178.42 34.6409C178.814 34.6409 179.173 34.502 179.451 34.2936C179.856 33.7494 180.088 33.0663 180.088 32.3369V27.9025C180.076 25.2859 177.957 23.1787 175.352 23.1787H168.892C166.275 23.1787 164.156 25.2859 164.156 27.9025V38.3922C164.156 38.4732 164.156 38.5543 164.156 38.6237C164.272 41.1362 166.356 43.1276 168.892 43.1276H175.352C177.297 43.1276 178.976 41.9582 179.705 40.2794C179.509 40.1173 179.266 40.0131 178.999 40.0131H169.783C169.482 40.0131 169.181 39.9436 168.926 39.8163C168.44 39.5847 168.058 39.1447 167.908 38.6237C167.85 38.4385 167.826 38.2532 167.826 38.0448V34.6409H178.42Z" fill="#00A29A"/>
<path d="M180.095 41.1126V42.0157C180.095 42.6293 179.597 43.1156 178.995 43.1156H170.682C170.068 43.1156 169.582 42.6177 169.582 42.0157V41.1126C169.582 40.499 170.08 40.0127 170.682 40.0127H178.995C179.261 40.0127 179.516 40.1169 179.701 40.279C179.84 40.3948 179.956 40.5569 180.025 40.7305C180.072 40.8463 180.095 40.9737 180.095 41.1126Z" fill="#00A29A"/>
<path d="M160.014 18.0152V18.9183C160.014 19.2772 159.864 19.6014 159.621 19.8214C159.401 20.0298 159.1 20.1571 158.776 20.1571H147.336C146.653 20.1571 146.098 19.6014 146.098 18.9183V18.0152C146.098 17.3321 146.653 16.7764 147.336 16.7764H158.776C159.447 16.7764 160.014 17.3205 160.014 18.0152Z" fill="#00A29A"/>
<path d="M160.014 41.0435V41.9466C160.014 42.6297 159.459 43.1855 158.776 43.1855H147.336C147.174 43.1855 147.024 43.1507 146.885 43.1044C146.422 42.9307 146.098 42.4792 146.098 41.9466V41.0435C146.098 40.3604 146.653 39.8047 147.336 39.8047H158.776C159.088 39.8047 159.378 39.9205 159.598 40.1173C159.852 40.3489 160.014 40.673 160.014 41.0435Z" fill="#00A29A"/>
<path d="M212.193 31.5266H207.77C207.689 31.5266 207.608 31.5266 207.527 31.5151H211.614C211.811 31.5035 212.008 31.515 212.193 31.5266Z" fill="#00A29A"/>
<path d="M205.76 28.2266V29.5001C205.76 30.5306 206.536 31.3873 207.532 31.5031H211.619C211.816 31.5031 212.012 31.5031 212.198 31.5147C214.374 31.6189 215.868 32.3252 216.829 33.2514C215.995 34.1198 214.826 34.6523 213.541 34.6523H208.284C205.899 34.6523 204.255 33.9808 203.271 32.9156C202.484 32.0705 202.113 30.9821 202.113 29.7896V28.2497C202.113 25.4015 204.371 23.0859 208.284 23.0859H213.541C215.359 23.0859 216.945 24.1511 217.674 25.7026C217.454 26.0152 217.084 26.212 216.667 26.212H207.775C206.663 26.212 205.76 27.1151 205.76 28.2266Z" fill="#00A29A"/>
<path d="M218.037 35.2425V39.3758C217.574 41.2746 216.126 42.7682 213.232 43.0229C212.827 43.0576 212.398 43.0692 211.947 43.0576H206.621C204.768 43.0576 203.171 41.9924 202.418 40.441C202.603 40.1979 202.881 40.0242 203.194 39.9663H212.502C212.757 39.9663 213.012 39.92 213.243 39.8274C213.822 39.5958 214.262 39.1211 214.436 38.519C214.494 38.3454 214.517 38.1486 214.517 37.9633V36.655C214.517 36.2729 214.413 35.914 214.216 35.6014C213.996 35.2309 213.649 34.9415 213.243 34.7794C213.012 34.6867 212.769 34.6404 212.502 34.6404H208.276C207.79 34.6404 207.339 34.6173 206.91 34.5594C205.255 34.351 204.05 33.7489 203.263 32.9037C204.108 32.0354 205.301 31.4912 206.621 31.4912H211.611C211.808 31.4912 212.005 31.4912 212.19 31.5028C212.56 31.5144 212.908 31.5607 213.243 31.607C214.864 31.8501 216.034 32.4638 216.821 33.2395C217.446 33.8647 217.84 34.5594 218.037 35.2425Z" fill="#00A29A"/>
<path d="M212.777 41.2055V41.8307C212.777 42.4675 212.291 43.0001 211.666 43.0696C211.62 43.0696 211.585 43.0696 211.538 43.0696H203.411C202.728 43.0696 202.172 42.5138 202.172 41.8307V41.2055C202.172 40.9276 202.264 40.6613 202.427 40.4529C202.612 40.2098 202.89 40.0361 203.202 39.9782C203.272 39.9667 203.341 39.9551 203.422 39.9551H211.55C211.62 39.9551 211.689 39.9551 211.758 39.9782C212.326 40.0824 212.777 40.5919 212.777 41.2055Z" fill="#00A29A"/>
<path d="M217.91 24.3253V24.9621C217.91 25.2399 217.817 25.4831 217.679 25.6915C217.459 26.0041 217.088 26.2009 216.671 26.2009H208.544C207.86 26.2009 207.305 25.6452 207.305 24.9621V24.3253C207.305 23.6422 207.86 23.0864 208.544 23.0864H216.671C217.354 23.0864 217.91 23.6422 217.91 24.3253Z" fill="#00A29A"/>
<path d="M66.3281 42.8733V18.9416C66.3281 18.6869 66.5365 18.4785 66.7912 18.4785H70.6236C70.8783 18.4785 71.0867 18.6869 71.0867 18.9416V42.8733C71.0867 43.128 70.8783 43.3364 70.6236 43.3364H66.7912C66.5365 43.3364 66.3281 43.128 66.3281 42.8733Z" fill="#1C284C"/>
<path d="M126.786 17.8416V42.2248C126.786 42.8385 126.288 43.3247 125.686 43.3247H123.139C122.525 43.3247 122.039 42.8269 122.039 42.2248V17.8416C122.039 17.228 122.537 16.7417 123.139 16.7417H125.686C126.288 16.7417 126.786 17.2396 126.786 17.8416Z" fill="#1C284C"/>
<path d="M137.977 26.2357V42.2365C137.977 42.8501 137.479 43.3364 136.877 43.3364H134.319C133.705 43.3364 133.219 42.8385 133.219 42.2365V23.1328H134.678C136.426 23.1328 137.862 24.499 137.977 26.2357Z" fill="#1C284C"/>
<path d="M135.59 26.0387V43.3247H134.316C133.703 43.3247 133.216 42.8268 133.216 42.2247V29.0027C133.216 28.3891 132.719 27.9028 132.117 27.9028H129.176V24.9504H134.49C135.092 24.9388 135.59 25.4367 135.59 26.0387Z" fill="#1C284C"/>
<path d="M137.97 26.4441V27.8914H122.027V23.1328H134.659C136.419 23.1328 137.854 24.499 137.959 26.2241C137.97 26.3052 137.97 26.3746 137.97 26.4441Z" fill="#1C284C"/>
<path d="M106.712 23.1328V43.3364H105.241C103.539 43.3364 102.127 42.0397 101.953 40.384V26.0852C102.127 24.4295 103.539 23.1328 105.241 23.1328H106.712Z" fill="#1C284C"/>
<path d="M117.896 39.678V42.2368C117.896 42.8504 117.398 43.3367 116.796 43.3367H105.253C103.551 43.3367 102.138 42.0399 101.965 40.3843C101.953 40.2685 101.941 40.1412 101.941 40.0254V38.5781H116.796C117.398 38.5781 117.896 39.0644 117.896 39.678Z" fill="#1C284C"/>
<path d="M117.907 24.2437V26.8024C117.907 27.4045 117.41 27.9023 116.808 27.9023H101.941V26.4551C101.941 26.3393 101.941 26.2119 101.965 26.0961C102.138 24.4405 103.551 23.1438 105.253 23.1438H116.796C117.41 23.1322 117.907 23.63 117.907 24.2437Z" fill="#1C284C"/>
<path d="M106.711 29.0029V37.4779C106.711 38.0916 107.209 38.5778 107.811 38.5778H116.784C117.386 38.5778 117.884 39.0757 117.884 39.6778V40.0251C117.884 40.2682 117.861 40.5114 117.803 40.7545C117.56 41.8428 116.773 42.7343 115.742 43.128C115.383 43.2669 114.99 43.3364 114.573 43.3364H105.229C103.527 43.3364 102.115 42.0397 101.941 40.384C101.93 40.2682 101.918 40.1409 101.918 40.0251V26.4441C101.918 26.3283 101.918 26.201 101.941 26.0852C102.115 24.4295 103.527 23.1328 105.229 23.1328H114.573C116.402 23.1328 117.884 24.6148 117.884 26.4441V26.7915C117.884 27.3935 117.386 27.8914 116.784 27.8914H107.811C107.209 27.8914 106.711 28.3892 106.711 29.0029Z" fill="#1C284C"/>
<path d="M60.1819 16.7417H77.2362C77.491 16.7417 77.6994 16.9501 77.6994 17.2048V21.0371C77.6994 21.2918 77.491 21.5003 77.2362 21.5003H60.1819C59.9272 21.5003 59.7188 21.2918 59.7188 21.0371V17.2048C59.7188 16.9501 59.9272 16.7417 60.1819 16.7417Z" fill="#1C284C"/>
<path d="M112.362 40.0136C112.327 40.0136 112.292 40.0136 112.257 40.0136H107.58C107.279 40.0136 106.989 39.9442 106.723 39.8284C106.202 39.5968 105.797 39.1337 105.635 38.578C105.577 38.3927 105.542 38.1843 105.542 37.9875V28.2967C105.542 28.1694 105.554 28.0304 105.577 27.9031C105.704 27.2547 106.133 26.7105 106.723 26.4443C106.978 26.3169 107.267 26.259 107.58 26.259H116.784C117.051 26.259 117.305 26.1548 117.491 25.9927C116.761 24.3139 115.094 23.1445 113.137 23.1445H106.688C104.211 23.1445 102.173 25.0433 101.965 27.4631C101.953 27.6021 101.941 27.741 101.941 27.8799V38.3812C101.941 38.439 101.941 38.5085 101.941 38.578C101.941 38.6475 101.941 38.7285 101.953 38.798C102.161 41.2178 104.199 43.1166 106.677 43.1166H113.126C115.071 43.1166 116.75 41.9472 117.479 40.2684C117.282 40.1063 117.039 40.0021 116.773 40.0021H112.362V40.0136Z" fill="#1C284C"/>
<path d="M86.614 23.1678V43.3251H85.1668C83.3375 43.3251 81.8555 41.8431 81.8555 40.0138V26.4676C81.8555 24.6382 83.3375 23.1562 85.1668 23.1562H86.614V23.1678Z" fill="#1C284C"/>
<path d="M97.7938 26.4793V32.3262C97.7938 33.0556 97.5623 33.7387 97.1571 34.2828C96.555 35.1049 95.5825 35.6259 94.4941 35.6259H93.0469V23.168H94.4941C96.3119 23.168 97.7938 24.65 97.7938 26.4793Z" fill="#1C284C"/>
<path d="M97.782 39.7248V42.2372C97.782 42.8508 97.2841 43.3371 96.6821 43.3371H93.0234V38.6133H96.6821C97.2957 38.6133 97.782 39.1111 97.782 39.7248Z" fill="#1C284C"/>
<path d="M97.7868 26.4793V27.8918H92.7388C92.5419 27.6718 92.2525 27.5329 91.9283 27.5329H87.7139C87.3897 27.5329 87.1003 27.6718 86.9035 27.8918H81.8555V26.4793C81.8555 24.65 83.3375 23.168 85.1668 23.168H94.4871C96.3048 23.168 97.7868 24.65 97.7868 26.4793Z" fill="#1C284C"/>
<path d="M97.7868 30.8788V32.326C97.7868 33.0554 97.5552 33.7385 97.15 34.2827C96.5479 35.1047 95.5754 35.6257 94.4871 35.6257H81.8555V30.8672H97.7868V30.8788Z" fill="#1C284C"/>
<path d="M97.7871 39.7244V42.2368C97.7871 42.8504 97.2892 43.3367 96.6871 43.3367H85.1671C84.7618 43.3367 84.3798 43.2672 84.0324 43.1399C83.8819 43.082 83.7314 43.0125 83.5924 42.943C83.4998 42.8852 83.4072 42.8388 83.3146 42.7809C83.1872 42.6883 83.0599 42.5957 82.9441 42.4915C82.863 42.422 82.7936 42.341 82.7241 42.2715C82.6199 42.1557 82.5157 42.0284 82.4346 41.901C82.3768 41.8084 82.3189 41.7274 82.2726 41.6231C82.2031 41.4842 82.1336 41.3337 82.0757 41.1832C81.9484 40.8358 81.8789 40.4422 81.8789 40.0485V38.636H96.7103C97.3008 38.6129 97.7871 39.1107 97.7871 39.7244Z" fill="#1C284C"/>
<path d="M86.6139 30.8789V28.6444C86.6139 28.3549 86.7297 28.1002 86.9033 27.9034C87.1002 27.6834 87.3896 27.5444 87.7138 27.5444H91.9282C92.2524 27.5444 92.5418 27.6834 92.7386 27.9034C92.9123 28.1002 93.0281 28.3549 93.0281 28.6444V30.8789H86.6139ZM94.4753 23.168H85.1551C83.3257 23.168 81.8438 24.65 81.8438 26.4793V40.0255C81.8438 40.4307 81.9132 40.8128 82.0406 41.1602C82.0985 41.3107 82.1679 41.4612 82.2374 41.6001C82.2953 41.6927 82.3416 41.7854 82.3995 41.878C82.4921 42.0053 82.5847 42.1327 82.6889 42.2485C82.7584 42.3295 82.8395 42.399 82.9089 42.4685C83.0247 42.5727 83.1521 42.6769 83.2794 42.7579C83.372 42.8158 83.4531 42.8737 83.5573 42.92C83.6962 42.9895 83.8467 43.0589 83.9973 43.1168C84.3446 43.2442 84.7382 43.3137 85.1319 43.3137H94.4522C94.8574 43.3137 95.2626 43.2442 95.6215 43.1053C96.6636 42.7116 97.4509 41.8085 97.694 40.7086C97.7403 40.4886 97.7635 40.2455 97.7635 40.0139V39.7129C97.7635 39.0993 97.2656 38.613 96.6636 38.613H87.6906C87.077 38.613 86.5907 38.1151 86.5907 37.5131V35.6375H94.4638C95.5637 35.6375 96.5246 35.1049 97.1267 34.2944C97.5319 33.7502 97.7635 33.0671 97.7635 32.3377V26.4908C97.7866 24.6499 96.3046 23.168 94.4753 23.168Z" fill="#1C284C"/>
<path d="M94.1976 31.539H85.5025V28.1582C85.5025 28.0656 85.5025 27.9846 85.5257 27.8919C85.6067 27.232 86.0351 26.6762 86.614 26.3984C86.8687 26.271 87.1582 26.2015 87.4708 26.2015H92.2409C92.5304 26.2015 92.7967 26.2594 93.0398 26.3752C93.6534 26.6415 94.0934 27.2204 94.186 27.9035C94.1976 27.9961 94.2092 28.0772 94.2092 28.1698V31.539H94.1976ZM96.1195 34.6419C96.5132 34.6419 96.8721 34.503 97.15 34.2946C97.5552 33.7504 97.7868 33.0673 97.7868 32.3379V27.9035C97.7752 25.2869 95.6564 23.1797 93.0514 23.1797H86.5909C83.9742 23.1797 81.8555 25.2869 81.8555 27.9035V38.3932C81.8555 38.4742 81.8555 38.5552 81.8555 38.6247C81.9712 41.1371 84.0553 43.1285 86.5909 43.1285H93.0514C94.9965 43.1285 96.6753 41.9592 97.4047 40.2804C97.2079 40.1183 96.9647 40.0141 96.6984 40.0141H87.4824C87.1813 40.0141 86.8803 39.9446 86.6256 39.8172C86.1393 39.5857 85.7573 39.1457 85.6067 38.6247C85.5488 38.4395 85.5257 38.2542 85.5257 38.0458V34.6419H96.1195Z" fill="#1C284C"/>
<path d="M97.7941 41.1136V42.0167C97.7941 42.6303 97.2962 43.1166 96.6941 43.1166H88.3812C87.7675 43.1166 87.2812 42.6187 87.2812 42.0167V41.1136C87.2812 40.4999 87.7791 40.0137 88.3812 40.0137H96.6941C96.9604 40.0137 97.2152 40.1179 97.4004 40.28C97.5393 40.3958 97.6551 40.5578 97.7246 40.7315C97.7709 40.8473 97.7941 40.9746 97.7941 41.1136Z" fill="#1C284C"/>
<path d="M117.868 41.1136V42.0167C117.868 42.6303 117.37 43.1166 116.768 43.1166H108.455C107.842 43.1166 107.355 42.6187 107.355 42.0167V41.1136C107.355 40.5463 107.784 40.0716 108.351 40.0137C108.386 40.0137 108.421 40.0137 108.467 40.0137H116.78C117.046 40.0137 117.301 40.1179 117.486 40.28C117.718 40.4768 117.868 40.7778 117.868 41.1136Z" fill="#1C284C"/>
<path d="M125.894 18.1774V41.9007C125.894 42.6995 125.258 43.3363 124.459 43.3363H123.463C122.676 43.3363 122.027 42.6995 122.027 41.9007V18.1774C122.027 17.3901 122.664 16.7417 123.463 16.7417H124.459C125.258 16.7417 125.894 17.3785 125.894 18.1774Z" fill="#1C284C"/>
<path d="M117.896 24.2443V26.803C117.896 27.4051 117.398 27.9029 116.796 27.9029H107.823C107.21 27.9029 106.723 28.4008 106.723 29.0029V37.4779C106.723 38.0916 107.221 38.5778 107.823 38.5778H116.796C117.398 38.5778 117.896 39.0757 117.896 39.6778V42.2365C117.896 42.8501 117.398 43.3364 116.796 43.3364H105.253C103.551 43.3364 102.139 42.0397 101.965 40.384V26.0852C102.139 24.4295 103.551 23.1328 105.253 23.1328H116.796C117.398 23.1328 117.896 23.6307 117.896 24.2443Z" fill="#1C284C"/>
<path d="M137.982 26.2356V42.2364C137.982 42.85 137.484 43.3363 136.882 43.3363H134.324C133.71 43.3363 133.224 42.8385 133.224 42.2364V29.0028C133.224 28.3891 132.726 27.9029 132.124 27.9029H126.809V42.2364C126.809 42.85 126.312 43.3363 125.71 43.3363H123.162C122.549 43.3363 122.062 42.8385 122.062 42.2364V17.8416C122.062 17.228 122.56 16.7417 123.162 16.7417H125.71C126.323 16.7417 126.809 17.2396 126.809 17.8416V23.1327H134.694C136.431 23.1327 137.866 24.4989 137.982 26.2356Z" fill="#1C284C"/>
<path d="M51.5568 45.9994L28.1229 59.5225C27.0114 60.1592 25.6452 60.1592 24.5453 59.5225L1.79459 46.3814C0.683101 45.7447 0 44.5637 0 43.2785V18.6638C0 18.0849 0.625211 17.7259 1.12306 18.0154L6.69207 21.2225C7.24782 21.5467 7.58358 22.1371 7.58358 22.7739V39.9441C7.58358 40.5809 7.91934 41.1714 8.47508 41.4955L25.4368 51.2905C25.9926 51.6147 26.6757 51.6147 27.2314 51.2905L44.1932 41.4955C44.7489 41.1714 45.432 41.1714 45.9877 41.4955L51.5568 44.7142C52.0546 44.9921 52.0546 45.7099 51.5568 45.9994Z" fill="#00A29A"/>
<path d="M30.4434 15.5842L36.0124 18.7913C36.5681 19.1155 36.9039 19.706 36.9039 20.3428V39.9327C36.9039 40.5695 36.5681 41.16 36.0124 41.4842L30.4434 44.7029C29.9455 44.9923 29.3203 44.6334 29.3203 44.0545V16.2326C29.3319 15.6537 29.9455 15.2948 30.4434 15.5842Z" fill="#1C284C"/>
<path d="M22.234 15.6073L16.6649 18.8145C16.1092 19.1386 15.7734 19.7291 15.7734 20.3659V39.9211C15.7734 40.5579 16.1208 41.1484 16.6649 41.4726L22.234 44.6797C22.7318 44.9691 23.357 44.6102 23.357 44.0313V16.2441C23.357 15.6768 22.7318 15.3179 22.234 15.6073Z" fill="#1C284C"/>
<path d="M51.5569 15.584L45.9879 18.8026C45.4322 19.1268 44.7491 19.1268 44.1933 18.8026L27.2316 9.00767C26.6759 8.68348 25.9928 8.68348 25.437 9.00767L8.47527 18.8026C7.91952 19.1268 7.23642 19.1268 6.68068 18.8026L1.11167 15.584C0.613818 15.2945 0.613818 14.5767 1.11167 14.2872L25.437 0.243138C25.9928 -0.0810459 26.6759 -0.0810459 27.2316 0.243138L51.5569 14.2872C52.0548 14.5767 52.0548 15.2945 51.5569 15.584Z" fill="#1C284C"/>
</svg>
