<svg width="52" height="60" viewBox="0 0 52 60" fill="none" xmlns="http://www.w3.org/2000/svg">
<path d="M51.5565 45.9993L28.1228 59.5223C27.0113 60.1591 25.6451 60.1591 24.5452 59.5223L1.79458 46.3813C0.683098 45.7445 0 44.5636 0 43.2784V18.6638C0 18.0849 0.625208 17.7259 1.12306 18.0154L6.69205 21.2225C7.24779 21.5467 7.58355 22.1371 7.58355 22.7739V39.944C7.58355 40.5808 7.91931 41.1713 8.47505 41.4954L25.4367 51.2904C25.9925 51.6146 26.6756 51.6146 27.2313 51.2904L44.193 41.4954C44.7487 41.1713 45.4318 41.1713 45.9876 41.4954L51.5565 44.7141C52.0544 44.992 52.0544 45.7098 51.5565 45.9993Z" fill="#00A29A"/>
<path d="M30.4434 15.5837L36.0124 18.7908C36.5681 19.115 36.9039 19.7055 36.9039 20.3423V39.9321C36.9039 40.5689 36.5681 41.1594 36.0124 41.4836L30.4434 44.7023C29.9455 44.9917 29.3203 44.6328 29.3203 44.0539V16.2321C29.3319 15.6532 29.9455 15.2943 30.4434 15.5837Z" fill="#1C284C"/>
<path d="M22.2339 15.6073L16.6649 18.8144C16.1092 19.1386 15.7734 19.7291 15.7734 20.3659V39.921C15.7734 40.5578 16.1208 41.1483 16.6649 41.4725L22.2339 44.6795C22.7318 44.969 23.357 44.6101 23.357 44.0312V16.2441C23.357 15.6768 22.7318 15.3179 22.2339 15.6073Z" fill="#1C284C"/>
<path d="M51.5587 15.5839L45.9897 18.8026C45.4339 19.1267 44.7509 19.1267 44.1951 18.8026L27.2334 9.00763C26.6777 8.68345 25.9946 8.68345 25.4389 9.00763L8.47719 18.8026C7.92145 19.1267 7.23835 19.1267 6.68261 18.8026L1.11362 15.5839C0.615772 15.2945 0.615772 14.5766 1.11362 14.2872L25.4389 0.243137C25.9946 -0.0810455 26.6777 -0.0810455 27.2334 0.243137L51.5587 14.2872C52.0565 14.5766 52.0565 15.2945 51.5587 15.5839Z" fill="#1C284C"/>
</svg>
