<svg width="219" height="60" viewBox="0 0 219 60" fill="none" xmlns="http://www.w3.org/2000/svg">
<path d="M184.219 42.8727V17.239C184.219 16.9843 184.427 16.7759 184.682 16.7759H188.514C188.769 16.7759 188.977 16.9843 188.977 17.239V42.8727C188.977 43.1274 188.769 43.3358 188.514 43.3358H184.682C184.427 43.3358 184.219 43.1274 184.219 42.8727Z" fill="white"/>
<path d="M193.162 42.8727V17.239C193.162 16.9843 193.371 16.7759 193.625 16.7759H197.458C197.712 16.7759 197.921 16.9843 197.921 17.239V42.8727C197.921 43.1274 197.712 43.3358 197.458 43.3358H193.625C193.371 43.3358 193.162 43.1274 193.162 42.8727Z" fill="white"/>
<path d="M218.047 38.531V40.0246C218.047 41.8539 216.565 43.3359 214.735 43.3359H203.215C202.602 43.3359 202.115 42.838 202.115 42.236V39.6425C202.115 39.0289 202.613 38.5426 203.215 38.5426H218.047V38.531Z" fill="white"/>
<path d="M213.247 35.613V36.7129C213.247 36.0993 212.749 35.613 212.147 35.613H213.247Z" fill="white"/>
<path d="M213.247 37.4313V38.5312H212.147C212.76 38.5312 213.247 38.0449 213.247 37.4313Z" fill="white"/>
<path d="M208.02 30.8085H206.92V29.7086C206.909 30.3107 207.407 30.8085 208.02 30.8085Z" fill="white"/>
<path d="M213.241 27.8904H207.95C207.371 27.9135 206.897 28.3998 206.897 28.9903V27.8904H213.241Z" fill="white"/>
<path d="M218.035 34.1197V35.6132H205.403C203.574 35.6132 202.092 34.1312 202.092 32.3019V30.8083H214.724C216.553 30.8083 218.035 32.2903 218.035 34.1197Z" fill="white"/>
<path d="M218.041 25.2057V26.7919C218.041 27.4055 217.544 27.8918 216.942 27.8918H213.248V25.2057H218.041Z" fill="white"/>
<path d="M218.039 34.1194V40.0242C218.039 41.8535 216.557 43.3355 214.728 43.3355H213.234V30.8081H214.728C216.557 30.8081 218.039 32.2901 218.039 34.1194Z" fill="white"/>
<path d="M206.897 25.2057V35.6143H205.403C203.574 35.6143 202.092 34.1323 202.092 32.303V25.2057H206.897Z" fill="white"/>
<path d="M206.909 38.531V43.3359H203.215C202.602 43.3359 202.115 42.838 202.115 42.236V39.6425C202.115 39.0289 202.613 38.5426 203.215 38.5426H206.909V38.531Z" fill="white"/>
<path d="M218.047 24.1855V26.7789C218.047 27.3926 217.549 27.8788 216.947 27.8788H202.115V25.2854C202.115 25.2506 202.115 25.2275 202.115 25.1927C202.162 24.0118 203.134 23.074 204.315 23.074H216.947C217.56 23.0856 218.047 23.5834 218.047 24.1855Z" fill="white"/>
<path d="M146.872 17.83V42.2133C146.872 42.4911 146.768 42.7458 146.606 42.9427C146.397 43.1742 146.108 43.3247 145.772 43.3247H145.425C143.769 43.3247 142.391 42.1091 142.16 40.5229C142.137 40.3608 142.125 40.1987 142.125 40.025V20.0414C142.125 18.2121 143.607 16.7301 145.436 16.7301H145.784C146.085 16.7301 146.363 16.8575 146.571 17.0543C146.745 17.2511 146.872 17.529 146.872 17.83Z" fill="white"/>
<path d="M147.975 38.5789C147.362 38.5789 146.875 38.081 146.875 37.4789V22.5897C146.875 22.0223 147.304 21.5476 147.871 21.4897H146.875H146.1V38.5673H146.875H159.102L147.975 38.5789Z" fill="white"/>
<path d="M160.096 17.83V20.3887C160.096 20.9908 159.598 21.4887 158.996 21.4887H143.215C142.602 21.4887 142.115 20.9908 142.115 20.3887V20.0414C142.115 18.2121 143.597 16.7301 145.427 16.7301H158.996C159.598 16.7301 160.096 17.228 160.096 17.83Z" fill="white"/>
<path d="M147.974 38.5779H146.874H146.098H143.215C142.602 38.5779 142.115 39.0757 142.115 39.6778V40.0251C142.115 40.1988 142.127 40.3609 142.15 40.523C142.162 40.5924 142.173 40.6735 142.196 40.743C142.208 40.8124 142.231 40.8935 142.254 40.9629C142.266 41.0093 142.277 41.0556 142.3 41.1019C142.312 41.1482 142.335 41.1945 142.347 41.2408C142.358 41.2871 142.382 41.3334 142.405 41.3798C142.416 41.4261 142.439 41.4724 142.463 41.5071C142.486 41.5534 142.509 41.5997 142.532 41.6345C142.555 41.6808 142.578 41.7155 142.602 41.7618C143.18 42.7112 144.222 43.348 145.415 43.348H158.984C159.598 43.348 160.084 42.8502 160.084 42.2481V39.7009C160.084 39.1336 159.656 38.6589 159.089 38.601L147.974 38.5779Z" fill="white"/>
<path d="M168.915 23.168V43.3252H167.468C165.638 43.3252 164.156 41.8432 164.156 40.0139V26.4677C164.156 24.6384 165.638 23.1564 167.468 23.1564H168.915V23.168Z" fill="white"/>
<path d="M180.097 26.4794V32.3263C180.097 33.0557 179.865 33.7388 179.46 34.283C178.858 35.105 177.885 35.626 176.797 35.626H175.35V23.1681H176.797C178.615 23.1681 180.097 24.6501 180.097 26.4794Z" fill="white"/>
<path d="M180.085 39.7132V42.2256C180.085 42.8392 179.587 43.3255 178.985 43.3255H175.326V38.6017H178.985C179.598 38.6133 180.085 39.1111 180.085 39.7132Z" fill="white"/>
<path d="M180.088 26.4794V27.8919H175.04C174.843 27.6719 174.553 27.533 174.229 27.533H170.015C169.691 27.533 169.401 27.6719 169.204 27.8919H164.156V26.4794C164.156 24.6501 165.638 23.1681 167.468 23.1681H176.788C178.606 23.1681 180.088 24.6501 180.088 26.4794Z" fill="white"/>
<path d="M180.088 30.8789V32.3261C180.088 33.0556 179.856 33.7387 179.451 34.2828C178.849 35.1049 177.876 35.6259 176.788 35.6259H164.156V30.8673H180.088V30.8789Z" fill="white"/>
<path d="M180.094 39.7137V42.2261C180.094 42.8397 179.596 43.326 178.994 43.326H167.474C167.068 43.326 166.686 43.2565 166.339 43.1292C166.189 43.0713 166.038 43.0018 165.899 42.9323C165.806 42.8744 165.714 42.8281 165.621 42.7702C165.494 42.6776 165.366 42.585 165.251 42.4808C165.17 42.4113 165.1 42.3303 165.031 42.2608C164.927 42.145 164.822 42.0177 164.741 41.8903C164.683 41.7977 164.626 41.7166 164.579 41.6124C164.51 41.4735 164.44 41.323 164.382 41.1725C164.255 40.8251 164.186 40.4315 164.186 40.0378V38.6253H179.017C179.607 38.6137 180.094 39.1116 180.094 39.7137Z" fill="white"/>
<path d="M168.917 30.879V28.6445C168.917 28.355 169.032 28.1003 169.206 27.9035C169.403 27.6835 169.692 27.5446 170.017 27.5446H174.231C174.555 27.5446 174.845 27.6835 175.041 27.9035C175.215 28.1003 175.331 28.355 175.331 28.6445V30.879H168.917ZM176.778 23.1681H167.458C165.628 23.1681 164.146 24.6501 164.146 26.4794V40.0256C164.146 40.4309 164.216 40.8129 164.343 41.1603C164.401 41.3108 164.471 41.4613 164.54 41.6002C164.598 41.6929 164.644 41.7855 164.702 41.8781C164.795 42.0055 164.887 42.1328 164.992 42.2486C165.061 42.3297 165.142 42.3991 165.212 42.4686C165.327 42.5728 165.455 42.677 165.582 42.758C165.675 42.8159 165.756 42.8738 165.86 42.9201C165.999 42.9896 166.149 43.0591 166.3 43.117C166.647 43.2443 167.041 43.3138 167.435 43.3138H176.755C177.16 43.3138 177.565 43.2443 177.924 43.1054C178.966 42.7117 179.754 41.8087 179.997 40.7087C180.043 40.4888 180.066 40.2456 180.066 40.0141V39.713C180.066 39.0994 179.568 38.6131 178.966 38.6131H169.993C169.38 38.6131 168.893 38.1153 168.893 37.5132V35.6376H176.766C177.866 35.6376 178.827 35.105 179.429 34.2945C179.835 33.7504 180.066 33.0673 180.066 32.3379V26.491C180.089 24.6501 178.607 23.1681 176.778 23.1681Z" fill="white"/>
<path d="M176.498 31.5391H167.803V28.1583C167.803 28.0657 167.803 27.9847 167.826 27.8921C167.908 27.2321 168.336 26.6764 168.915 26.3985C169.17 26.2711 169.459 26.2017 169.772 26.2017H174.542C174.831 26.2017 175.097 26.2596 175.341 26.3753C175.954 26.6416 176.394 27.2205 176.487 27.9036C176.498 27.9963 176.51 28.0773 176.51 28.1699V31.5391H176.498ZM178.42 34.642C178.814 34.642 179.173 34.5031 179.451 34.2947C179.856 33.7505 180.088 33.0674 180.088 32.338V27.9036C180.076 25.287 177.957 23.1798 175.352 23.1798H168.892C166.275 23.1798 164.156 25.287 164.156 27.9036V38.3933C164.156 38.4743 164.156 38.5554 164.156 38.6248C164.272 41.1373 166.356 43.1287 168.892 43.1287H175.352C177.297 43.1287 178.976 41.9593 179.705 40.2805C179.509 40.1184 179.266 40.0142 178.999 40.0142H169.783C169.482 40.0142 169.181 39.9447 168.926 39.8174C168.44 39.5858 168.058 39.1459 167.908 38.6248C167.85 38.4396 167.826 38.2543 167.826 38.0459V34.642H178.42Z" fill="white"/>
<path d="M180.097 41.1137V42.0168C180.097 42.6304 179.599 43.1167 178.997 43.1167H170.684C170.07 43.1167 169.584 42.6188 169.584 42.0168V41.1137C169.584 40.5001 170.082 40.0138 170.684 40.0138H178.997C179.263 40.0138 179.518 40.118 179.703 40.2801C179.842 40.3959 179.958 40.558 180.027 40.7316C180.074 40.8474 180.097 40.9748 180.097 41.1137Z" fill="white"/>
<path d="M160.016 18.0147V18.9178C160.016 19.2767 159.866 19.6009 159.623 19.8209C159.403 20.0293 159.102 20.1567 158.778 20.1567H147.338C146.655 20.1567 146.1 19.6009 146.1 18.9178V18.0147C146.1 17.3316 146.655 16.7759 147.338 16.7759H158.778C159.449 16.7759 160.016 17.32 160.016 18.0147Z" fill="white"/>
<path d="M160.016 41.0438V41.9469C160.016 42.63 159.461 43.1857 158.778 43.1857H147.338C147.176 43.1857 147.026 43.151 146.887 43.1047C146.424 42.931 146.1 42.4794 146.1 41.9469V41.0438C146.1 40.3607 146.655 39.8049 147.338 39.8049H158.778C159.09 39.8049 159.38 39.9207 159.6 40.1175C159.854 40.3491 160.016 40.6733 160.016 41.0438Z" fill="white"/>
<path d="M212.195 31.5267H207.773C207.692 31.5267 207.61 31.5268 207.529 31.5152H211.616C211.813 31.5036 212.01 31.5152 212.195 31.5267Z" fill="white"/>
<path d="M205.762 28.2263V29.4999C205.762 30.5303 206.538 31.3871 207.534 31.5029H211.621C211.818 31.5029 212.015 31.5029 212.2 31.5145C214.376 31.6187 215.87 32.3249 216.831 33.2512C215.997 34.1195 214.828 34.6521 213.543 34.6521H208.286C205.901 34.6521 204.257 33.9806 203.273 32.9154C202.486 32.0702 202.115 30.9819 202.115 29.7893V28.2495C202.115 25.4013 204.373 23.0857 208.286 23.0857H213.543C215.361 23.0857 216.947 24.1509 217.676 25.7023C217.456 26.0149 217.086 26.2118 216.669 26.2118H207.777C206.666 26.2118 205.762 27.1148 205.762 28.2263Z" fill="white"/>
<path d="M218.039 35.243V39.3763C217.576 41.2751 216.128 42.7687 213.234 43.0234C212.829 43.0581 212.4 43.0697 211.949 43.0581H206.623C204.77 43.0581 203.173 41.9929 202.42 40.4415C202.605 40.1983 202.883 40.0247 203.196 39.9668H212.504C212.759 39.9668 213.014 39.9205 213.245 39.8279C213.824 39.5963 214.264 39.1216 214.438 38.5195C214.496 38.3459 214.519 38.149 214.519 37.9638V36.6555C214.519 36.2734 214.415 35.9145 214.218 35.6019C213.998 35.2314 213.651 34.9419 213.245 34.7799C213.014 34.6872 212.771 34.6409 212.504 34.6409H208.279C207.792 34.6409 207.341 34.6178 206.912 34.5599C205.257 34.3515 204.053 33.7494 203.265 32.9042C204.11 32.0359 205.303 31.4917 206.623 31.4917H211.613C211.81 31.4917 212.007 31.4917 212.192 31.5033C212.562 31.5149 212.91 31.5612 213.245 31.6075C214.866 31.8506 216.036 32.4642 216.823 33.24C217.448 33.8652 217.842 34.5599 218.039 35.243Z" fill="white"/>
<path d="M212.777 41.205V41.8302C212.777 42.467 212.291 42.9996 211.666 43.0691C211.62 43.0691 211.585 43.0691 211.538 43.0691H203.411C202.728 43.0691 202.172 42.5133 202.172 41.8302V41.205C202.172 40.9271 202.264 40.6609 202.427 40.4524C202.612 40.2093 202.89 40.0356 203.202 39.9777C203.272 39.9662 203.341 39.9546 203.422 39.9546H211.55C211.62 39.9546 211.689 39.9546 211.758 39.9777C212.326 40.0819 212.777 40.5914 212.777 41.205Z" fill="white"/>
<path d="M217.916 24.3253V24.9621C217.916 25.2399 217.823 25.4831 217.684 25.6915C217.464 26.0041 217.094 26.2009 216.677 26.2009H208.549C207.866 26.2009 207.311 25.6452 207.311 24.9621V24.3253C207.311 23.6422 207.866 23.0864 208.549 23.0864H216.677C217.36 23.0864 217.916 23.6422 217.916 24.3253Z" fill="white"/>
<path d="M66.3284 42.8727V18.941C66.3284 18.6863 66.5368 18.4779 66.7915 18.4779H70.6238C70.8785 18.4779 71.0869 18.6863 71.0869 18.941V42.8727C71.0869 43.1274 70.8785 43.3358 70.6238 43.3358H66.7915C66.5368 43.3358 66.3284 43.1274 66.3284 42.8727Z" fill="white"/>
<path d="M126.786 17.842V42.2252C126.786 42.8389 126.288 43.3251 125.686 43.3251H123.139C122.526 43.3251 122.039 42.8273 122.039 42.2252V17.842C122.039 17.2283 122.537 16.7421 123.139 16.7421H125.686C126.288 16.7421 126.786 17.2399 126.786 17.842Z" fill="white"/>
<path d="M137.978 26.2354V42.2362C137.978 42.8498 137.48 43.3361 136.878 43.3361H134.319C133.705 43.3361 133.219 42.8382 133.219 42.2362V23.1325H134.678C136.426 23.1325 137.862 24.4987 137.978 26.2354Z" fill="white"/>
<path d="M135.594 26.0387V43.3247H134.32C133.707 43.3247 133.221 42.8268 133.221 42.2248V29.0027C133.221 28.3891 132.723 27.9028 132.121 27.9028H129.18V24.9504H134.494C135.096 24.9388 135.594 25.4367 135.594 26.0387Z" fill="white"/>
<path d="M137.968 26.4438V27.891H122.026V23.1324H134.657C136.417 23.1324 137.853 24.4987 137.957 26.2238C137.968 26.3048 137.968 26.3743 137.968 26.4438Z" fill="white"/>
<path d="M106.712 23.1325V43.3361H105.242C103.54 43.3361 102.127 42.0394 101.953 40.3837V26.0849C102.127 24.4292 103.54 23.1325 105.242 23.1325H106.712Z" fill="white"/>
<path d="M117.9 39.6777V42.2364C117.9 42.85 117.402 43.3363 116.8 43.3363H105.257C103.555 43.3363 102.142 42.0396 101.969 40.3839C101.957 40.2681 101.945 40.1408 101.945 40.025V38.5778H116.8C117.402 38.5778 117.9 39.064 117.9 39.6777Z" fill="white"/>
<path d="M117.911 24.2443V26.803C117.911 27.4051 117.414 27.9029 116.812 27.9029H101.945V26.4557C101.945 26.3399 101.945 26.2125 101.969 26.0968C102.142 24.4411 103.555 23.1444 105.257 23.1444H116.8C117.414 23.1328 117.911 23.6306 117.911 24.2443Z" fill="white"/>
<path d="M106.709 29.0025V37.4776C106.709 38.0912 107.207 38.5775 107.809 38.5775H116.782C117.384 38.5775 117.882 39.0753 117.882 39.6774V40.0247C117.882 40.2679 117.859 40.511 117.801 40.7541C117.558 41.8425 116.771 42.734 115.74 43.1276C115.381 43.2666 114.988 43.336 114.571 43.336H105.227C103.525 43.336 102.113 42.0393 101.939 40.3836C101.928 40.2679 101.916 40.1405 101.916 40.0247V26.4438C101.916 26.328 101.916 26.2006 101.939 26.0848C102.113 24.4292 103.525 23.1324 105.227 23.1324H114.571C116.4 23.1324 117.882 24.6144 117.882 26.4438V26.7911C117.882 27.3932 117.384 27.891 116.782 27.891H107.809C107.207 27.891 106.709 28.3889 106.709 29.0025Z" fill="white"/>
<path d="M60.182 16.7418H77.2364C77.4911 16.7418 77.6995 16.9502 77.6995 17.2049V21.0372C77.6995 21.2919 77.4911 21.5003 77.2364 21.5003H60.182C59.9273 21.5003 59.7189 21.2919 59.7189 21.0372V17.2049C59.7189 16.9502 59.9273 16.7418 60.182 16.7418Z" fill="white"/>
<path d="M112.366 40.0133C112.331 40.0133 112.296 40.0133 112.261 40.0133H107.584C107.283 40.0133 106.993 39.9438 106.727 39.828C106.206 39.5965 105.801 39.1334 105.639 38.5776C105.581 38.3924 105.546 38.184 105.546 37.9871V28.2964C105.546 28.169 105.558 28.0301 105.581 27.9027C105.708 27.2544 106.137 26.7102 106.727 26.4439C106.982 26.3165 107.271 26.2586 107.584 26.2586H116.788C117.055 26.2586 117.309 26.1544 117.495 25.9924C116.765 24.3135 115.098 23.1442 113.141 23.1442H106.692C104.215 23.1442 102.177 25.043 101.969 27.4628C101.957 27.6017 101.945 27.7406 101.945 27.8796V38.3808C101.945 38.4387 101.945 38.5082 101.945 38.5776C101.945 38.6471 101.945 38.7281 101.957 38.7976C102.165 41.2174 104.203 43.1162 106.681 43.1162H113.13C115.075 43.1162 116.754 41.9468 117.483 40.268C117.286 40.1059 117.043 40.0017 116.777 40.0017H112.366V40.0133Z" fill="white"/>
<path d="M86.6123 23.1674V43.3247H85.1651C83.3357 43.3247 81.8538 41.8427 81.8538 40.0134V26.4671C81.8538 24.6378 83.3357 23.1558 85.1651 23.1558H86.6123V23.1674Z" fill="white"/>
<path d="M97.7942 26.4789V32.3258C97.7942 33.0552 97.5627 33.7383 97.1574 34.2825C96.5554 35.1045 95.5828 35.6255 94.4945 35.6255H93.0472V23.1676H94.4945C96.3122 23.1676 97.7942 24.6496 97.7942 26.4789Z" fill="white"/>
<path d="M97.7824 39.7244V42.2368C97.7824 42.8505 97.2845 43.3367 96.6825 43.3367H93.0238V38.6129H96.6825C97.2961 38.6129 97.7824 39.1108 97.7824 39.7244Z" fill="white"/>
<path d="M97.7851 26.4788V27.8914H92.7371C92.5402 27.6714 92.2508 27.5324 91.9266 27.5324H87.7122C87.388 27.5324 87.0986 27.6714 86.9018 27.8914H81.8538V26.4788C81.8538 24.6495 83.3357 23.1675 85.1651 23.1675H94.4854C96.3031 23.1675 97.7851 24.6495 97.7851 26.4788Z" fill="white"/>
<path d="M97.7851 30.8783V32.3256C97.7851 33.055 97.5535 33.7381 97.1483 34.2823C96.5462 35.1043 95.5737 35.6253 94.4854 35.6253H81.8538V30.8668H97.7851V30.8783Z" fill="white"/>
<path d="M97.7912 39.7238V42.2362C97.7912 42.8499 97.2934 43.3361 96.6913 43.3361H85.1712C84.766 43.3361 84.3839 43.2667 84.0366 43.1393C83.8861 43.0814 83.7355 43.012 83.5966 42.9425C83.504 42.8846 83.4114 42.8383 83.3187 42.7804C83.1914 42.6878 83.064 42.5952 82.9482 42.491C82.8672 42.4215 82.7977 42.3404 82.7282 42.271C82.624 42.1552 82.5198 42.0278 82.4388 41.9005C82.3809 41.8079 82.323 41.7268 82.2767 41.6226C82.2072 41.4837 82.1378 41.3332 82.0799 41.1826C81.9525 40.8353 81.8831 40.4416 81.8831 40.048V38.6355H96.7145C97.3049 38.6123 97.7912 39.1102 97.7912 39.7238Z" fill="white"/>
<path d="M86.6142 30.8785V28.644C86.6142 28.3545 86.73 28.0998 86.9037 27.903C87.1005 27.683 87.39 27.5441 87.7142 27.5441H91.9285C92.2527 27.5441 92.5422 27.683 92.739 27.903C92.9127 28.0998 93.0285 28.3545 93.0285 28.644V30.8785H86.6142ZM94.4757 23.1676H85.1554C83.3261 23.1676 81.8441 24.6496 81.8441 26.4789V40.0252C81.8441 40.4304 81.9136 40.8125 82.0409 41.1598C82.0988 41.3103 82.1683 41.4608 82.2378 41.5998C82.2957 41.6924 82.342 41.785 82.3999 41.8776C82.4925 42.005 82.5851 42.1324 82.6893 42.2481C82.7588 42.3292 82.8398 42.3986 82.9093 42.4681C83.0251 42.5723 83.1524 42.6765 83.2798 42.7576C83.3724 42.8154 83.4535 42.8733 83.5577 42.9197C83.6966 42.9891 83.8471 43.0586 83.9976 43.1165C84.345 43.2438 84.7386 43.3133 85.1323 43.3133H94.4525C94.8578 43.3133 95.263 43.2438 95.6219 43.1049C96.6639 42.7112 97.4512 41.8082 97.6944 40.7083C97.7407 40.4883 97.7639 40.2451 97.7639 40.0136V39.7125C97.7639 39.0989 97.266 38.6126 96.6639 38.6126H87.691C87.0774 38.6126 86.5911 38.1148 86.5911 37.5127V35.6371H94.4641C95.564 35.6371 96.525 35.1045 97.1271 34.2941C97.5323 33.7499 97.7639 33.0668 97.7639 32.3374V26.4905C97.787 24.6496 96.305 23.1676 94.4757 23.1676Z" fill="white"/>
<path d="M94.1959 31.5386H85.5008V28.1578C85.5008 28.0652 85.5008 27.9841 85.524 27.8915C85.605 27.2316 86.0334 26.6758 86.6123 26.3979C86.867 26.2706 87.1565 26.2011 87.4691 26.2011H92.2392C92.5287 26.2011 92.795 26.259 93.0381 26.3748C93.6517 26.6411 94.0917 27.22 94.1843 27.9031C94.1959 27.9957 94.2075 28.0767 94.2075 28.1694V31.5386H94.1959ZM96.1178 34.6415C96.5115 34.6415 96.8704 34.5025 97.1483 34.2941C97.5535 33.75 97.7851 33.0669 97.7851 32.3374V27.9031C97.7735 25.2865 95.6547 23.1793 93.0497 23.1793H86.5892C83.9725 23.1793 81.8538 25.2865 81.8538 27.9031V38.3927C81.8538 38.4738 81.8538 38.5548 81.8538 38.6243C81.9695 41.1367 84.0536 43.1281 86.5892 43.1281H93.0497C94.9948 43.1281 96.6736 41.9588 97.403 40.2799C97.2062 40.1179 96.963 40.0137 96.6967 40.0137H87.4807C87.1796 40.0137 86.8786 39.9442 86.6239 39.8168C86.1376 39.5853 85.7555 39.1453 85.605 38.6243C85.5471 38.439 85.524 38.2538 85.524 38.0454V34.6415H96.1178Z" fill="white"/>
<path d="M97.7944 41.1132V42.0163C97.7944 42.6299 97.2966 43.1162 96.6945 43.1162H88.3815C87.7679 43.1162 87.2816 42.6184 87.2816 42.0163V41.1132C87.2816 40.4996 87.7795 40.0133 88.3815 40.0133H96.6945C96.9608 40.0133 97.2155 40.1175 97.4008 40.2796C97.5397 40.3954 97.6555 40.5575 97.725 40.7311C97.7713 40.8469 97.7944 40.9743 97.7944 41.1132Z" fill="white"/>
<path d="M117.866 41.1132V42.0163C117.866 42.6299 117.369 43.1162 116.767 43.1162H108.454C107.84 43.1162 107.354 42.6184 107.354 42.0163V41.1132C107.354 40.5459 107.782 40.0712 108.349 40.0133C108.384 40.0133 108.419 40.0133 108.465 40.0133H116.778C117.044 40.0133 117.299 40.1175 117.484 40.2796C117.716 40.4764 117.866 40.7775 117.866 41.1132Z" fill="white"/>
<path d="M125.893 18.1774V41.9007C125.893 42.6996 125.256 43.3363 124.457 43.3363H123.461C122.674 43.3363 122.026 42.6996 122.026 41.9007V18.1774C122.026 17.3901 122.662 16.7417 123.461 16.7417H124.457C125.256 16.7417 125.893 17.3785 125.893 18.1774Z" fill="white"/>
<path d="M117.894 24.2443V26.803C117.894 27.4051 117.396 27.9029 116.794 27.9029H107.821C107.208 27.9029 106.722 28.4008 106.722 29.0029V37.4779C106.722 38.0916 107.219 38.5779 107.821 38.5779H116.794C117.396 38.5779 117.894 39.0757 117.894 39.6778V42.2365C117.894 42.8501 117.396 43.3364 116.794 43.3364H105.251C103.549 43.3364 102.137 42.0397 101.963 40.384V26.0852C102.137 24.4295 103.549 23.1328 105.251 23.1328H116.794C117.396 23.1328 117.894 23.6307 117.894 24.2443Z" fill="white"/>
<path d="M137.982 26.2357V42.2364C137.982 42.8501 137.485 43.3363 136.883 43.3363H134.324C133.71 43.3363 133.224 42.8385 133.224 42.2364V29.0028C133.224 28.3892 132.726 27.9029 132.124 27.9029H126.81V42.2364C126.81 42.8501 126.312 43.3363 125.71 43.3363H123.163C122.549 43.3363 122.063 42.8385 122.063 42.2364V17.8416C122.063 17.228 122.561 16.7417 123.163 16.7417H125.71C126.323 16.7417 126.81 17.2396 126.81 17.8416V23.1327H134.694C136.431 23.1327 137.867 24.499 137.982 26.2357Z" fill="white"/>
<path d="M51.5568 45.9993L28.1229 59.5224C27.0114 60.1592 25.6452 60.1592 24.5453 59.5224L1.79459 46.3814C0.683101 45.7446 0 44.5637 0 43.2785V18.6637C0 18.0848 0.625211 17.7259 1.12306 18.0153L6.69208 21.2224C7.24782 21.5466 7.58358 22.1371 7.58358 22.7739V39.944C7.58358 40.5808 7.91934 41.1713 8.47509 41.4955L25.4368 51.2905C25.9926 51.6147 26.6757 51.6147 27.2314 51.2905L44.1932 41.4955C44.7489 41.1713 45.432 41.1713 45.9878 41.4955L51.5568 44.7142C52.0546 44.992 52.0546 45.7099 51.5568 45.9993Z" fill="white"/>
<path d="M30.4434 15.5848L36.0124 18.7919C36.5681 19.1161 36.9039 19.7065 36.9039 20.3433V39.9333C36.9039 40.5701 36.5681 41.1606 36.0124 41.4847L30.4434 44.7034C29.9455 44.9929 29.3203 44.634 29.3203 44.0551V16.2332C29.3319 15.6543 29.9455 15.2953 30.4434 15.5848Z" fill="white"/>
<path d="M22.234 15.6073L16.6649 18.8144C16.1092 19.1386 15.7734 19.7291 15.7734 20.3658V39.9211C15.7734 40.5579 16.1208 41.1483 16.6649 41.4725L22.234 44.6796C22.7318 44.9691 23.357 44.6101 23.357 44.0312V16.2441C23.357 15.6768 22.7318 15.3178 22.234 15.6073Z" fill="white"/>
<path d="M51.5609 15.584L45.9918 18.8027C45.4361 19.1268 44.753 19.1268 44.1973 18.8027L27.2355 9.00767C26.6798 8.68349 25.9967 8.68349 25.4409 9.00767L8.47918 18.8027C7.92343 19.1268 7.24033 19.1268 6.68459 18.8027L1.11558 15.584C0.617724 15.2945 0.617724 14.5767 1.11558 14.2872L25.4409 0.243138C25.9967 -0.0810459 26.6798 -0.0810459 27.2355 0.243138L51.5609 14.2872C52.0587 14.5767 52.0587 15.2945 51.5609 15.584Z" fill="white"/>
</svg>
