<svg width="52" height="60" viewBox="0 0 52 60" fill="none" xmlns="http://www.w3.org/2000/svg">
<path d="M51.5565 46.0002L28.1228 59.5233C27.0113 60.16 25.6451 60.16 24.5452 59.5233L1.79458 46.3823C0.683098 45.7455 0 44.5646 0 43.2794V18.6647C0 18.0858 0.625208 17.7269 1.12306 18.0164L6.69205 21.2234C7.24779 21.5476 7.58355 22.1381 7.58355 22.7749V39.945C7.58355 40.5818 7.91931 41.1722 8.47505 41.4964L25.4367 51.2914C25.9925 51.6155 26.6756 51.6155 27.2313 51.2914L44.193 41.4964C44.7487 41.1722 45.4318 41.1722 45.9876 41.4964L51.5565 44.7151C52.0544 44.993 52.0544 45.7108 51.5565 46.0002Z" fill="white"/>
<path d="M30.4434 15.5847L36.0124 18.7918C36.5681 19.116 36.9039 19.7065 36.9039 20.3433V39.9331C36.9039 40.5699 36.5681 41.1604 36.0124 41.4846L30.4434 44.7032C29.9455 44.9927 29.3203 44.6338 29.3203 44.0549V16.2331C29.3319 15.6542 29.9455 15.2953 30.4434 15.5847Z" fill="white"/>
<path d="M22.2339 15.6083L16.6649 18.8154C16.1092 19.1396 15.7734 19.7301 15.7734 20.3669V39.922C15.7734 40.5588 16.1208 41.1493 16.6649 41.4734L22.2339 44.6805C22.7318 44.97 23.357 44.6111 23.357 44.0322V16.2451C23.357 15.6778 22.7318 15.3189 22.2339 15.6083Z" fill="white"/>
<path d="M51.5587 15.5839L45.9897 18.8026C45.4339 19.1267 44.7509 19.1267 44.1951 18.8026L27.2334 9.00763C26.6777 8.68345 25.9946 8.68345 25.4389 9.00763L8.47719 18.8026C7.92145 19.1267 7.23835 19.1267 6.68261 18.8026L1.11362 15.5839C0.615772 15.2945 0.615772 14.5766 1.11362 14.2872L25.4389 0.243137C25.9946 -0.0810455 26.6777 -0.0810455 27.2334 0.243137L51.5587 14.2872C52.0565 14.5766 52.0565 15.2945 51.5587 15.5839Z" fill="white"/>
</svg>
