<svg width="104" height="120" viewBox="0 0 104 120" fill="none" xmlns="http://www.w3.org/2000/svg">
<path d="M103.112 91.9992L56.2449 119.045C54.0219 120.319 51.2896 120.319 49.0898 119.045L3.58911 92.7634C1.36618 91.4898 0 89.128 0 86.5577V37.3289C0 36.1712 1.2504 35.4533 2.24609 36.0322L13.3839 42.4463C14.4954 43.0947 15.1669 44.2756 15.1669 45.5492V79.8889C15.1669 81.1624 15.8384 82.3434 16.9499 82.9917L50.8728 102.581C51.9843 103.23 53.3504 103.23 54.4619 102.581L88.3848 82.9917C89.4963 82.3434 90.8625 82.3434 91.9739 82.9917L103.112 89.429C104.107 89.9847 104.107 91.4204 103.112 91.9992Z" fill="#00A29A"/>
<path d="M60.8848 31.169L72.0226 37.583C73.1341 38.2314 73.8056 39.4123 73.8056 40.6859V79.8651C73.8056 81.1387 73.1341 82.3196 72.0226 82.968L60.8848 89.4052C59.8891 89.9841 58.6387 89.2663 58.6387 88.1085V32.4657C58.6618 31.3079 59.8891 30.5901 60.8848 31.169Z" fill="#1C284C"/>
<path d="M44.4677 31.2123L33.3299 37.6263C32.2184 38.2747 31.5469 39.4556 31.5469 40.7292V79.839C31.5469 81.1125 32.2415 82.2934 33.3299 82.9418L44.4677 89.3559C45.4634 89.9348 46.7138 89.217 46.7138 88.0592V32.4858C46.7138 31.3512 45.4634 30.6334 44.4677 31.2123Z" fill="#1C284C"/>
<path d="M103.112 31.1674L91.9743 37.6046C90.8628 38.253 89.4967 38.253 88.3852 37.6046L54.4623 18.015C53.3508 17.3667 51.9846 17.3667 50.8732 18.015L16.9503 37.6046C15.8388 38.253 14.4726 38.253 13.3612 37.6046L2.22333 31.1674C1.22764 30.5885 1.22764 29.1529 2.22333 28.574L50.8732 0.486267C51.9846 -0.162089 53.3508 -0.162089 54.4623 0.486267L103.112 28.574C104.108 29.1529 104.108 30.5885 103.112 31.1674Z" fill="#1C284C"/>
</svg>
