<svg width="12" height="12" viewBox="0 0 12 12" fill="none" xmlns="http://www.w3.org/2000/svg">
<path d="M10 5.2C9.55817 5.2 9.2 5.55817 9.2 6C9.2 6.44183 9.55817 6.8 10 6.8V5.2ZM11.5657 6.56569C11.8781 6.25327 11.8781 5.74673 11.5657 5.43431L6.47452 0.343146C6.1621 0.0307264 5.65557 0.0307264 5.34315 0.343146C5.03073 0.655565 5.03073 1.1621 5.34315 1.47452L9.86863 6L5.34315 10.5255C5.03073 10.8379 5.03073 11.3444 5.34315 11.6569C5.65557 11.9693 6.1621 11.9693 6.47452 11.6569L11.5657 6.56569ZM10 6.8H11V5.2H10V6.8Z" fill="#ffffff"/>
<path d="M5 5.2C4.55817 5.2 4.2 5.55817 4.2 6C4.2 6.44183 4.55817 6.8 5 6.8V5.2ZM6.56569 6.56569C6.8781 6.25327 6.8781 5.74673 6.56569 5.43431L1.47452 0.343146C1.1621 0.0307264 0.655565 0.0307264 0.343146 0.343146C0.0307264 0.655565 0.0307264 1.1621 0.343146 1.47452L4.86863 6L0.343146 10.5255C0.0307264 10.8379 0.0307264 11.3444 0.343146 11.6569C0.655565 11.9693 1.1621 11.9693 1.47452 11.6569L6.56569 6.56569ZM5 6.8H6V5.2H5V6.8Z" fill="#ffffff"/>
</svg>
