<svg width="12" height="12" viewBox="0 0 12 12" fill="none" xmlns="http://www.w3.org/2000/svg">
<path d="M2 6.8C2.44183 6.8 2.8 6.44183 2.8 6C2.8 5.55817 2.44183 5.2 2 5.2V6.8ZM0.434315 5.43431C0.121895 5.74673 0.121895 6.25327 0.434315 6.56569L5.52548 11.6569C5.8379 11.9693 6.34443 11.9693 6.65685 11.6569C6.96927 11.3444 6.96927 10.8379 6.65685 10.5255L2.13137 6L6.65685 1.47452C6.96927 1.1621 6.96927 0.655565 6.65685 0.343146C6.34443 0.0307264 5.8379 0.0307264 5.52548 0.343146L0.434315 5.43431ZM2 5.2H1V6.8H2V5.2Z" fill="#1C284C"/>
<path d="M7 6.8C7.44183 6.8 7.8 6.44183 7.8 6C7.8 5.55817 7.44183 5.2 7 5.2V6.8ZM5.43431 5.43431C5.1219 5.74673 5.1219 6.25327 5.43431 6.56569L10.5255 11.6569C10.8379 11.9693 11.3444 11.9693 11.6569 11.6569C11.9693 11.3444 11.9693 10.8379 11.6569 10.5255L7.13137 6L11.6569 1.47452C11.9693 1.1621 11.9693 0.655565 11.6569 0.343146C11.3444 0.0307264 10.8379 0.0307264 10.5255 0.343146L5.43431 5.43431ZM7 5.2H6V6.8H7V5.2Z" fill="#1C284C"/>
</svg>
