<svg width="20" height="20" viewBox="0 0 20 20" fill="none" xmlns="http://www.w3.org/2000/svg">
<path fill-rule="evenodd" clip-rule="evenodd" d="M5.01091 1.85195C4.82743 1.66846 4.52992 1.66846 4.34646 1.85195L2.75653 3.44187C1.70787 4.49053 1.41953 6.07987 2.03329 7.43009C4.15627 12.1005 7.89959 15.8438 12.5698 17.9666C13.92 18.5804 15.5094 18.2922 16.558 17.2434L18.1479 15.6534C18.3316 15.4699 18.3316 15.1724 18.1479 14.989L16.0093 12.8501C15.8662 12.7072 15.6479 12.6716 15.4669 12.7623L14.2799 13.3556C12.9282 14.0316 11.2954 13.7666 10.2269 12.6978L7.30204 9.77298C6.2333 8.70444 5.96832 7.07166 6.64424 5.71992L7.23773 4.53294C7.32823 4.35214 7.29264 4.13365 7.14971 3.99054L5.01091 1.85195ZM3.13421 0.639699C3.98714 -0.213233 5.37023 -0.213233 6.22316 0.639699L8.36181 2.77854C9.02666 3.4432 9.19143 4.45879 8.77106 5.29967L8.17757 6.48665C7.83165 7.17848 7.9673 8.01403 8.51412 8.56083L11.4391 11.4859C11.9859 12.0327 12.8215 12.1683 13.5133 11.8224L14.7003 11.2289C15.5412 10.8086 16.5567 10.9733 17.2214 11.6382L19.3603 13.7768C20.2132 14.6299 20.2132 16.0128 19.3603 16.8658L17.7703 18.4557C16.2164 20.0097 13.8613 20.4367 11.8605 19.5273C6.81261 17.2327 2.76689 13.1874 0.472686 8.13954C-0.436671 6.13882 -0.00965148 3.78378 1.54431 2.22966L3.13421 0.639699Z" fill="white"/>
</svg>
