<svg width="68" height="18" viewBox="0 0 68 18" fill="none" xmlns="http://www.w3.org/2000/svg">
<path d="M2 8.4C1.66863 8.4 1.4 8.66863 1.4 9C1.4 9.33137 1.66863 9.6 2 9.6V8.4ZM66.4243 9.42426C66.6586 9.18995 66.6586 8.81005 66.4243 8.57574L62.6059 4.75736C62.3716 4.52304 61.9917 4.52304 61.7574 4.75736C61.523 4.99167 61.523 5.37157 61.7574 5.60589L65.1515 9L61.7574 12.3941C61.523 12.6284 61.523 13.0083 61.7574 13.2426C61.9917 13.477 62.3716 13.477 62.6059 13.2426L66.4243 9.42426ZM7.33333 9.6C7.6647 9.6 7.93333 9.33137 7.93333 9C7.93333 8.66863 7.6647 8.4 7.33333 8.4V9.6ZM18 8.4C17.6686 8.4 17.4 8.66863 17.4 9C17.4 9.33137 17.6686 9.6 18 9.6V8.4ZM28.6667 9.6C28.998 9.6 29.2667 9.33137 29.2667 9C29.2667 8.66863 28.998 8.4 28.6667 8.4V9.6ZM39.3333 8.4C39.002 8.4 38.7333 8.66863 38.7333 9C38.7333 9.33137 39.002 9.6 39.3333 9.6V8.4ZM50 9.6C50.3314 9.6 50.6 9.33137 50.6 9C50.6 8.66863 50.3314 8.4 50 8.4V9.6ZM60.6667 8.4C60.3353 8.4 60.0667 8.66863 60.0667 9C60.0667 9.33137 60.3353 9.6 60.6667 9.6V8.4ZM2 9.6H7.33333V8.4H2V9.6ZM18 9.6H28.6667V8.4H18V9.6ZM39.3333 9.6H50V8.4H39.3333V9.6ZM60.6667 9.6H66V8.4H60.6667V9.6ZM2 7.8C1.33726 7.8 0.8 8.33726 0.8 9C0.8 9.66274 1.33726 10.2 2 10.2V7.8ZM66.8485 9.84853C67.3172 9.3799 67.3172 8.6201 66.8485 8.15147L59.2118 0.514718C58.7431 0.0460892 57.9833 0.0460892 57.5147 0.514718C57.0461 0.983348 57.0461 1.74315 57.5147 2.21177L64.3029 9L57.5147 15.7882C57.0461 16.2569 57.0461 17.0167 57.5147 17.4853C57.9833 17.9539 58.7431 17.9539 59.2118 17.4853L66.8485 9.84853ZM7.33333 10.2C7.99608 10.2 8.53333 9.66274 8.53333 9C8.53333 8.33726 7.99608 7.8 7.33333 7.8V10.2ZM18 7.8C17.3373 7.8 16.8 8.33726 16.8 9C16.8 9.66274 17.3373 10.2 18 10.2V7.8ZM28.6667 10.2C29.3294 10.2 29.8667 9.66274 29.8667 9C29.8667 8.33726 29.3294 7.8 28.6667 7.8V10.2ZM39.3333 7.8C38.6706 7.8 38.1333 8.33726 38.1333 9C38.1333 9.66274 38.6706 10.2 39.3333 10.2V7.8ZM50 10.2C50.6627 10.2 51.2 9.66274 51.2 9C51.2 8.33726 50.6627 7.8 50 7.8V10.2ZM60.6667 7.8C60.0039 7.8 59.4667 8.33726 59.4667 9C59.4667 9.66274 60.0039 10.2 60.6667 10.2V7.8ZM2 10.2H7.33333V7.8H2V10.2ZM18 10.2H28.6667V7.8H18V10.2ZM39.3333 10.2H50V7.8H39.3333V10.2ZM60.6667 10.2H66V7.8H60.6667V10.2Z" fill="#CED6DB"/>
</svg>
