<svg width="260" height="292" viewBox="0 0 260 292" fill="none" xmlns="http://www.w3.org/2000/svg">
<path d="M100.25 13.7535C107.579 9.52216 113.045 6.36709 117.682 4.26634C122.31 2.17013 126.077 1.14102 130 1.14102C133.923 1.14102 137.69 2.17013 142.318 4.26634C146.955 6.36709 152.421 9.52216 159.75 13.7535L229.654 54.1125C236.983 58.3439 242.448 61.4999 246.586 64.4657C250.715 67.4251 253.49 70.1729 255.452 73.5705C257.413 76.9682 258.405 80.745 258.904 85.8006C259.403 90.8672 259.404 97.1783 259.404 105.641V186.359C259.404 194.822 259.403 201.133 258.904 206.199C258.405 211.255 257.413 215.032 255.452 218.429C253.49 221.827 250.715 224.575 246.586 227.534C242.448 230.5 236.983 233.656 229.654 237.887L159.75 278.246C152.421 282.478 146.955 285.633 142.318 287.734C137.69 289.83 133.923 290.859 130 290.859C126.077 290.859 122.31 289.83 117.682 287.734C113.045 285.633 107.579 282.478 100.25 278.246L30.3462 237.887C23.0173 233.656 17.552 230.5 13.4139 227.534C9.28481 224.575 6.51008 221.827 4.54844 218.429C2.5868 215.032 1.59454 211.255 1.09618 206.199C0.59675 201.133 0.596191 194.822 0.596191 186.359V105.641C0.596191 97.1783 0.59675 90.8672 1.09618 85.8006C1.59454 80.745 2.5868 76.9682 4.54844 73.5705C6.51008 70.1729 9.28481 67.4251 13.4139 64.4657C17.552 61.4999 23.0173 58.3439 30.3462 54.1125L100.25 13.7535Z" fill="#F9FAFB" stroke="url(#paint0_linear_27_3588)"/>
<defs>
<linearGradient id="paint0_linear_27_3588" x1="-20" y1="-4" x2="280" y2="296" gradientUnits="userSpaceOnUse">
<stop stop-color="#2FA1B7"/>
<stop offset="0.497917" stop-color="#8684D8"/>
<stop offset="1" stop-color="#EE4152"/>
</linearGradient>
</defs>
</svg>
