<svg width="49" height="40" viewBox="0 0 49 40" fill="none" xmlns="http://www.w3.org/2000/svg">
<path d="M39.5686 12.0073C38.1984 5.06544 32.1394 0 24.9064 0C19.9698 0 15.458 2.36394 12.6572 6.37011C5.48591 6.79253 0 11.9794 0 18.524C0 25.3017 5.44788 30.8152 12.1447 30.8152C13.0956 30.8152 13.8668 30.0445 13.8668 29.0931C13.8668 28.1421 13.0961 27.3709 12.1447 27.3709C7.34738 27.3709 3.44423 23.4021 3.44423 18.5239C3.44423 13.5424 7.81305 9.78543 13.6062 9.78543C14.206 9.78543 14.7629 9.47311 15.0757 8.96099C17.1862 5.50549 20.8619 3.443 24.9068 3.443C30.8644 3.443 35.7876 7.90797 36.3575 13.8287C36.4424 14.712 37.1848 15.3855 38.0717 15.3855C42.7312 15.3855 45.5129 17.5978 45.5129 21.3043C45.5133 24.5933 42.7921 27.3716 39.5712 27.3716H34.4653C33.5143 27.3716 32.7431 28.1424 32.7431 29.0938C32.7431 30.0448 33.5139 30.816 34.4653 30.816H39.5712C44.7473 30.816 48.9583 26.5492 48.9583 21.3055C48.9575 16.0586 45.3222 12.5251 39.5688 12.0077L39.5686 12.0073ZM24.848 16.5479C24.2021 15.9017 23.0586 15.9017 22.4123 16.5479L16.3429 22.6185C15.6706 23.2912 15.6706 24.3815 16.3429 25.0534C17.0152 25.7261 18.1059 25.7261 18.7786 25.0534L21.8369 21.9951V38.2778C21.8369 39.2288 22.6077 40 23.5591 40C24.51 40 25.2813 39.2292 25.2813 38.2778L25.2809 21.8516L28.4829 25.0536C28.8192 25.3899 29.2601 25.5581 29.7005 25.5581C30.141 25.5581 30.5818 25.3899 30.9182 25.0536C31.5908 24.3813 31.5908 23.2915 30.9182 22.6187L24.848 16.5479Z" fill="#00A29A"/>
</svg>
