<svg width="304" height="338" viewBox="0 0 304 338" fill="none" xmlns="http://www.w3.org/2000/svg">
<path d="M112 17.094C131.521 5.82335 141.282 0.188022 152 0.188022C162.718 0.188022 172.479 5.82335 192 17.094L263.554 58.406C283.076 69.6767 292.836 75.312 298.195 84.594C303.554 93.876 303.554 105.147 303.554 127.688V210.312C303.554 232.853 303.554 244.124 298.195 253.406C292.836 262.688 283.076 268.323 263.554 279.594L192 320.906C172.479 332.177 162.718 337.812 152 337.812C141.282 337.812 131.521 332.177 112 320.906L40.4455 279.594C20.9242 268.323 11.1635 262.688 5.80454 253.406C0.445557 244.124 0.445557 232.853 0.445557 210.312V127.688C0.445557 105.147 0.445557 93.876 5.80454 84.594C11.1635 75.312 20.9242 69.6767 40.4456 58.406L112 17.094Z" fill="#F9FAFB"/>
</svg>
